<svg width="30" height="30" viewBox="0 0 30 30" fill="none" xmlns="http://www.w3.org/2000/svg">
<path fill-rule="evenodd" clip-rule="evenodd" d="M23.75 13.7499H8.91875L13.46 8.29989C13.9025 7.76989 13.83 6.98114 13.3 6.53989C12.7687 6.09739 11.9812 6.16989 11.54 6.69989L5.29 14.1999C5.24125 14.2586 5.21625 14.3274 5.18 14.3924C5.15 14.4449 5.11375 14.4899 5.09125 14.5474C5.035 14.6911 5.00125 14.8424 5.00125 14.9949C5.00125 14.9961 5 14.9986 5 14.9999C5 15.0011 5.00125 15.0036 5.00125 15.0049C5.00125 15.1574 5.035 15.3086 5.09125 15.4524C5.11375 15.5099 5.15 15.5549 5.18 15.6074C5.21625 15.6724 5.24125 15.7411 5.29 15.7999L11.54 23.2999C11.7875 23.5961 12.1425 23.7499 12.5 23.7499C12.7825 23.7499 13.0662 23.6549 13.3 23.4599C13.83 23.0186 13.9025 22.2299 13.46 21.6999L8.91875 16.2499H23.75C24.44 16.2499 25 15.6899 25 14.9999C25 14.3099 24.44 13.7499 23.75 13.7499" fill="white"/>
<mask id="mask0_398_21058" style="mask-type:alpha" maskUnits="userSpaceOnUse" x="5" y="6" width="20" height="18">
<path fill-rule="evenodd" clip-rule="evenodd" d="M23.75 13.7499H8.91875L13.46 8.29989C13.9025 7.76989 13.83 6.98114 13.3 6.53989C12.7687 6.09739 11.9812 6.16989 11.54 6.69989L5.29 14.1999C5.24125 14.2586 5.21625 14.3274 5.18 14.3924C5.15 14.4449 5.11375 14.4899 5.09125 14.5474C5.035 14.6911 5.00125 14.8424 5.00125 14.9949C5.00125 14.9961 5 14.9986 5 14.9999C5 15.0011 5.00125 15.0036 5.00125 15.0049C5.00125 15.1574 5.035 15.3086 5.09125 15.4524C5.11375 15.5099 5.15 15.5549 5.18 15.6074C5.21625 15.6724 5.24125 15.7411 5.29 15.7999L11.54 23.2999C11.7875 23.5961 12.1425 23.7499 12.5 23.7499C12.7825 23.7499 13.0662 23.6549 13.3 23.4599C13.83 23.0186 13.9025 22.2299 13.46 21.6999L8.91875 16.2499H23.75C24.44 16.2499 25 15.6899 25 14.9999C25 14.3099 24.44 13.7499 23.75 13.7499" fill="white"/>
</mask>
<g mask="url(#mask0_398_21058)">
<rect width="30" height="30" fill="white"/>
</g>
</svg>
