<svg width="30" height="30" viewBox="0 0 30 30" fill="none" xmlns="http://www.w3.org/2000/svg">
<g id="Icon/Outline/arrow-right">
<path id="Mask" fill-rule="evenodd" clip-rule="evenodd" d="M6.25 16.25H21.0812L16.54 21.7C16.0975 22.23 16.17 23.0187 16.7 23.46C17.2312 23.9025 18.0188 23.83 18.4613 23.3L24.7113 15.8C24.76 15.7412 24.7837 15.6725 24.82 15.6075C24.85 15.555 24.8863 15.51 24.9088 15.4525C24.965 15.3087 24.9987 15.1575 24.9987 15.005C24.9987 15.0037 25 15.0012 25 15C25 14.9987 24.9987 14.9962 24.9987 14.995C24.9987 14.8425 24.965 14.6912 24.9088 14.5475C24.8863 14.49 24.85 14.445 24.82 14.3925C24.7837 14.3275 24.76 14.2587 24.7113 14.2L18.4613 6.7C18.2125 6.40375 17.8575 6.25 17.5 6.25C17.2175 6.25 16.9337 6.345 16.7 6.54C16.17 6.98125 16.0975 7.77 16.54 8.3L21.0812 13.75H6.25C5.56 13.75 5 14.31 5 15C5 15.69 5.56 16.25 6.25 16.25" fill="white"/>
<mask id="mask0_398_21064" style="mask-type:alpha" maskUnits="userSpaceOnUse" x="5" y="6" width="20" height="18">
<path id="Mask_2" fill-rule="evenodd" clip-rule="evenodd" d="M6.25 16.25H21.0812L16.54 21.7C16.0975 22.23 16.17 23.0187 16.7 23.46C17.2312 23.9025 18.0188 23.83 18.4613 23.3L24.7113 15.8C24.76 15.7412 24.7837 15.6725 24.82 15.6075C24.85 15.555 24.8863 15.51 24.9088 15.4525C24.965 15.3087 24.9987 15.1575 24.9987 15.005C24.9987 15.0037 25 15.0012 25 15C25 14.9987 24.9987 14.9962 24.9987 14.995C24.9987 14.8425 24.965 14.6912 24.9088 14.5475C24.8863 14.49 24.85 14.445 24.82 14.3925C24.7837 14.3275 24.76 14.2587 24.7113 14.2L18.4613 6.7C18.2125 6.40375 17.8575 6.25 17.5 6.25C17.2175 6.25 16.9337 6.345 16.7 6.54C16.17 6.98125 16.0975 7.77 16.54 8.3L21.0812 13.75H6.25C5.56 13.75 5 14.31 5 15C5 15.69 5.56 16.25 6.25 16.25" fill="white"/>
</mask>
<g mask="url(#mask0_398_21064)">
<g id="&#240;&#159;&#142;&#168; Color">
<rect id="Base" width="30" height="30" fill="white"/>
</g>
</g>
</g>
</svg>
