<svg width="364" height="458" viewBox="0 0 364 458" fill="none" xmlns="http://www.w3.org/2000/svg">
<g opacity="0.5" filter="url(#filter0_f_52_75)">
<path d="M127.061 382.299C125.721 380.922 -4.18371 242.503 -7.74624 238.842C-11.3088 235.182 -22.6173 223.561 -22.4802 212.964C-22.3431 202.367 -17.3224 175.245 -17.0058 174.153C-16.935 173.823 -16.7994 173.51 -16.6067 173.233C-16.414 172.955 -16.1681 172.719 -15.8835 172.537L166.266 63.9153C166.8 63.5972 167.438 63.5027 168.039 63.6526C168.64 63.8024 169.157 64.1843 169.476 64.715C169.638 64.977 169.746 65.2694 169.793 65.5746C169.84 65.8798 169.825 66.1917 169.749 66.4916C169.673 66.7915 169.537 67.0733 169.35 67.3202C169.163 67.5671 168.928 67.7741 168.66 67.9287L-12.5181 176.063C-13.4661 181.302 -17.5297 204.68 -17.7306 213.05C-17.9316 221.42 -7.7048 232.132 -4.33838 235.591C-0.971959 239.05 114.137 361.657 129.065 377.537L334.567 229.837C335.076 229.463 335.71 229.306 336.332 229.401C336.953 229.495 337.511 229.832 337.882 230.338C338.252 230.845 338.406 231.479 338.309 232.101C338.212 232.723 337.871 233.282 337.363 233.655L130.212 382.633C129.738 382.981 129.152 383.14 128.569 383.078C127.986 383.016 127.448 382.738 127.061 382.299Z" fill="white"/>
<path d="M222.351 69.8849L211.67 58.5039C211.242 58.0469 211.012 57.4394 211.028 56.8122C211.044 56.1849 211.306 55.5878 211.757 55.1492C212.232 54.7641 212.83 54.5624 213.44 54.5814C214.05 54.6003 214.631 54.8385 215.078 55.2523L225.791 66.6669C226.225 67.1123 226.463 67.7126 226.453 68.3356C226.443 68.9585 226.186 69.5531 225.738 69.9888C225.29 70.4244 224.689 70.6654 224.066 70.6585C223.443 70.6516 222.85 70.3974 222.416 69.9521L222.351 69.8849Z" fill="white"/>
<path d="M-11.6795 185.907C-12.1129 185.461 -12.3508 184.861 -12.3407 184.238C-12.3307 183.615 -12.0737 183.021 -11.6261 182.585C-11.1785 182.149 -10.5771 181.909 -9.95415 181.915C-9.33119 181.922 -8.73773 182.176 -8.30432 182.622L135.159 329.098L337.459 192.558L235.45 83.8179C235.031 83.3697 234.805 82.7743 234.821 82.1595C234.838 81.5447 235.094 80.9595 235.536 80.5296C236.018 80.1489 236.616 79.9477 237.229 79.9605C237.841 79.9734 238.429 80.1995 238.89 80.5999L342.761 191.321C342.995 191.574 343.17 191.875 343.274 192.203C343.378 192.532 343.408 192.879 343.362 193.222C343.321 193.555 343.212 193.876 343.041 194.165C342.871 194.455 342.643 194.707 342.372 194.905L136.108 334.125C135.655 334.441 135.105 334.584 134.558 334.529C134.01 334.475 133.501 334.225 133.123 333.826L-11.747 185.973L-11.6795 185.907Z" fill="white"/>
<path d="M128.509 366.634L-6.26107 220.852C-6.67213 220.357 -6.88659 219.728 -6.86387 219.084L-5.19474 193.786C-5.1751 193.163 -4.91406 192.572 -4.46677 192.137C-4.01946 191.701 -3.42101 191.456 -2.79836 191.453C-2.49209 191.454 -2.18932 191.515 -1.90766 191.634C-1.626 191.753 -1.37121 191.927 -1.15815 192.146C-0.94509 192.365 -0.778055 192.624 -0.666857 192.909C-0.555671 193.194 -0.502521 193.498 -0.510564 193.804L-2.0297 218.041L130.65 361.607L309.974 236.508L314.559 211.708C314.605 211.4 314.713 211.104 314.877 210.838C315.04 210.573 315.256 210.343 315.51 210.163C315.765 209.982 316.053 209.855 316.357 209.789C316.661 209.723 316.976 209.719 317.281 209.777C317.586 209.832 317.877 209.946 318.137 210.114C318.398 210.282 318.622 210.5 318.797 210.755C318.972 211.01 319.094 211.298 319.157 211.601C319.22 211.904 319.223 212.218 319.164 212.523L314.523 238.751C314.395 239.371 314.028 239.916 313.502 240.268L131.724 367.101C131.229 367.453 130.619 367.601 130.02 367.514C129.42 367.427 128.879 367.111 128.509 366.634Z" fill="white"/>
<path d="M13.5177 226.386L33.5526 246.973C33.5526 246.973 13.8811 259.58 -3.34311 272.879C-20.5673 286.177 -41.2314 304.72 -41.2314 304.72L-30.4545 270.885L-63.674 274.77L13.5177 226.386Z" fill="white"/>
</g>
<defs>
<filter id="filter0_f_52_75" x="-115" y="-20" width="498.739" height="497.484" filterUnits="userSpaceOnUse" color-interpolation-filters="sRGB">
<feFlood flood-opacity="0" result="BackgroundImageFix"/>
<feBlend mode="normal" in="SourceGraphic" in2="BackgroundImageFix" result="shape"/>
<feGaussianBlur stdDeviation="10" result="effect1_foregroundBlur_52_75"/>
</filter>
</defs>
</svg>
