<svg width="25" height="24" viewBox="0 0 25 24" fill="none" xmlns="http://www.w3.org/2000/svg">
<path fill-rule="evenodd" clip-rule="evenodd" d="M16 12C16 12.256 15.902 12.512 15.707 12.707L11.707 16.707C11.316 17.098 10.684 17.098 10.293 16.707C9.90201 16.316 9.90201 15.684 10.293 15.293L13.598 11.988L10.418 8.69499C10.035 8.29599 10.046 7.66499 10.443 7.28099C10.84 6.89699 11.474 6.90799 11.857 7.30499L15.719 11.305C15.907 11.5 16 11.75 16 12Z" fill="white"/>
<mask id="mask0_38_1195" style="mask-type:alpha" maskUnits="userSpaceOnUse" x="9" y="7" width="7" height="11">
<path fill-rule="evenodd" clip-rule="evenodd" d="M16 12C16 12.256 15.902 12.512 15.707 12.707L11.707 16.707C11.316 17.098 10.684 17.098 10.293 16.707C9.90201 16.316 9.90201 15.684 10.293 15.293L13.598 11.988L10.418 8.69499C10.035 8.29599 10.046 7.66499 10.443 7.28099C10.84 6.89699 11.474 6.90799 11.857 7.30499L15.719 11.305C15.907 11.5 16 11.75 16 12Z" fill="white"/>
</mask>
<g mask="url(#mask0_38_1195)">
<rect x="0.5" y="24" width="24" height="24" transform="rotate(-90 0.5 24)" fill="white"/>
</g>
</svg>
