<svg width="270" height="214" viewBox="0 0 270 214" fill="none" xmlns="http://www.w3.org/2000/svg">
<g opacity="0.5" filter="url(#filter0_f_52_49)">
<path d="M162.89 21.8578C163.299 21.8503 163.701 21.9668 164.042 22.1917C164.383 22.4166 164.648 22.7395 164.801 23.1178C165.012 23.6249 165.015 24.1949 164.81 24.7055C164.604 25.2162 164.207 25.627 163.702 25.8501L56.8889 69.8898C54.6754 76.1833 52.7986 82.5884 51.2662 89.0783C50.789 91.9695 52.5965 96.282 56.6048 101.81C58.1497 103.94 109.315 177.221 117.585 189.018L240.445 125.566C240.682 125.435 240.943 125.354 241.212 125.325C241.482 125.297 241.754 125.323 242.013 125.401C242.272 125.479 242.512 125.608 242.72 125.781C242.927 125.953 243.098 126.166 243.222 126.405C243.352 126.647 243.431 126.912 243.457 127.186C243.482 127.459 243.452 127.735 243.369 127.997C243.286 128.259 243.152 128.502 242.973 128.711C242.795 128.921 242.576 129.093 242.331 129.218L117.863 193.51C117.416 193.735 116.905 193.795 116.419 193.679C115.933 193.562 115.505 193.278 115.211 192.876C114.585 192.016 54.8568 106.446 53.27 104.234C50.2228 100.14 46.2923 93.8685 47.1664 88.4579C48.0406 83.0474 53.031 68.3187 53.2343 67.7806C53.3309 67.4945 53.4869 67.2317 53.6922 67.0094C53.8974 66.7872 54.1473 66.6105 54.4254 66.4908L162.105 22.1128C162.345 21.9718 162.613 21.8847 162.89 21.8578Z" fill="white"/>
<path d="M188.571 20.5808C188.906 20.5804 189.237 20.6613 189.533 20.8165C189.83 20.9717 190.084 21.1965 190.273 21.4716L195.202 28.5163C195.517 28.9671 195.64 29.525 195.543 30.0672C195.445 30.6094 195.136 31.0916 194.683 31.4076C194.23 31.7237 193.67 31.8477 193.126 31.7524C192.582 31.6571 192.099 31.3503 191.784 30.8995L186.855 23.8136C186.559 23.3638 186.448 22.8174 186.544 22.2871C186.641 21.7568 186.938 21.283 187.374 20.9634C187.726 20.7201 188.143 20.5869 188.571 20.5808Z" fill="white"/>
<path d="M199.514 36.2683C199.849 36.2679 200.18 36.3488 200.476 36.5039C200.773 36.6591 201.027 36.884 201.216 37.1591L248.957 105.607C249.126 105.85 249.24 106.127 249.292 106.418C249.344 106.709 249.333 107.008 249.258 107.295C249.178 107.582 249.038 107.849 248.847 108.079C248.656 108.308 248.418 108.494 248.15 108.626L124.971 167.545C124.536 167.764 124.038 167.82 123.566 167.704C123.094 167.587 122.681 167.305 122.401 166.91L55.309 75.0598C54.9918 74.6167 54.86 74.0677 54.9413 73.5284C55.0226 72.9891 55.3107 72.5017 55.7448 72.1689C55.9661 72.0086 56.2169 71.8934 56.4828 71.8301C56.7486 71.7668 57.0242 71.7565 57.2938 71.7999C57.5633 71.8433 57.8214 71.9395 58.0531 72.083C58.2848 72.2265 58.4856 72.4144 58.6438 72.6359L124.735 163.217L244.326 105.982L197.964 39.4997C197.661 39.0481 197.55 38.4951 197.655 37.9612C197.76 37.4273 198.072 36.9556 198.524 36.6489C198.812 36.4331 199.155 36.3013 199.514 36.2683Z" fill="white"/>
<path d="M60.2093 77.7347L60.623 77.7307C61.1561 77.8445 61.6236 78.1599 61.9274 78.6106C62.2312 79.0613 62.3477 79.6124 62.2525 80.1481L59.524 92.8755L119.639 180.669L226.02 127.561L230.36 114.488C230.544 113.972 230.922 113.546 231.415 113.303C231.908 113.059 232.476 113.017 232.999 113.184C233.513 113.358 233.938 113.726 234.181 114.21C234.424 114.694 234.466 115.254 234.298 115.77L229.675 129.67C229.502 130.189 229.134 130.622 228.648 130.876L119.711 185.163C119.261 185.393 118.743 185.451 118.255 185.326C117.766 185.202 117.341 184.904 117.058 184.488L55.3142 94.3594C55.1488 94.1384 55.0327 93.8846 54.9738 93.6149C54.9149 93.3452 54.9146 93.0659 54.9728 92.7957L57.861 79.2007C58.0026 78.7109 58.3208 78.2901 58.7544 78.0195C59.188 77.7488 59.7063 77.6474 60.2093 77.7347Z" fill="white"/>
<path d="M66.4296 98.7053L75.6987 111.482C75.6987 111.482 63.9844 116.709 53.5572 122.624C43.1301 128.538 30.4436 136.867 30.4436 136.867L38.9733 119.341L20.6429 118.817L66.4296 98.7053Z" fill="white"/>
</g>
<defs>
<filter id="filter0_f_52_49" x="0" y="0" width="269.894" height="214.659" filterUnits="userSpaceOnUse" color-interpolation-filters="sRGB">
<feFlood flood-opacity="0" result="BackgroundImageFix"/>
<feBlend mode="normal" in="SourceGraphic" in2="BackgroundImageFix" result="shape"/>
<feGaussianBlur stdDeviation="10" result="effect1_foregroundBlur_52_49"/>
</filter>
</defs>
</svg>
