<svg width="30" height="30" viewBox="0 0 30 30" fill="none" xmlns="http://www.w3.org/2000/svg">
<path fill-rule="evenodd" clip-rule="evenodd" d="M16.7676 15.0001L22.1339 9.63382C22.6226 9.14507 22.6226 8.35507 22.1339 7.86632C21.6451 7.37757 20.8551 7.37757 20.3664 7.86632L15.0001 13.2326L9.63388 7.86632C9.14513 7.37757 8.35513 7.37757 7.86638 7.86632C7.37763 8.35507 7.37763 9.14507 7.86638 9.63382L13.2326 15.0001L7.86638 20.3663C7.37763 20.8551 7.37763 21.6451 7.86638 22.1338C8.11013 22.3776 8.43013 22.5001 8.75013 22.5001C9.07013 22.5001 9.39013 22.3776 9.63388 22.1338L15.0001 16.7676L20.3664 22.1338C20.6101 22.3776 20.9301 22.5001 21.2501 22.5001C21.5701 22.5001 21.8901 22.3776 22.1339 22.1338C22.6226 21.6451 22.6226 20.8551 22.1339 20.3663L16.7676 15.0001Z" fill="white"/>
<mask id="mask0_241_11600" style="mask-type:alpha" maskUnits="userSpaceOnUse" x="7" y="7" width="16" height="16">
<path fill-rule="evenodd" clip-rule="evenodd" d="M16.7676 15.0001L22.1339 9.63382C22.6226 9.14507 22.6226 8.35507 22.1339 7.86632C21.6451 7.37757 20.8551 7.37757 20.3664 7.86632L15.0001 13.2326L9.63388 7.86632C9.14513 7.37757 8.35513 7.37757 7.86638 7.86632C7.37763 8.35507 7.37763 9.14507 7.86638 9.63382L13.2326 15.0001L7.86638 20.3663C7.37763 20.8551 7.37763 21.6451 7.86638 22.1338C8.11013 22.3776 8.43013 22.5001 8.75013 22.5001C9.07013 22.5001 9.39013 22.3776 9.63388 22.1338L15.0001 16.7676L20.3664 22.1338C20.6101 22.3776 20.9301 22.5001 21.2501 22.5001C21.5701 22.5001 21.8901 22.3776 22.1339 22.1338C22.6226 21.6451 22.6226 20.8551 22.1339 20.3663L16.7676 15.0001Z" fill="white"/>
</mask>
<g mask="url(#mask0_241_11600)">
<rect width="30" height="30" fill="white"/>
</g>
</svg>
