<svg width="100" height="100" viewBox="0 0 100 100" fill="none" xmlns="http://www.w3.org/2000/svg">
<g clip-path="url(#clip0_1247_36)">
<path d="M32.5759 66.7794C29.4562 60.1156 28.2582 53.1274 29.0319 45.8148C33.2248 44.1176 40.1631 45.2407 43.9068 51.006C47.7004 56.8462 46.178 65.6313 39.0151 69.4499C41.9102 73.6927 45.554 77.087 49.9466 79.7326C54.3642 77.112 57.9831 73.6927 60.9281 69.4249C60.7285 69.3002 60.5537 69.2003 60.3541 69.0755C57.0596 67.0789 54.9632 64.2087 54.2144 60.4151C52.8667 53.6765 57.1096 47.0627 63.7983 45.4404C65.9946 44.8913 68.1909 44.9412 70.3622 45.5652C70.8863 45.7149 70.9362 45.7149 70.9362 46.239C70.9862 48.0859 71.1109 49.9578 71.061 51.8047C70.9612 55.2488 70.3373 58.6182 69.2391 61.8877C68.7649 63.3103 68.1659 64.6829 67.6418 66.0806C67.5669 66.3052 67.4671 66.5049 67.3673 66.7295C72.3838 67.6779 80.7697 66.6546 87.4833 60.6148C94.7211 54.0758 96.8925 44.5918 95.2203 37.0046C93.4982 38.577 91.7511 40.0245 89.8294 41.2974C87.8827 42.5702 85.8611 43.6684 83.7147 44.5918C81.5933 45.4903 79.4219 46.2141 77.1508 46.7132C76.9761 46.1142 77.1258 45.5402 77.2756 45.0161C77.7497 43.269 78.8479 42.0211 80.5201 41.3473C82.0425 40.7233 83.5649 40.0495 85.0125 39.2758C88.856 37.1793 92.1505 34.4589 94.9208 31.0896C95.4699 30.4157 95.994 29.6919 96.5431 29.0181C96.593 28.9432 96.6678 28.8683 96.7427 28.7935C100.511 35.557 101.734 46.4137 96.4432 56.0225C93.3734 61.6131 88.9808 65.7811 83.2155 68.5015C77.4503 71.2219 71.4354 71.9207 65.146 70.7727C62.3258 75.1902 58.7817 78.909 54.3891 81.9538C57.6836 83.3016 61.028 84.1252 64.4721 84.4247C67.9413 84.7242 71.3605 84.5245 74.7798 83.8007C71.66 90.0901 63.5487 97.3029 52.6421 98.3013C40.1382 99.4493 29.6808 92.4112 25.0886 83.8007C27.4096 84.225 29.6808 84.5245 31.9769 84.5494C34.2731 84.5494 36.5692 84.3997 38.8154 83.9505C41.0866 83.5262 43.3078 82.8773 45.5291 81.9538C44.9301 81.5046 44.406 81.1302 43.8819 80.7309C40.4377 78.0604 37.4926 74.8907 35.1216 71.2219C34.897 70.8725 34.6724 70.7727 34.2481 70.8475C31.4029 71.3717 28.5328 71.4465 25.6626 71.0971C19.3732 70.2985 13.8825 67.7528 9.24029 63.435C6.61971 60.9892 4.49828 58.144 2.92593 54.9244C1.20384 51.4053 0.23048 47.6866 0.00585902 43.7682C-0.24372 39.4006 0.455101 35.1827 2.07737 31.1145C2.3519 30.4407 2.6514 29.7918 2.95089 29.1429C3.00081 29.0181 3.10064 28.9182 3.20047 28.7685C3.40013 29.043 3.57484 29.2427 3.72459 29.4673C7.69289 34.8582 12.8093 38.7517 19.0487 41.1975C20.5961 41.7965 21.7692 42.7699 22.4181 44.3173C22.7176 45.066 22.9422 45.8647 22.7924 46.7632C15.8791 45.1658 9.91415 41.8964 4.74786 37.0545C3.25039 43.294 4.47333 52.3787 11.0622 59.292C17.6761 66.2303 26.5112 67.8027 32.5759 66.7794ZM34.7223 88.7673C39.0151 92.3862 45.8535 94.9319 53.1662 93.9835C57.2094 93.4594 63.8732 90.6142 65.121 88.7424C64.9214 88.7174 64.7716 88.6925 64.5969 88.6925C62.6752 88.5427 60.7534 88.2682 58.8566 87.8189C55.9365 87.1451 53.1163 86.1468 50.4208 84.824C50.0964 84.6742 49.8468 84.6493 49.5224 84.799C47.5507 85.7973 45.4792 86.596 43.3578 87.2199C41.3362 87.8189 39.2647 88.2682 37.1682 88.4928C36.3695 88.5677 35.5958 88.6675 34.7223 88.7673ZM66.8681 49.3588C63.1244 49.3089 58.9814 51.9544 58.2826 56.7962C57.9581 59.0175 58.4573 61.089 59.7551 62.9359C60.6037 64.1588 61.7018 65.1322 63.1244 65.7561C65.72 60.5649 66.9679 55.149 66.8681 49.3588ZM36.7938 65.7561C40.263 64.1838 42.5341 59.9909 41.436 55.7979C40.3129 51.58 36.3945 49.234 33.0751 49.3588C32.9253 55.1241 34.1982 60.5649 36.7938 65.7561Z" fill="white"/>
<path d="M49.9472 18.436C50.047 18.2863 50.1469 18.1615 50.2217 18.0367C52.5179 14.4178 55.7873 12.1217 59.9304 11.0734C65.0966 9.77563 70.238 8.4279 75.3793 7.08017C78.2245 6.33143 81.0947 5.60765 83.9399 4.85891C84.1146 4.809 84.2893 4.78404 84.5388 4.73413C84.5388 5.00866 84.5638 5.2832 84.5388 5.50782C84.2394 7.75403 82.6421 9.57596 80.4208 10.15C73.782 11.8721 67.1182 13.5193 60.5044 15.3163C56.4862 16.3895 53.8157 19.035 52.6177 23.0283C51.5944 26.4226 52.1684 29.6421 54.1401 32.5622C55.8373 35.033 58.2083 36.5804 61.1533 37.2044C65.9702 38.2027 70.837 35.9066 73.208 31.6637C74.1314 29.9915 74.6306 28.1946 74.6306 26.2978C74.6306 25.1996 74.8053 24.1514 75.3543 23.203C75.9533 22.2047 76.752 21.431 77.9 20.9318C78.0498 21.3311 78.1995 21.7305 78.2994 22.1048C80.7203 31.2145 74.8053 39.9747 65.9702 41.4472C64.7223 41.6469 63.4744 41.8216 62.2764 42.146C59.4312 42.9197 57.0103 44.3923 54.9637 46.5137C53.7158 47.8115 52.6926 49.2341 51.9189 50.8564C51.5195 51.7049 51.0204 52.5036 50.3964 53.2024C50.2467 53.3522 50.0969 53.5019 49.9222 53.6766C49.0986 52.9029 48.4747 52.0294 48.0254 51.0311C46.7276 48.2857 44.8308 46.0395 42.3101 44.3174C40.1637 42.8698 37.7927 41.9214 35.222 41.6219C32.6763 41.3224 30.2554 40.6236 28.109 39.1761C23.966 36.4307 21.62 32.5622 21.0709 27.6205C20.8463 25.4742 21.0958 23.4026 21.7447 21.3561C21.7947 21.2064 21.8695 21.0566 21.9444 20.8819C22.9178 21.2812 23.6166 21.9301 24.2156 22.7038C25.0142 23.777 25.2389 25.0249 25.2389 26.3227C25.2638 28.4192 25.8378 30.3909 26.9859 32.1629C28.8328 35.058 31.4783 36.7801 34.8477 37.2793C39.5647 37.9781 44.0072 35.657 46.2534 31.7386C49.5728 25.8984 47.077 18.7605 41.3866 16.0401C40.1637 15.466 38.8659 15.1416 37.5681 14.8171C31.9026 13.3446 26.2621 11.897 20.5967 10.4245C20.1724 10.3247 19.7481 10.1999 19.3238 10.1001C17.1275 9.52605 15.3805 7.37967 15.3306 5.13345C15.3306 5.00866 15.3555 4.90883 15.3555 4.70917C15.68 4.78404 15.9545 4.85892 16.254 4.93379C23.0675 6.68084 29.881 8.45286 36.6945 10.1999C38.192 10.5743 39.6645 10.9237 41.137 11.3979C44.731 12.521 47.5013 14.7173 49.5728 17.862C49.6727 18.0367 49.7974 18.2364 49.9472 18.436ZM49.9472 33.8351C48.3748 36.5555 46.2285 38.5521 43.4581 39.9997C46.0538 41.5471 48.1752 43.4938 49.9472 45.9147C50.8706 44.6668 51.7941 43.5437 52.9172 42.6202C54.0153 41.6968 55.1883 40.8482 56.3364 39.9497C53.641 38.5271 51.5445 36.5056 49.9472 33.8351Z" fill="white"/>
<path d="M81.3197 12.7205C81.3446 13.8436 81.095 14.7671 80.5709 15.6156C79.7223 17.0133 78.4994 17.8868 76.9021 18.2861C74.7557 18.8352 72.6343 19.4092 70.4879 19.9583C68.1419 20.5573 65.7958 21.1563 63.4498 21.7802C62.751 21.9799 62.0272 22.1796 61.3783 22.4791C59.8059 23.2528 58.9823 25.1246 59.2069 26.672C59.4815 28.4939 60.7793 29.8666 62.5263 30.2659C64.5979 30.7401 67.0188 29.4423 67.5429 26.9465C67.7925 25.7486 68.3166 24.7003 69.1652 23.8268C69.6144 23.3776 70.5378 22.8035 71.1119 22.7037C71.4114 23.2028 71.5362 23.7519 71.6609 24.326C72.1601 26.6221 71.7857 28.7934 70.5378 30.7651C69.2899 32.7118 67.493 33.9597 65.2468 34.4589C61.4532 35.3074 57.5348 33.5604 55.8127 30.0413C54.415 27.1712 54.5648 24.301 56.2869 21.5556C57.5597 19.534 59.4316 18.4109 61.7027 17.8369C64.8724 17.0382 68.0171 16.2146 71.1618 15.391C73.8822 14.6922 76.6276 13.9684 79.348 13.2446C80.0218 13.045 80.6208 12.8952 81.3197 12.7205Z" fill="white"/>
<path d="M18.5503 12.7205C19.3989 12.9202 20.1226 13.0949 20.8215 13.2696C23.1176 13.8686 25.4387 14.4676 27.7348 15.0666C30.4802 15.7903 33.2256 16.5141 35.9709 17.2629C36.7945 17.4875 37.6181 17.7121 38.4418 17.9118C40.7628 18.4608 42.5099 19.8086 43.7578 21.7802C44.4566 22.8784 44.8559 24.1263 44.9308 25.4491C45.0057 26.8467 44.8559 28.1944 44.2819 29.4922C43.3585 31.5887 41.861 33.1111 39.7396 34.0096C38.7163 34.4589 37.6431 34.6585 36.545 34.6585C34.8728 34.6835 33.3004 34.2093 31.8529 33.2859C29.9061 32.038 28.7082 30.2659 28.184 28.0447C27.8097 26.4723 27.9345 24.1263 28.783 22.6538C29.382 22.8285 29.8812 23.1529 30.3554 23.5523C31.4286 24.4507 32.0775 25.6238 32.352 26.9965C32.6016 28.3192 33.3753 29.2676 34.5483 29.8916C36.9443 31.1644 39.9392 29.7917 40.5881 27.0464C41.0873 24.9998 39.6896 22.6288 37.5183 22.0797C33.525 21.0565 29.5318 19.9833 25.5136 18.935C24.4903 18.6605 23.467 18.4359 22.4687 18.1114C20.3722 17.4376 19.0994 15.99 18.7 13.8187C18.6252 13.4942 18.6002 13.1448 18.5503 12.7205Z" fill="white"/>
<path d="M22.7432 51.6545C22.0443 51.7543 19.274 51.0306 16.5536 50.0572C14.532 49.3334 12.5853 48.4349 10.6136 47.4117C10.8382 48.5348 11.2376 49.4582 11.6868 50.3567C12.9347 52.9523 14.6568 55.1736 16.878 56.9955C19.0993 58.8174 21.5951 60.0903 24.3654 60.8141C26.0626 61.2633 27.3853 62.2117 28.159 63.834C28.2089 63.9338 28.2339 64.0586 28.3088 64.2582C28.0342 64.2582 27.8096 64.3082 27.585 64.2832C23.6416 63.9338 19.9978 62.7358 16.7033 60.5146C14.4072 58.9672 12.4355 57.0454 10.8632 54.7493C9.14109 52.2535 7.94311 49.4832 7.36908 46.4882C7.06958 44.9408 6.84496 43.3435 6.96975 41.6963C7.06958 41.7462 7.16941 41.7462 7.21933 41.7961C9.24092 43.3186 11.4372 44.5914 13.7084 45.7145C15.5303 46.613 17.4271 47.3118 19.3738 47.9607C21.0211 48.5098 22.4187 50.0322 22.7432 51.6545Z" fill="white"/>
<path d="M92.9249 41.6714C93.3742 53.3018 83.7903 63.9588 71.6108 64.2583C71.8355 63.6843 72.085 63.1602 72.4844 62.7109C73.308 61.7625 74.3313 61.1386 75.5292 60.8391C77.1515 60.4397 78.6989 59.8158 80.1714 58.9922C82.2429 57.8192 84.0648 56.3217 85.6122 54.4748C87.2095 52.578 88.3576 50.4316 89.1563 48.0856C89.2311 47.8859 89.2561 47.6613 89.331 47.3868C85.4375 49.4333 81.4692 50.9557 77.1515 51.7793C77.3012 50.9557 77.6507 50.3068 78.1249 49.7328C78.8986 48.7345 79.9468 48.1604 81.1198 47.7861C84.0149 46.8626 86.7603 45.6147 89.3559 44.0174C90.4291 43.3436 91.4773 42.6198 92.5505 41.921C92.6504 41.8211 92.7502 41.7712 92.9249 41.6714Z" fill="white"/>
<path d="M36.3203 8.0782C42.6846 0.266375 56.2118 -0.557235 63.6493 8.0782C63.5494 8.12812 63.4496 8.20299 63.3498 8.22795C62.027 8.57736 60.7042 8.90181 59.3814 9.25122C59.057 9.3261 58.8324 9.30114 58.5578 9.07652C57.3848 8.15308 56.087 7.47921 54.6894 6.98005C53.3915 6.53081 52.0438 6.23132 50.6711 6.1814C48.0505 6.05661 45.5797 6.63064 43.2586 7.87854C42.6097 8.22795 42.0107 8.65223 41.4117 9.07652C41.1871 9.25122 40.9625 9.3261 40.688 9.25122C39.2653 8.87686 37.8427 8.50249 36.4201 8.15308C36.3702 8.15308 36.3453 8.10316 36.3203 8.0782Z" fill="white"/>
<path d="M60.1799 90.4641C53.3664 93.6088 46.6027 93.5839 39.7144 90.4641C40.1886 90.1397 40.6378 90.0648 41.0621 90.0399C41.8857 89.9899 42.6844 90.0898 43.483 90.3393C44.9555 90.8135 46.478 91.113 48.0254 91.2628C49.4979 91.4125 50.9704 91.3626 52.4429 91.2129C53.8905 91.0631 55.2881 90.7137 56.6858 90.2645C57.734 89.9151 58.8072 89.9151 59.8554 90.2395C59.9303 90.2645 60.0052 90.2894 60.08 90.3144C60.08 90.3393 60.105 90.3893 60.1799 90.4641Z" fill="white"/>
</g>
<defs>
<clipPath id="clip0_1247_36">
<rect width="100" height="100" fill="white"/>
</clipPath>
</defs>
</svg>
