<svg width="25" height="31" viewBox="0 0 25 31" fill="none" xmlns="http://www.w3.org/2000/svg">
<g clip-path="url(#clip0_1255_1632)">
<path d="M25 12.663C25 5.66524 19.4077 0 12.5 0C11.8118 0 11.1324 0.0529462 10.4704 0.167663V9.54796C10.4704 11.2775 9.08537 12.6718 7.38676 12.6718H4.05923V12.663C4.05923 10.3598 4.95645 8.27726 6.41115 6.74182V1.59721C2.58711 3.768 0 7.90663 0 12.663V12.6718V16.7839H8.20557C11.6986 16.7839 14.5296 13.916 14.5296 10.3775V4.35924C18.2143 5.27697 20.9408 8.64788 20.9408 12.663V12.6718H18.5889C18.5889 14.9397 20.4094 16.7839 22.6481 16.7839H25V12.6718V12.663Z" fill="white"/>
<path d="M22.0386 19.7842C22.0386 22.0521 20.218 23.8964 17.9793 23.8964H2.96191C2.96191 21.6285 4.78247 19.7842 7.02115 19.7842H22.0386Z" fill="white"/>
<path d="M20.8538 19.7842C20.8538 22.0521 19.0332 23.8964 16.7946 23.8964H4.14648C4.14648 21.6285 5.96704 19.7842 8.20572 19.7842H20.8538Z" fill="white"/>
<path d="M19.0762 26.8966C19.0762 29.1645 17.2556 31.0088 15.0169 31.0088H5.92285C5.92285 28.7409 7.74341 26.8966 9.98209 26.8966H19.0762Z" fill="white"/>
<path d="M17.8655 26.8966C17.8655 29.1645 16.0449 31.0088 13.8063 31.0088H7.13379C7.13379 28.7409 8.95435 26.8966 11.193 26.8966H17.8655Z" fill="white"/>
<path d="M19.87 4.06803C23.9205 7.72132 24.8351 12.5659 25.0006 15.3368V12.6718V12.663C25.0006 5.66524 19.4083 0 12.5006 0C11.8212 0 11.1505 0.0529462 10.5059 0.158839C12.0041 0.264731 16.2027 0.758895 19.87 4.06803Z" fill="white"/>
</g>
<defs>
<clipPath id="clip0_1255_1632">
<rect width="25" height="31" fill="white"/>
</clipPath>
</defs>
</svg>
