<svg width="16" height="16" viewBox="0 0 16 16" fill="none" xmlns="http://www.w3.org/2000/svg">
<path d="M5.5004 8C5.5004 6.61934 6.61934 5.4998 8 5.4998C9.38066 5.4998 10.5002 6.61934 10.5002 8C10.5002 9.38066 9.38066 10.5002 8 10.5002C6.61934 10.5002 5.5004 9.38066 5.5004 8ZM4.14884 8C4.14884 10.127 5.873 11.8512 8 11.8512C10.127 11.8512 11.8512 10.127 11.8512 8C11.8512 5.873 10.127 4.14884 8 4.14884C5.873 4.14884 4.14884 5.873 4.14884 8ZM11.1036 3.99614C11.1035 4.17414 11.1563 4.34817 11.2551 4.49621C11.3539 4.64426 11.4944 4.75967 11.6589 4.82785C11.8233 4.89604 12.0042 4.91393 12.1788 4.87928C12.3534 4.84462 12.5138 4.75897 12.6398 4.63315C12.7657 4.50733 12.8515 4.347 12.8863 4.17243C12.9211 3.99787 12.9033 3.8169 12.8352 3.65242C12.7672 3.48794 12.6519 3.34733 12.5039 3.24838C12.356 3.14943 12.182 3.09657 12.004 3.0965H12.0036C11.765 3.09661 11.5362 3.19142 11.3675 3.3601C11.1987 3.52878 11.1038 3.75754 11.1036 3.99614ZM4.97 14.1048C4.23878 14.0715 3.84134 13.9497 3.57722 13.8468C3.22706 13.7105 2.97722 13.5481 2.71454 13.2858C2.45186 13.0235 2.28926 12.7739 2.15354 12.4237C2.05058 12.1597 1.92878 11.7622 1.89554 11.031C1.85918 10.2404 1.85192 10.0029 1.85192 8.00006C1.85192 5.9972 1.85978 5.76038 1.89554 4.96916C1.92884 4.23794 2.05154 3.84116 2.15354 3.57638C2.28986 3.22622 2.45222 2.97638 2.71454 2.7137C2.97686 2.45102 3.22646 2.28842 3.57722 2.1527C3.84122 2.04974 4.23878 1.92794 4.97 1.8947C5.76056 1.85834 5.99804 1.85108 8 1.85108C10.002 1.85108 10.2397 1.85894 11.0309 1.8947C11.7621 1.928 12.1589 2.0507 12.4237 2.1527C12.7738 2.28842 13.0237 2.45138 13.2864 2.7137C13.549 2.97602 13.711 3.22622 13.8474 3.57638C13.9503 3.84038 14.0721 4.23794 14.1054 4.96916C14.1417 5.76038 14.149 5.9972 14.149 8.00006C14.149 10.0029 14.1417 10.2397 14.1054 11.031C14.0721 11.7622 13.9497 12.1596 13.8474 12.4237C13.711 12.7739 13.5487 13.0237 13.2864 13.2858C13.024 13.5479 12.7738 13.7105 12.4237 13.8468C12.1597 13.9498 11.7621 14.0716 11.0309 14.1048C10.2403 14.1412 10.0029 14.1484 8 14.1484C5.99714 14.1484 5.76032 14.1412 4.97 14.1048ZM4.9079 0.54542C4.10948 0.58178 3.5639 0.70838 3.08744 0.89378C2.594 1.08524 2.17628 1.3421 1.75886 1.75886C1.34144 2.17562 1.08524 2.594 0.89378 3.08744C0.70838 3.5642 0.58178 4.10948 0.54542 4.9079C0.50846 5.70758 0.5 5.96324 0.5 8C0.5 10.0368 0.50846 10.2924 0.54542 11.0921C0.58178 11.8906 0.70838 12.4358 0.89378 12.9126C1.08524 13.4057 1.3415 13.8246 1.75886 14.2411C2.17622 14.6577 2.594 14.9142 3.08744 15.1062C3.5648 15.2916 4.10948 15.4182 4.9079 15.4546C5.708 15.4909 5.96324 15.5 8 15.5C10.0368 15.5 10.2924 15.4915 11.0921 15.4546C11.8906 15.4182 12.4358 15.2916 12.9126 15.1062C13.4057 14.9142 13.8237 14.6579 14.2411 14.2411C14.6586 13.8244 14.9142 13.4057 15.1062 12.9126C15.2916 12.4358 15.4188 11.8905 15.4546 11.0921C15.4909 10.2918 15.4994 10.0368 15.4994 8C15.4994 5.96324 15.4909 5.70758 15.4546 4.9079C15.4182 4.10942 15.2916 3.5639 15.1062 3.08744C14.9142 2.5943 14.6579 2.17628 14.2411 1.75886C13.8244 1.34144 13.4057 1.08524 12.9132 0.89378C12.4358 0.70838 11.8905 0.58118 11.0927 0.54542C10.293 0.50906 10.0374 0.5 8.0006 0.5C5.96384 0.5 5.708 0.50846 4.9079 0.54542Z" fill="white"/>
</svg>
