<svg width="296" height="304" viewBox="0 0 296 304" fill="none" xmlns="http://www.w3.org/2000/svg">
<g filter="url(#filter0_d_48_18914)">
<path d="M264.433 179.764C264.433 179.764 257.8 169.561 236.9 172.118C216 174.676 171.136 183.307 153.273 186.385C135.41 189.462 107.917 209.295 101.803 222.07C95.689 234.845 100.271 242.464 139.021 244.502C177.77 246.54 231.237 214.93 248.116 205.192C264.994 195.453 263.407 184.853 264.433 179.764Z" fill="#444444" stroke="#444444" stroke-linecap="round" stroke-linejoin="round"/>
<path d="M159.825 36.3104C159.825 36.3104 148.992 57.1692 144.984 61.1905C142.851 63.5281 140.243 65.382 137.334 66.6276C134.425 67.8733 131.283 68.4819 128.119 68.4124C120.104 68.4124 91.5582 64.61 81.9289 83.0752C72.2997 101.54 69.9334 156.293 70.3438 159.507C70.7541 162.722 45.8603 183.991 46.6673 210.116C47.4743 236.24 75.1584 251.04 114.086 245.432C153.013 239.824 163.039 210.909 163.039 194.058C163.039 177.206 171.465 167.974 180.697 150.288C189.93 132.603 203.567 114.179 199.149 98.5175C194.731 82.8563 177.893 75.6344 172.272 73.6237C166.65 71.6131 182.708 53.1069 178.686 43.929C174.665 34.7511 166.65 31.0854 159.825 36.3104Z" fill="#747CA5"/>
<path opacity="0.13" d="M158.525 152.258C141.441 158.591 127.326 152.682 108.546 147.197C89.7664 141.712 97.7816 128.212 97.7816 114.302C97.7816 100.391 81.3681 119.363 81.3681 119.363L72.1903 129.019C71.051 139.143 70.4437 149.32 70.3711 159.507C70.7267 162.38 50.8801 179.682 47.2554 201.909C56.4759 202.982 65.7527 203.498 75.0353 203.454C113.634 203.454 159.743 183.635 164.243 174.348C168.469 165.608 175.376 144.256 176.183 141.699C175.746 142.766 173.243 146.801 158.525 152.258Z" fill="#444444"/>
<path d="M159.825 36.3104C159.825 36.3104 148.992 57.1692 144.984 61.1905C142.851 63.5281 140.243 65.382 137.334 66.6276C134.425 67.8733 131.283 68.4819 128.119 68.4124C120.104 68.4124 91.5582 64.61 81.9289 83.0752C72.2997 101.54 69.9334 156.293 70.3438 159.507C70.7541 162.722 45.8603 183.991 46.6673 210.116C47.4743 236.24 75.1584 251.04 114.086 245.432C153.013 239.824 163.039 210.909 163.039 194.058C163.039 177.206 171.465 167.974 180.697 150.288C189.93 132.603 203.567 114.179 199.149 98.5175C194.731 82.8563 177.893 75.6344 172.272 73.6237C166.65 71.6131 182.708 53.1069 178.686 43.929C174.665 34.7511 166.65 31.0854 159.825 36.3104Z" stroke="#444444" stroke-linecap="round" stroke-linejoin="round"/>
<path d="M186.715 117.776C186.715 117.776 177.483 123.794 176.676 129.402C175.869 135.01 177.879 147.061 170.261 153.489C162.642 159.918 157.021 159.904 157.021 159.904" stroke="#444444" stroke-linecap="round" stroke-linejoin="round"/>
<path d="M88.6037 137.65C88.6037 137.65 88.6037 152.121 105.865 153.229" stroke="#444444" stroke-linecap="round" stroke-linejoin="round"/>
<path d="M141.51 117.037C144.034 122.997 146.078 129.149 147.624 135.434" stroke="#444444" stroke-linecap="round" stroke-linejoin="round"/>
<path d="M163.627 186.754C165.665 174.143 172.887 165.225 180.697 150.275C181.928 147.908 183.255 145.528 184.595 143.135C177.291 145.993 176.088 144.133 176.088 144.133C172.627 152.203 168.004 155.281 168.004 155.281L155.434 189.872L163.627 186.754Z" fill="white" stroke="#444444" stroke-linecap="round" stroke-linejoin="round"/>
<path d="M51.4135 188.463C48.1977 195.209 46.5739 202.602 46.6673 210.075C47.4606 236.158 75.1583 250.999 114.086 245.391C153.013 239.783 163.039 210.868 163.039 194.017C163.014 188.84 163.908 183.699 165.679 178.834C92.4472 195.207 62.9987 192.485 51.4135 188.463Z" fill="#444444" stroke="#444444" stroke-linecap="round" stroke-linejoin="round"/>
<path d="M135.396 158.222L125.37 136.337C125.295 136.173 125.188 136.026 125.055 135.904C124.923 135.782 124.768 135.687 124.599 135.625C124.258 135.499 123.881 135.514 123.551 135.667C123.221 135.819 122.965 136.096 122.839 136.437C122.713 136.779 122.728 137.156 122.881 137.486L132.92 159.288L135.396 158.222Z" fill="white" stroke="#444444" stroke-linecap="round" stroke-linejoin="round"/>
<path d="M132.92 159.357L135.341 161.354L135.396 158.222L132.92 159.357Z" stroke="#444444" stroke-linecap="round" stroke-linejoin="round"/>
<path d="M123.551 135.735C123.387 135.81 123.24 135.917 123.117 136.049C122.995 136.181 122.9 136.336 122.838 136.505C122.775 136.674 122.747 136.854 122.755 137.034C122.762 137.214 122.805 137.391 122.881 137.554L123.893 139.756L126.382 138.621L125.37 136.405C125.295 136.242 125.188 136.094 125.056 135.972C124.924 135.85 124.769 135.755 124.6 135.692C124.431 135.63 124.251 135.602 124.071 135.609C123.891 135.616 123.714 135.659 123.551 135.735Z" fill="white" stroke="#444444" stroke-linecap="round" stroke-linejoin="round"/>
<path d="M120.897 70.8197C115.677 69.0205 110.121 68.411 104.636 69.0358C99.1501 69.6605 93.8734 71.5038 89.1919 74.4306C73.1477 84.4565 58.8816 114.261 52.8634 124.697C46.8451 135.133 26.8754 179.764 31.4575 180.776C33.8374 181.31 108.861 167.098 115.289 166.729C121.718 166.36 130.527 162.311 130.527 162.311C130.527 162.311 134.548 166.729 136.558 164.718C138.569 162.708 132.934 152.285 130.13 149.071C127.326 145.857 123.715 144.653 121.704 146.267C119.694 147.881 107.26 159.507 107.26 159.507L58.9774 157.839L98.8348 105.726" fill="#747CA5"/>
<path opacity="0.13" d="M127.285 152.682C121.157 147.553 116.78 155.568 111.829 159.617C106.877 163.665 98.3425 163.214 72.2724 163.214C46.2023 163.214 45.2859 164.117 43.0427 165.457C40.7995 166.798 47.5427 146.582 64.175 127.693C80.8074 108.803 91.1479 93.0875 91.1479 80.9415C91.1479 77.0296 89.7801 75.4703 87.9609 75.2241C72.3955 85.9476 58.6902 114.534 52.8224 124.697C46.8041 135.133 26.8344 179.764 31.4165 180.776C33.7964 181.31 108.82 167.099 115.248 166.729C121.677 166.36 130.486 162.311 130.486 162.311C131.06 162.916 131.682 163.474 132.346 163.98C132.989 160.054 131.21 155.951 127.285 152.682Z" fill="#444444"/>
<path d="M120.897 70.8197C115.677 69.0205 110.121 68.411 104.636 69.0358C99.1501 69.6605 93.8734 71.5038 89.1919 74.4306C73.1477 84.4565 58.8816 114.261 52.8634 124.697C46.8451 135.133 26.8754 179.764 31.4575 180.776C33.8374 181.31 108.861 167.098 115.289 166.729C121.718 166.36 130.527 162.311 130.527 162.311C130.527 162.311 134.548 166.729 136.558 164.718C138.569 162.708 132.934 152.285 130.13 149.071C127.326 145.857 123.715 144.653 121.704 146.267C119.694 147.881 107.26 159.507 107.26 159.507L58.9774 157.839L98.8348 105.726" stroke="#444444" stroke-linecap="round" stroke-linejoin="round"/>
<path d="M130.527 162.311C130.527 162.311 134.548 166.729 136.559 164.719C138.569 162.708 132.934 152.285 130.13 149.071C127.326 145.857 123.715 144.653 121.704 146.267C119.694 147.881 107.26 159.507 107.26 159.507L58.9774 157.839L71.055 142.041C63.105 140.217 55.6732 136.611 49.3208 131.495C41.374 147.607 27.5593 179.915 31.4575 180.735C33.8375 181.269 108.861 167.057 115.289 166.688C121.718 166.319 130.527 162.311 130.527 162.311Z" fill="white"/>
<path d="M127.285 152.682C121.157 147.553 116.78 155.568 111.829 159.617C106.877 163.665 98.3424 163.214 72.2723 163.214C46.2022 163.214 45.2858 164.117 43.0426 165.457C41.1551 166.592 45.6278 152.449 57.0215 136.733C54.2858 135.249 51.6941 133.514 49.2798 131.55C41.3329 147.662 27.5182 179.969 31.4164 180.79C33.7964 181.323 108.82 167.112 115.248 166.743C121.677 166.374 130.485 162.325 130.485 162.325C131.06 162.93 131.682 163.488 132.346 163.994C132.989 160.054 131.21 155.951 127.285 152.682Z" fill="#747CA5"/>
<path opacity="0.7" d="M127.285 152.682C121.157 147.553 116.78 155.568 111.829 159.617C106.877 163.665 98.3424 163.214 72.2723 163.214C46.2022 163.214 45.2858 164.117 43.0426 165.457C41.1551 166.592 45.6278 152.449 57.0215 136.733C54.2858 135.249 51.6941 133.514 49.2798 131.55C41.3329 147.662 27.5182 179.969 31.4164 180.79C33.7964 181.323 108.82 167.112 115.248 166.743C121.677 166.374 130.485 162.325 130.485 162.325C131.06 162.93 131.682 163.488 132.346 163.994C132.989 160.054 131.21 155.951 127.285 152.682Z" fill="white"/>
<path d="M130.527 162.311C130.527 162.311 134.548 166.729 136.559 164.719C138.569 162.708 132.934 152.285 130.13 149.071C127.326 145.857 123.715 144.653 121.704 146.267C119.694 147.881 107.26 159.507 107.26 159.507L58.9774 157.839L71.055 142.041C63.105 140.217 55.6732 136.611 49.3208 131.495C41.374 147.607 27.5593 179.915 31.4575 180.735C33.8375 181.269 108.861 167.057 115.289 166.688C121.718 166.319 130.527 162.311 130.527 162.311Z" stroke="#444444" stroke-linecap="round" stroke-linejoin="round"/>
<path d="M128.119 159.507L95.6205 192.006L146.981 198.435L175.472 173.951L128.119 159.507Z" fill="white"/>
<path opacity="0.36" d="M128.119 159.507L95.6205 192.006L146.981 198.435L175.472 173.951L128.119 159.507Z" fill="#444444"/>
<path d="M128.119 159.507L95.6205 192.006L146.981 198.435L175.472 173.951L128.119 159.507Z" stroke="#444444" stroke-linecap="round" stroke-linejoin="round"/>
<path d="M127.326 152.682L128.119 159.507L95.6205 192.006L94.0202 188.395L127.326 152.682Z" fill="white" stroke="#444444" stroke-linecap="round" stroke-linejoin="round"/>
<path d="M128.119 159.507L175.472 173.951L177.893 169.136L127.326 152.682L128.119 159.507Z" fill="white" stroke="#444444" stroke-linecap="round" stroke-linejoin="round"/>
<path d="M163.312 187.684C163.312 187.684 155.215 188.655 155.434 189.872C155.653 191.089 162.273 190.843 163.736 190.843C165.2 190.843 167.566 187.41 163.312 187.684Z" fill="white" stroke="#444444" stroke-linecap="round" stroke-linejoin="round"/>
<path d="M166.171 184.497C166.171 184.497 155.967 185.577 156.227 186.918C156.487 188.258 164.831 187.985 166.705 187.985C168.578 187.985 171.533 184.223 166.171 184.497Z" fill="white" stroke="#444444" stroke-linecap="round" stroke-linejoin="round"/>
<path d="M169.686 181.269C169.686 181.269 159.483 182.349 159.743 183.69C160.002 185.03 168.346 184.77 170.22 184.77C172.094 184.77 175.034 181.009 169.686 181.269Z" fill="white" stroke="#444444" stroke-linecap="round" stroke-linejoin="round"/>
<path d="M170.193 178.054C170.193 178.054 159.989 179.121 160.262 180.475C160.536 181.83 168.852 181.542 170.726 181.542C172.6 181.542 175.568 177.836 170.193 178.054Z" fill="white" stroke="#444444" stroke-linecap="round" stroke-linejoin="round"/>
<path d="M48.8558 215.45C48.8558 215.45 44.2737 204.234 58.5534 194.55C72.8332 184.866 126.273 178.738 139.021 183.84C151.768 188.942 200.202 228.704 200.202 228.704L194.074 234.818C194.074 234.818 156.857 235.83 141.059 231.754C125.261 227.678 119.078 225.708 119.078 225.708C119.078 225.708 105.824 244.57 87.4685 245.076" fill="#444444"/>
<path d="M48.8558 215.45C48.8558 215.45 44.2737 204.234 58.5534 194.55C72.8332 184.866 126.273 178.738 139.021 183.84C151.768 188.942 200.202 228.704 200.202 228.704L194.074 234.818C194.074 234.818 156.857 235.83 141.059 231.754C125.261 227.678 119.078 225.708 119.078 225.708C119.078 225.708 105.824 244.57 87.4685 245.076" stroke="#444444" stroke-linecap="round" stroke-linejoin="round"/>
<path d="M194.594 238.388C205.349 242.737 216.678 245.502 228.228 246.595C246.584 248.126 252.192 233.341 252.192 228.813C252.192 224.286 244.546 225.243 236.9 226.255C229.254 227.268 210.392 228.293 205.796 227.787C201.2 227.281 188.986 229.21 194.594 238.388Z" fill="white" stroke="#444444" stroke-linecap="round" stroke-linejoin="round"/>
<path d="M238.938 178.232C238.938 178.232 217.053 177.712 205.29 189.448C193.527 201.184 167.566 233.792 161.452 239.92C155.338 246.047 130.868 244.502 125.767 244.023C120.665 243.544 115.563 239.92 108.437 242.997C101.311 246.075 92.119 251.204 90.5871 257.783C89.0551 264.362 88.043 266.961 91.0931 267.467C94.1433 267.973 110.475 265.374 119.078 265.374C127.682 265.374 148.65 263.842 160.891 260.286C173.133 256.73 208.299 235.803 222.059 227.651C235.819 219.499 260.357 204.713 264.379 190.953C268.4 177.193 257.745 174.129 251.631 175.141" fill="#444444"/>
<path d="M238.938 178.232C238.938 178.232 217.053 177.712 205.29 189.448C193.527 201.184 167.566 233.792 161.452 239.92C155.338 246.047 130.868 244.502 125.767 244.023C120.665 243.544 115.563 239.92 108.437 242.997C101.311 246.075 92.119 251.204 90.5871 257.783C89.0551 264.362 88.043 266.961 91.0931 267.467C94.1433 267.973 110.475 265.374 119.078 265.374C127.682 265.374 148.65 263.842 160.891 260.286C173.133 256.73 208.299 235.803 222.059 227.651C235.819 219.499 260.357 204.713 264.379 190.953C268.4 177.193 257.745 174.129 251.631 175.141" stroke="#444444" stroke-linecap="round" stroke-linejoin="round"/>
<path d="M167.977 236.733C167.977 236.733 197.384 192.963 212.43 184.757C227.476 176.55 243.889 177.918 243.889 177.918" stroke="white" stroke-linecap="round" stroke-linejoin="round"/>
<path d="M156.651 242.491C147.241 245.514 129.952 244.406 125.767 243.996C120.665 243.49 115.563 239.892 108.437 242.97C101.311 246.047 92.119 251.177 90.5871 257.756C89.0551 264.335 88.043 266.933 91.0931 267.44C94.1433 267.946 110.475 265.374 119.078 265.374C127.682 265.374 148.65 263.842 160.891 260.286C164.351 259.164 167.724 257.792 170.986 256.183C167.484 249.795 161.097 245.145 156.651 242.491Z" fill="white" stroke="#444444" stroke-linecap="round" stroke-linejoin="round"/>
<path d="M141.059 243.996C141.059 243.996 150.236 248.099 152.274 252.654C154.312 257.209 155.844 261.326 155.844 262.858C155.844 264.39 172.668 260.314 177.729 255.212C182.79 250.11 169.522 236.35 164.981 236.35C160.44 236.35 159.373 237.882 153.765 239.4C148.157 240.918 140.033 239.92 141.059 243.996Z" fill="white" stroke="#444444" stroke-linecap="round" stroke-linejoin="round"/>
<path d="M119.078 225.708C119.078 225.708 107.862 220.1 107.356 212.96" stroke="white" stroke-linecap="round" stroke-linejoin="round"/>
<path d="M98.2193 242.204C107.115 238.414 115.409 233.345 122.84 227.158C122.84 227.158 144.724 233.997 159.086 233.997" stroke="white" stroke-linecap="round" stroke-linejoin="round"/>
<path d="M179.74 76.9475C177.33 75.6677 174.835 74.5571 172.271 73.6237C166.65 71.6267 182.708 53.1069 178.686 43.929C174.665 34.7511 166.65 31.0854 159.825 36.3104C159.825 36.3104 148.992 57.1692 144.984 61.1905C142.851 63.5281 140.243 65.382 137.334 66.6276C134.425 67.8733 131.283 68.4819 128.119 68.4124C126.6 68.4308 125.083 68.545 123.578 68.7544C122.812 77.645 123.428 98.9415 145.777 104.932C166.828 110.568 175.828 93.1968 179.74 76.9475Z" fill="white"/>
<path d="M159.825 36.3103C159.825 36.3103 148.992 57.1692 144.984 61.1905C142.851 63.528 140.243 65.3819 137.334 66.6276C134.425 67.8732 131.283 68.4818 128.119 68.4124C126.6 68.4308 125.083 68.545 123.578 68.7543C123.482 69.8759 123.414 71.2027 123.4 72.6799C125.644 78.493 129.966 86.0706 137.502 87.7256C150.086 90.4612 159.072 81.4338 160.878 78.2878C162.492 75.4428 169.632 46.5414 167.717 34.0261C166.315 33.8602 164.895 33.9768 163.539 34.3692C162.184 34.7615 160.921 35.4216 159.825 36.3103Z" fill="#747CA5"/>
<path opacity="0.7" d="M159.825 36.3103C159.825 36.3103 148.992 57.1692 144.984 61.1905C142.851 63.528 140.243 65.3819 137.334 66.6276C134.425 67.8732 131.283 68.4818 128.119 68.4124C126.6 68.4308 125.083 68.545 123.578 68.7543C123.482 69.8759 123.414 71.2027 123.4 72.6799C125.644 78.493 129.966 86.0706 137.502 87.7256C150.086 90.4612 159.072 81.4338 160.878 78.2878C162.492 75.4428 169.632 46.5414 167.717 34.0261C166.315 33.8602 164.895 33.9768 163.539 34.3692C162.184 34.7615 160.921 35.4216 159.825 36.3103Z" fill="white"/>
<path d="M179.74 76.9475C177.33 75.6677 174.835 74.5571 172.271 73.6237C166.65 71.6267 182.708 53.1069 178.686 43.929C174.665 34.7511 166.65 31.0854 159.825 36.3104C159.825 36.3104 148.992 57.1692 144.984 61.1905C142.851 63.5281 140.243 65.382 137.334 66.6276C134.425 67.8733 131.283 68.4819 128.119 68.4124C126.6 68.4308 125.083 68.545 123.578 68.7544C122.812 77.645 123.428 98.9415 145.777 104.932C166.828 110.568 175.828 93.1968 179.74 76.9475Z" stroke="#444444" stroke-linecap="round" stroke-linejoin="round"/>
<path d="M159.565 81.3381C159.565 81.3381 154.613 83.6634 152.999 90.9127" stroke="#444444" stroke-linecap="round" stroke-linejoin="round"/>
<path d="M171.861 11.4301C171.861 11.4301 174.269 3.40122 168.661 0.597246C163.053 -2.20672 141.373 6.20518 136.559 20.2524C131.744 34.2996 152.206 39.9212 163.436 31.8923C174.665 23.8634 172.668 13.0305 172.668 13.0305L171.861 11.4301Z" fill="#444444" stroke="#444444" stroke-linecap="round" stroke-linejoin="round"/>
<path d="M136.559 20.2524C136.559 20.2524 132.031 32.3984 140.388 38.5261C148.746 44.6538 160.987 32.9592 160.987 32.9592" stroke="#444444" stroke-linecap="round" stroke-linejoin="round"/>
<path d="M160.235 49.9473C160.235 49.9473 151.002 39.9214 157.376 21.9076C163.75 3.89379 180.629 -0.948191 200.763 0.146041C226.067 1.51383 228.406 27.9259 227.612 34.3408C227.111 38.2771 226.307 42.1687 225.205 45.9807C225.205 45.9807 235.231 58.4139 229.609 66.0462C223.988 73.6785 204.333 70.0538 196.7 59.6176C189.068 49.1813 166.212 52.3957 165.009 53.2026C163.805 54.0096 160.235 49.9473 160.235 49.9473Z" fill="#444444" stroke="#444444" stroke-linecap="round" stroke-linejoin="round"/>
<path d="M212.43 66.853C211.281 66.3736 210.257 65.6392 209.434 64.7056" stroke="white" stroke-linecap="round" stroke-linejoin="round"/>
<path d="M206.617 44.6538C206.617 44.6538 226.094 60.2466 219.98 65.2527C219.395 65.7344 218.762 66.156 218.092 66.5111" stroke="white" stroke-linecap="round" stroke-linejoin="round"/>
<path d="M203.881 40.195C210.407 40.0242 216.884 41.358 222.811 44.0932" stroke="white" stroke-linecap="round" stroke-linejoin="round"/>
<path d="M203.867 32.9593L199.408 11.7996" stroke="white" stroke-linecap="round" stroke-linejoin="round"/>
<path d="M165.72 32.7406C164.967 32.4807 164.215 32.1935 163.436 31.8926" stroke="white" stroke-linecap="round" stroke-linejoin="round"/>
<path d="M202.199 30.1829C202.199 30.1829 191.256 38.5537 172.791 34.7102" stroke="white" stroke-linecap="round" stroke-linejoin="round"/>
<path d="M199.969 21.8254C199.969 21.8254 193.294 25.1629 182.188 25.1629" stroke="white" stroke-linecap="round" stroke-linejoin="round"/>
<path d="M156.214 50.7542C156.214 50.7542 155.01 61.9838 157.021 69.616C159.031 77.2483 159.428 89.2849 166.595 90.4885C173.762 91.6922 197.494 78.4383 201.912 73.6237C205.021 70.3902 206.748 66.0727 206.726 61.5871C206.726 59.1798 202.719 42.3286 202.719 42.3286C195.96 43.8605 189.105 44.9344 182.202 45.5429C174.729 46.2643 167.19 45.3015 160.139 42.7253C160.139 42.7253 154.641 46.3362 156.214 50.7542Z" fill="white"/>
<path d="M160.235 42.7253C160.235 42.7253 154.613 46.3363 156.214 50.7543C156.214 50.7543 155.01 61.9838 157.021 69.6161C158.662 75.8396 159.223 85.0037 163.312 88.7652C159.934 81.3654 158.197 63.42 166.718 55.7057C176.156 47.1707 199.545 43.122 199.545 43.122V42.9852C196.085 43.6828 190.066 44.736 182.338 45.4883C174.857 46.2334 167.303 45.2892 160.235 42.7253Z" fill="#747CA5"/>
<path opacity="0.7" d="M160.235 42.7253C160.235 42.7253 154.613 46.3363 156.214 50.7543C156.214 50.7543 155.01 61.9838 157.021 69.6161C158.662 75.8396 159.223 85.0037 163.312 88.7652C159.934 81.3654 158.197 63.42 166.718 55.7057C176.156 47.1707 199.545 43.122 199.545 43.122V42.9852C196.085 43.6828 190.066 44.736 182.338 45.4883C174.857 46.2334 167.303 45.2892 160.235 42.7253Z" fill="white"/>
<path d="M156.214 50.7542C156.214 50.7542 155.01 61.9838 157.021 69.616C159.031 77.2483 159.428 89.2849 166.595 90.4885C173.762 91.6922 197.494 78.4383 201.912 73.6237C205.021 70.3902 206.748 66.0727 206.726 61.5871C206.726 59.1798 202.719 42.3286 202.719 42.3286C195.96 43.8605 189.105 44.9344 182.202 45.5429C174.729 46.2643 167.19 45.3015 160.139 42.7253C160.139 42.7253 154.641 46.3362 156.214 50.7542Z" stroke="#444444" stroke-linecap="round" stroke-linejoin="round"/>
<path d="M161.028 46.7466C161.028 46.7466 161.439 36.707 156.61 36.707C151.782 36.707 148.595 53.1205 157.828 55.1722" fill="white"/>
<path d="M161.028 46.7466C161.028 46.7466 161.439 36.707 156.61 36.707C151.782 36.707 148.595 53.1205 157.828 55.1722" fill="#747CA5"/>
<path opacity="0.7" d="M161.028 46.7466C161.028 46.7466 161.439 36.707 156.61 36.707C151.782 36.707 148.595 53.1205 157.828 55.1722" fill="white"/>
<path d="M161.028 46.7466C161.028 46.7466 161.439 36.707 156.61 36.707C151.782 36.707 148.595 53.1205 157.828 55.1722" stroke="#444444" stroke-linecap="round" stroke-linejoin="round"/>
<path d="M191.571 64.4048C191.571 64.4048 181.997 79.642 179.931 79.642C177.866 79.642 176.717 76.4413 176.717 76.4413" stroke="#444444" stroke-linecap="round" stroke-linejoin="round"/>
<path d="M173.475 58.3728C173.656 60.1536 174.499 61.8018 175.836 62.9919C177.173 64.1821 178.907 64.8277 180.697 64.8014" stroke="#444444" stroke-linecap="round" stroke-linejoin="round"/>
<path d="M190.723 70.8198C190.723 70.8198 191.133 76.0311 197.945 74.4308" stroke="#444444" stroke-linecap="round" stroke-linejoin="round"/>
<path d="M187.919 59.1799C187.919 59.1799 185.115 51.9579 178.686 51.5613" stroke="#444444" stroke-width="1.5" stroke-linecap="round" stroke-linejoin="round"/>
<path d="M201.966 67.6055C199.149 62.7909 193.541 63.9946 193.541 63.9946" stroke="#444444" stroke-width="1.5" stroke-linecap="round" stroke-linejoin="round"/>
<path d="M168.688 78.1648C168.787 79.2235 169.228 80.2213 169.943 81.0081C170.659 81.7949 171.61 82.3283 172.655 82.528" stroke="#444444" stroke-linecap="round" stroke-linejoin="round"/>
<path d="M197.193 83.6359C197.193 83.6359 198.301 89.7499 204.975 77.5082C211.65 65.2665 202.773 42.3286 202.773 42.3286" stroke="#444444" stroke-linecap="round" stroke-linejoin="round"/>
<path opacity="0.13" d="M176.156 141.754C176.192 141.675 176.219 141.592 176.238 141.507L176.156 141.754Z" fill="#444444"/>
</g>
<defs>
<filter id="filter0_d_48_18914" x="0.278595" y="-25.5" width="295.484" height="328.532" filterUnits="userSpaceOnUse" color-interpolation-filters="sRGB">
<feFlood flood-opacity="0" result="BackgroundImageFix"/>
<feColorMatrix in="SourceAlpha" type="matrix" values="0 0 0 0 0 0 0 0 0 0 0 0 0 0 0 0 0 0 127 0" result="hardAlpha"/>
<feOffset dy="5"/>
<feGaussianBlur stdDeviation="15"/>
<feColorMatrix type="matrix" values="0 0 0 0 0 0 0 0 0 0 0 0 0 0 0 0 0 0 0.05 0"/>
<feBlend mode="normal" in2="BackgroundImageFix" result="effect1_dropShadow_48_18914"/>
<feBlend mode="normal" in="SourceGraphic" in2="effect1_dropShadow_48_18914" result="shape"/>
</filter>
</defs>
</svg>
