<svg width="432" height="447" viewBox="0 0 432 447" fill="none" xmlns="http://www.w3.org/2000/svg">
<g opacity="0.5" filter="url(#filter0_f_52_61)">
<path d="M33.8575 205.541L33.7493 205.33C33.6516 205.026 33.6247 204.704 33.6707 204.389C33.7168 204.073 33.8345 203.773 34.0149 203.51L124.252 76.4331C124.604 76.0343 125.095 75.7843 125.625 75.734C126.144 75.6586 126.672 75.7873 127.097 76.0931L134.35 81.5778C134.731 81.9005 134.976 82.3548 135.036 82.8496C135.095 83.3444 134.965 83.8429 134.671 84.2452C134.377 84.6474 133.941 84.9235 133.451 85.0181C132.961 85.1127 132.452 85.0188 132.028 84.7552L126.273 80.5471L38.7757 203.702L206.338 252.153C206.658 252.243 206.947 252.417 207.175 252.659L313.437 361.581L382.747 245.647L379.979 241.116C379.836 240.896 379.739 240.65 379.694 240.392C379.649 240.134 379.656 239.87 379.717 239.615C379.777 239.36 379.889 239.121 380.045 238.911C380.201 238.701 380.398 238.524 380.625 238.392C381.071 238.128 381.604 238.05 382.109 238.175C382.613 238.3 383.048 238.618 383.32 239.06L386.753 244.627C386.949 244.929 387.055 245.28 387.058 245.64C387.062 245.999 386.963 246.352 386.773 246.657L315.442 365.837C315.261 366.077 315.028 366.274 314.759 366.41C314.491 366.547 314.194 366.621 313.893 366.626C313.59 366.66 313.283 366.626 312.995 366.528C312.706 366.43 312.443 366.268 312.224 366.056L204.567 255.627L35.0176 206.59C34.5077 206.406 34.0907 206.029 33.8575 205.541Z" fill="white"/>
<path d="M51.3739 198.396L51.2297 198.115C51.1426 197.829 51.1229 197.528 51.1723 197.233C51.2216 196.939 51.3385 196.66 51.514 196.419L137.595 75.0047C137.855 74.6277 138.24 74.355 138.683 74.2351C139.126 74.1153 139.597 74.1561 140.013 74.3503C140.404 74.506 178.921 91.3401 218.732 88.2737C255.468 85.4432 281.609 99.4449 288.692 125.721C288.765 125.994 288.777 126.28 288.728 126.557C288.678 126.835 288.569 127.099 288.406 127.33L214.193 237.426C213.98 237.742 213.679 237.991 213.327 238.14C212.975 238.29 212.587 238.334 212.21 238.268C211.833 238.202 211.483 238.028 211.203 237.767C210.923 237.507 210.724 237.171 210.631 236.801C210.355 235.744 203.444 210.754 179.035 216.753C152.914 223.136 110.6 214.397 90.285 210.197L88.0163 209.756C75.8952 207.23 63.9898 203.759 52.4095 199.377C51.9564 199.186 51.5882 198.838 51.3739 198.396ZM139.929 78.5161L56.2208 196.505C66.8528 200.38 77.7499 203.486 88.8272 205.797L91.0959 206.238C111.022 210.458 152.892 219.112 178.077 212.807C200.016 207.446 209.783 224.065 213.078 231.875L284.659 125.824C277.778 102.105 253.349 89.5367 219.035 92.154C182.724 94.9459 147.513 81.6156 139.929 78.5161Z" fill="white"/>
<path d="M210.917 237.099C210.752 236.788 210.673 236.44 210.689 236.089C210.704 235.738 210.813 235.398 211.004 235.104L285.253 124.99C285.58 124.67 285.998 124.457 286.45 124.38C307.943 118.67 327.636 135.422 349.922 178.875C369.377 216.809 389.334 226.023 389.511 226.11C389.769 226.225 390.001 226.392 390.191 226.6C390.382 226.808 390.528 227.053 390.62 227.319C390.701 227.586 390.725 227.867 390.691 228.144C390.657 228.421 390.566 228.687 390.423 228.927L318.389 346.736C318.116 347.166 317.689 347.478 317.194 347.606C316.7 347.734 316.174 347.67 315.724 347.427C315.634 347.251 310.28 344.258 288.305 322.017C273.03 306.606 263.436 285.908 255.686 269.238C252.725 262.565 249.39 256.062 245.697 249.762C236.531 235.009 213.193 238.334 213.157 238.264C212.776 238.321 212.387 238.266 212.037 238.106C211.686 237.946 211.39 237.687 211.185 237.361L210.917 237.099ZM288.093 127.844L216.565 233.913C224.381 233.569 240.844 234.587 248.913 247.548C252.678 253.989 256.085 260.632 259.118 267.446C266.706 283.8 276.173 304.163 290.949 319.119C298.833 327.437 307.172 335.313 315.927 342.713L385.784 228.54C380.056 225.249 363.045 213.293 346.24 180.528C325.181 139.554 307.085 123.318 288.093 127.844Z" fill="white"/>
<path d="M116.367 221.746C116.158 221.358 116.085 220.911 116.16 220.477C116.27 219.962 116.578 219.51 117.019 219.22C117.46 218.929 117.997 218.823 118.516 218.923C130.517 221.37 140.81 222.913 149.899 224.271C160.691 225.379 171.324 227.699 181.598 231.187C189.907 234.587 197.703 239.123 204.763 244.665C204.963 244.828 205.128 245.029 205.25 245.256C205.371 245.483 205.446 245.732 205.47 245.988C205.494 246.244 205.466 246.503 205.389 246.748C205.312 246.993 205.186 247.22 205.019 247.416C204.68 247.814 204.199 248.065 203.678 248.115C203.157 248.165 202.637 248.011 202.226 247.686C195.47 242.415 188.024 238.091 180.094 234.835C170.125 231.511 159.813 229.325 149.354 228.317C140.212 226.942 130.042 225.292 117.758 222.9C117.451 222.832 117.165 222.692 116.923 222.491C116.681 222.29 116.491 222.035 116.367 221.746Z" fill="white"/>
<path d="M215.874 253.949C215.671 253.564 215.616 253.119 215.72 252.697C215.817 252.185 216.114 251.731 216.545 251.437C216.977 251.142 217.508 251.031 218.022 251.126C229.478 253.667 239.558 260.427 246.246 270.053L249.966 276.095C265.281 302.312 284.842 325.822 307.852 345.671C308.245 346.024 308.482 346.517 308.51 347.043C308.538 347.569 308.356 348.085 308.003 348.476C307.65 348.867 307.156 349.102 306.629 349.13C306.101 349.157 305.584 348.974 305.192 348.622C281.927 328.492 262.129 304.69 246.59 278.169L242.887 272.162C236.775 263.471 227.64 257.357 217.264 255.015C216.969 254.948 216.692 254.818 216.452 254.634C216.212 254.45 216.015 254.216 215.874 253.949Z" fill="white"/>
<path d="M132.833 105.804C132.655 105.462 132.581 105.076 132.62 104.693C132.659 104.31 132.809 103.947 133.053 103.649C133.296 103.35 133.622 103.13 133.99 103.014C134.358 102.898 134.752 102.893 135.124 102.998C155.012 107.943 175.168 111.745 195.49 114.383C234.057 119.798 253.123 128.49 261.291 144.415C261.53 144.882 261.574 145.423 261.413 145.921C261.252 146.419 260.899 146.832 260.432 147.069C259.965 147.307 259.423 147.35 258.923 147.188C258.424 147.027 258.009 146.674 257.77 146.208C250.27 131.583 232.04 123.484 194.927 118.305C174.441 115.617 154.121 111.782 134.064 106.818C133.799 106.743 133.553 106.615 133.342 106.44C133.13 106.266 132.957 106.049 132.833 105.804Z" fill="white"/>
<path d="M120.364 126.251C120.134 125.811 120.078 125.301 120.208 124.823C120.285 124.578 120.41 124.35 120.576 124.153C120.742 123.957 120.946 123.796 121.175 123.679C121.405 123.562 121.656 123.492 121.913 123.473C122.17 123.454 122.428 123.486 122.673 123.568C142.586 128.488 162.758 132.294 183.093 134.971C221.641 140.35 240.708 149.042 248.894 165.003C249.123 165.471 249.161 166.009 249.001 166.504C248.841 166.999 248.495 167.412 248.035 167.657C247.568 167.895 247.025 167.938 246.526 167.776C246.027 167.615 245.612 167.262 245.373 166.796C237.854 152.136 219.643 144.072 182.511 138.858C162.026 136.17 141.706 132.335 121.648 127.371C121.364 127.291 121.101 127.15 120.879 126.956C120.657 126.762 120.481 126.522 120.364 126.251Z" fill="white"/>
<path d="M107.894 146.699C107.725 146.361 107.657 145.982 107.698 145.607C107.739 145.231 107.887 144.876 108.124 144.582C108.361 144.289 108.678 144.069 109.037 143.95C109.396 143.831 109.782 143.817 110.149 143.911C130.052 148.83 150.211 152.642 170.534 155.331C209.117 160.693 228.184 169.385 236.37 185.346C236.599 185.814 236.637 186.351 236.477 186.846C236.317 187.341 235.971 187.754 235.511 188C235.044 188.237 234.502 188.28 234.002 188.119C233.503 187.957 233.088 187.604 232.849 187.138C225.33 172.478 207.119 164.415 170.005 159.236C149.514 156.528 129.189 152.682 109.124 147.713C108.859 147.641 108.612 147.513 108.4 147.338C108.188 147.163 108.015 146.946 107.894 146.699Z" fill="white"/>
<path d="M95.4245 167.147C95.3103 166.935 95.2394 166.703 95.2159 166.464C95.1923 166.224 95.2166 165.983 95.2872 165.754C95.3639 165.508 95.4889 165.28 95.6549 165.084C95.821 164.887 96.0248 164.726 96.2543 164.609C96.4838 164.492 96.7345 164.422 96.9916 164.403C97.2488 164.384 97.5072 164.417 97.7518 164.499C117.65 169.437 137.811 173.25 158.137 175.919C196.72 181.281 215.752 189.991 223.938 205.952C224.177 206.418 224.221 206.959 224.06 207.457C223.899 207.955 223.546 208.368 223.079 208.606C222.612 208.844 222.069 208.886 221.57 208.725C221.071 208.563 220.656 208.211 220.417 207.744C212.898 193.084 194.722 185.003 157.608 179.824C137.112 177.151 116.784 173.304 96.7271 168.301C96.435 168.223 96.165 168.078 95.9388 167.878C95.7126 167.677 95.5365 167.427 95.4245 167.147Z" fill="white"/>
<path d="M276.194 161.524L275.887 160.926C275.832 160.409 275.979 159.891 276.298 159.48C276.618 159.07 277.084 158.799 277.6 158.724C277.776 158.634 297.411 156.574 308.608 178.406C329.614 219.363 349.583 242.714 362.054 240.798C362.598 240.71 363.155 240.84 363.602 241.161C363.824 241.32 364.012 241.52 364.156 241.752C364.3 241.983 364.397 242.24 364.442 242.509C364.486 242.777 364.477 243.052 364.415 243.317C364.353 243.582 364.239 243.832 364.081 244.052C363.922 244.273 363.721 244.461 363.489 244.604C363.258 244.747 363 244.843 362.731 244.887C342.963 247.902 318.195 205.757 305.177 180.374C295.224 160.968 278.894 162.72 278.133 162.709C277.727 162.734 277.323 162.634 276.976 162.422C276.629 162.209 276.356 161.896 276.194 161.524Z" fill="white"/>
<path d="M261.663 184.794C261.46 184.403 261.388 183.958 261.457 183.524C261.561 183.014 261.864 182.567 262.299 182.279C262.733 181.991 263.265 181.887 263.777 181.988C264.557 182.123 282.496 185.759 296.433 212.935C311.417 242.149 329.408 260.345 350.012 267.013C350.503 267.177 350.91 267.527 351.146 267.987C351.382 268.447 351.428 268.981 351.274 269.474C351.195 269.722 351.067 269.952 350.899 270.15C350.73 270.349 350.523 270.512 350.291 270.63C350.059 270.749 349.805 270.82 349.545 270.84C349.284 270.86 349.022 270.828 348.774 270.747C327.177 263.787 308.225 245.016 292.736 214.817C279.79 189.575 263.019 185.965 262.878 185.949C262.603 185.857 262.352 185.705 262.142 185.506C261.932 185.306 261.769 185.063 261.663 184.794Z" fill="white"/>
<path d="M244.953 203.898C244.83 203.638 244.761 203.356 244.75 203.07C244.737 202.812 244.776 202.554 244.865 202.311C244.953 202.069 245.09 201.846 245.266 201.657C245.442 201.468 245.655 201.317 245.891 201.211C246.127 201.106 246.382 201.048 246.641 201.043C254.367 201.211 261.893 203.548 268.355 207.787C274.817 212.025 279.954 217.993 283.175 225.005C298.249 254.396 317.609 276.993 334.941 285.504C335.178 285.614 335.39 285.771 335.565 285.965C335.741 286.158 335.875 286.385 335.96 286.632C336.045 286.879 336.079 287.14 336.06 287.4C336.041 287.66 335.97 287.913 335.851 288.145C335.613 288.607 335.205 288.96 334.712 289.128C334.219 289.296 333.679 289.268 333.206 289.048C307.165 276.281 287.065 241.247 279.654 226.798C276.769 220.457 272.158 215.048 266.347 211.188C260.536 207.327 253.758 205.169 246.785 204.96C246.41 204.979 246.037 204.889 245.711 204.7C245.386 204.512 245.122 204.233 244.953 203.898Z" fill="white"/>
<path d="M234.579 221.505C234.463 221.359 234.377 221.191 234.326 221.013C234.238 220.5 234.352 219.973 234.645 219.543C234.938 219.113 235.386 218.813 235.896 218.706C236.638 218.594 253.595 215.813 267.714 239.793C282.268 264.82 300.881 287.271 322.792 306.232C323.026 306.383 323.225 306.581 323.376 306.814C323.528 307.046 323.628 307.308 323.672 307.582C323.715 307.856 323.7 308.136 323.628 308.404C323.555 308.671 323.427 308.92 323.252 309.135C323.076 309.35 322.857 309.525 322.609 309.65C322.361 309.774 322.089 309.845 321.812 309.858C321.534 309.87 321.257 309.824 320.998 309.723C320.739 309.622 320.504 309.467 320.309 309.269C298.004 290.046 279.073 267.24 264.302 241.797C251.657 220.347 237.224 222.508 236.677 222.565C236.26 222.635 235.831 222.57 235.453 222.379C235.076 222.188 234.769 221.882 234.579 221.505Z" fill="white"/>
</g>
<defs>
<filter id="filter0_f_52_61" x="-20" y="-20" width="471.498" height="486.504" filterUnits="userSpaceOnUse" color-interpolation-filters="sRGB">
<feFlood flood-opacity="0" result="BackgroundImageFix"/>
<feBlend mode="normal" in="SourceGraphic" in2="BackgroundImageFix" result="shape"/>
<feGaussianBlur stdDeviation="10" result="effect1_foregroundBlur_52_61"/>
</filter>
</defs>
</svg>
