<svg width="332" height="310" viewBox="0 0 332 310" fill="none" xmlns="http://www.w3.org/2000/svg">
<g opacity="0.5" filter="url(#filter0_f_52_21)">
<path d="M106.119 20.3539C106.48 20.3856 106.829 20.4966 107.142 20.6789C107.454 20.8612 107.722 21.1102 107.927 21.408L178.519 128.664L309.751 195.472C310.1 195.637 310.402 195.888 310.629 196.2C310.856 196.512 311.001 196.876 311.05 197.259C311.106 197.637 311.071 198.023 310.946 198.385C310.822 198.747 310.613 199.074 310.336 199.339L216.03 289.244C215.797 289.468 215.521 289.643 215.218 289.758C214.916 289.873 214.593 289.926 214.269 289.914C213.956 289.902 213.648 289.828 213.364 289.695C213.079 289.563 212.824 289.375 212.614 289.143L207.414 283.53C207.074 283.054 206.921 282.47 206.982 281.889C207.044 281.308 207.317 280.769 207.75 280.374C208.183 279.98 208.745 279.756 209.331 279.747C209.918 279.737 210.487 279.941 210.933 280.321L214.449 284.109L304.584 198.199L175.934 132.664C175.569 132.449 175.251 132.165 174.998 131.826L105.761 26.6428L31.319 109.737L32.717 113.438C32.8292 113.734 32.8819 114.05 32.8719 114.366C32.8619 114.682 32.7896 114.993 32.6589 115.282C32.5283 115.57 32.342 115.83 32.1106 116.046C31.8792 116.263 31.6073 116.432 31.3105 116.544C31.0136 116.656 30.6975 116.708 30.3803 116.698C30.0631 116.688 29.751 116.616 29.4618 116.486C29.1725 116.355 28.9118 116.17 28.6946 115.939C28.4773 115.708 28.3078 115.437 28.1956 115.141L26.2796 110.064C26.1223 109.651 26.0822 109.204 26.1638 108.77C26.2454 108.337 26.4455 107.934 26.742 107.607L104.265 21.1225C104.502 20.8711 104.79 20.6726 105.11 20.5401C105.429 20.4077 105.773 20.3442 106.119 20.3539Z" fill="white"/>
<path d="M168.527 141.442C168.812 141.389 169.104 141.381 169.392 141.418C169.834 141.581 170.219 141.867 170.502 142.242C170.785 142.617 170.953 143.065 170.988 143.533C171.011 144.395 172.684 165.393 192.894 164.229C215.654 163.141 248.965 177.109 265.007 183.631L266.757 184.351C276.338 188.338 285.596 193.059 294.447 198.469C294.756 198.664 295.017 198.927 295.208 199.238C295.4 199.548 295.518 199.898 295.554 200.261C295.588 200.629 295.537 200.999 295.405 201.343C295.272 201.688 295.062 201.997 294.79 202.247L204.709 288.396C204.283 288.757 203.746 288.963 203.186 288.978C202.627 288.993 202.079 288.816 201.634 288.478C182.924 276.229 161.778 268.161 139.647 264.827C108.685 261.294 89.217 245.421 87.5858 222.409C87.5615 222.072 87.6088 221.735 87.7245 221.418C87.8402 221.101 88.0217 220.812 88.2573 220.569L166.709 141.778C167.25 141.438 167.9 141.318 168.527 141.442ZM192.307 169.23C186.319 169.504 180.438 167.576 175.781 163.813C171.124 160.05 168.015 154.713 167.044 148.815L92.3706 223.335C94.3591 243.558 111.693 256.947 140.104 260.405C162.41 263.594 183.755 271.577 202.662 283.801L289.23 201.102C281.402 196.491 273.259 192.432 264.862 188.955L263.112 188.235C247.358 181.706 214.488 168.061 193.076 169.209L192.307 169.23Z" fill="white"/>
<path d="M100.801 35.2597C101.396 35.2431 101.978 35.4306 102.45 35.7908C102.845 36.1637 106.739 39.7025 121.019 61.0822C131.044 76.2486 135.776 94.816 139.448 109.721C140.785 115.624 142.435 121.452 144.391 127.18C149.553 140.272 168.473 141.204 168.81 141.243C169.274 141.255 169.725 141.401 170.107 141.663C170.489 141.925 170.788 142.292 170.966 142.719C171.13 143.161 171.164 143.64 171.066 144.1C170.968 144.561 170.741 144.985 170.411 145.322L91.9525 223.874C91.5459 224.276 91.0038 224.513 90.4319 224.538C71.5751 225.953 57.8921 208.871 46.4382 169.297C36.5771 135.289 21.9208 124.896 21.774 124.804C21.4902 124.609 21.2499 124.357 21.0683 124.065C20.8867 123.773 20.7676 123.447 20.7186 123.106C20.6841 122.766 20.7216 122.422 20.8288 122.098C20.936 121.773 21.1104 121.474 21.3407 121.22L99.0975 36.2639C99.2958 35.9876 99.5497 35.7556 99.8431 35.5827C100.136 35.4098 100.463 35.2998 100.801 35.2597ZM163.394 145.414C156.436 144.114 144.265 140.317 139.918 128.882C137.794 123 136.027 116.997 134.624 110.904C131.01 96.3336 126.482 78.24 116.811 63.7352C111.816 55.9593 106.43 48.4403 100.673 41.2068L26.2827 122.622C30.9646 126.859 42.4639 139.637 50.7298 167.984C61.07 203.706 73.1962 220.11 88.8106 219.692L163.394 145.414Z" fill="white"/>
<path d="M177.53 134.778C177.891 134.773 178.248 134.848 178.576 134.997C178.904 135.145 179.195 135.364 179.429 135.638C184.074 141.002 189.444 145.697 195.383 149.591C202.992 153.871 211.049 157.305 219.41 159.829C226.691 162.367 234.942 165.262 244.521 169.224C245.107 169.469 245.571 169.937 245.812 170.523C246.053 171.11 246.052 171.768 245.807 172.353C245.691 172.646 245.515 172.913 245.293 173.138C245.07 173.362 244.805 173.539 244.512 173.659C244.219 173.779 243.904 173.838 243.588 173.834C243.271 173.83 242.959 173.762 242.669 173.635C233.237 169.765 225.033 166.869 217.849 164.329C209.101 161.713 200.68 158.11 192.751 153.592C186.434 149.446 180.704 144.472 175.716 138.805C175.312 138.305 175.121 137.668 175.185 137.029C175.249 136.391 175.562 135.803 176.056 135.393C176.463 135.026 176.983 134.809 177.53 134.778Z" fill="white"/>
<path d="M109.133 35.804C109.518 35.7955 109.899 35.8774 110.246 36.043C110.593 36.2085 110.896 36.4532 111.13 36.7571C127.042 56.9638 139.512 79.6418 148.04 103.883C148.767 105.877 149.49 107.727 150.112 109.388C153.702 117.266 160.064 123.56 167.994 127.076C168.319 127.169 168.621 127.328 168.879 127.545C169.138 127.761 169.348 128.029 169.496 128.332C169.644 128.635 169.726 128.965 169.737 129.302C169.748 129.638 169.688 129.973 169.56 130.285C169.433 130.597 169.241 130.878 168.997 131.111C168.753 131.344 168.462 131.523 168.144 131.636C167.826 131.749 167.488 131.795 167.151 131.769C166.815 131.743 166.487 131.647 166.19 131.486C156.998 127.549 149.651 120.275 145.64 111.137C144.969 109.43 144.294 107.578 143.567 105.584C135.184 81.7041 122.918 59.3608 107.26 39.449C107.071 39.2004 106.932 38.9164 106.854 38.6137C106.775 38.3111 106.758 37.9959 106.804 37.6866C106.849 37.3773 106.956 37.0802 107.118 36.8127C107.28 36.5451 107.494 36.3126 107.748 36.1286C108.16 35.8676 108.648 35.7532 109.133 35.804Z" fill="white"/>
<path d="M115.482 208.577C116.015 208.569 116.535 208.737 116.961 209.055C117.387 209.373 117.696 209.824 117.837 210.336C121.599 223.225 135.074 232.595 164.433 242.643C180.851 248.072 196.946 254.427 212.641 261.677C212.945 261.803 213.22 261.991 213.449 262.227C213.677 262.464 213.854 262.745 213.969 263.053C214.084 263.361 214.134 263.689 214.116 264.017C214.098 264.345 214.013 264.666 213.866 264.96C213.719 265.253 213.512 265.514 213.26 265.725C213.007 265.936 212.714 266.093 212.398 266.186C212.082 266.279 211.75 266.306 211.423 266.266C211.096 266.226 210.781 266.119 210.497 265.952C194.995 258.818 179.112 252.538 162.92 247.141C131.865 236.611 117.451 226.308 113.211 211.706C113.123 211.403 113.096 211.086 113.132 210.772C113.167 210.459 113.265 210.156 113.418 209.88C113.571 209.604 113.778 209.361 114.025 209.165C114.273 208.969 114.557 208.824 114.861 208.738L115.482 208.577Z" fill="white"/>
<path d="M128.978 193.788C129.504 193.777 130.019 193.938 130.445 194.247C130.87 194.556 131.182 194.996 131.332 195.499C135.095 208.436 148.568 217.758 177.927 227.806C194.343 233.261 210.438 239.632 226.137 246.888C226.441 247.014 226.716 247.202 226.944 247.439C227.172 247.675 227.35 247.956 227.464 248.264C227.579 248.572 227.629 248.9 227.612 249.228C227.594 249.556 227.509 249.877 227.361 250.171C227.214 250.465 227.008 250.725 226.755 250.936C226.503 251.147 226.209 251.304 225.893 251.397C225.577 251.49 225.246 251.517 224.919 251.477C224.592 251.437 224.276 251.33 223.993 251.163C208.488 243.999 192.587 237.719 176.367 232.353C145.359 221.774 130.947 211.519 126.707 196.917C126.612 196.614 126.58 196.295 126.613 195.979C126.645 195.664 126.741 195.358 126.896 195.081C127.05 194.804 127.259 194.56 127.51 194.366C127.761 194.171 128.05 194.029 128.357 193.949C128.549 193.849 128.762 193.795 128.978 193.788Z" fill="white"/>
<path d="M142.474 178.999C143 178.988 143.515 179.15 143.94 179.459C144.365 179.768 144.677 180.207 144.828 180.71C148.591 193.647 162.064 202.969 191.423 213.017C207.841 218.446 223.936 224.801 239.631 232.051C239.916 232.192 240.17 232.386 240.379 232.625C240.588 232.863 240.749 233.14 240.85 233.44C240.952 233.74 240.994 234.057 240.973 234.373C240.952 234.689 240.869 234.998 240.728 235.281C240.587 235.565 240.392 235.819 240.153 236.027C239.914 236.236 239.636 236.395 239.335 236.497C239.034 236.598 238.716 236.64 238.399 236.619C238.082 236.598 237.773 236.515 237.488 236.375C221.983 229.211 206.082 222.93 189.863 217.564C158.855 206.986 144.443 196.73 140.201 182.08C140.113 181.777 140.087 181.46 140.122 181.147C140.158 180.833 140.255 180.53 140.408 180.254C140.562 179.979 140.768 179.736 141.016 179.54C141.263 179.344 141.548 179.198 141.852 179.112L142.474 178.999Z" fill="white"/>
<path d="M155.967 164.163C156.5 164.154 157.02 164.322 157.446 164.641C157.873 164.959 158.181 165.409 158.323 165.921C162.084 178.811 175.559 188.181 204.918 198.228C221.336 203.658 237.431 210.013 253.126 217.263C253.695 217.552 254.128 218.052 254.333 218.655C254.538 219.259 254.499 219.918 254.223 220.493C253.924 221.051 253.422 221.475 252.82 221.678C252.219 221.881 251.562 221.848 250.983 221.586C235.489 214.397 219.587 208.116 203.358 202.776C172.35 192.197 157.937 181.893 153.696 167.291C153.608 166.988 153.581 166.671 153.617 166.358C153.653 166.045 153.75 165.741 153.903 165.466C154.056 165.19 154.263 164.947 154.511 164.751C154.758 164.555 155.042 164.41 155.347 164.323L155.967 164.163Z" fill="white"/>
<path d="M46.5391 112.494C62.8559 113.16 76.0257 146.84 84.1891 174.95C89.1178 191.883 102.324 193.111 102.902 193.144C103.534 193.199 104.118 193.501 104.527 193.984C104.937 194.467 105.138 195.091 105.087 195.721C105.032 196.346 104.737 196.925 104.265 197.339C103.793 197.753 103.18 197.97 102.551 197.946C101.831 197.965 85.4464 196.582 79.5624 176.32C68.9588 139.743 56.5357 117.691 46.3803 117.291C46.0641 117.281 45.753 117.209 45.4648 117.079C45.1766 116.949 44.9171 116.764 44.7009 116.534C44.4848 116.303 44.3163 116.033 44.2052 115.737C44.0941 115.442 44.0426 115.128 44.0536 114.813C44.0858 114.181 44.3628 113.585 44.8265 113.153C45.2901 112.72 45.9041 112.484 46.5391 112.494Z" fill="white"/>
<path d="M61.4509 93.2091C61.8906 93.188 62.3272 93.2928 62.7091 93.511C79.495 102.649 92.0235 121.487 99.9688 148.644C106.437 170.952 119.28 176.504 119.425 176.548C119.946 176.829 120.344 177.292 120.543 177.848C120.742 178.404 120.729 179.013 120.506 179.56C120.282 180.106 119.864 180.551 119.332 180.809C118.799 181.067 118.19 181.12 117.621 180.958C116.996 180.975 102.501 174.748 95.3409 149.966C87.7603 123.854 75.9874 106.29 60.274 97.6984C59.72 97.3931 59.3092 96.8821 59.1308 96.2766C58.9524 95.6711 59.0209 95.0199 59.3213 94.4644C59.5327 94.0857 59.8413 93.7698 60.2155 93.5492C60.5898 93.3286 61.0161 93.2113 61.4509 93.2091Z" fill="white"/>
<path d="M76.9764 80.5708C77.5213 80.5382 78.0584 80.7122 78.48 81.0579C98.1077 95.7278 108.925 127.745 112.741 140.873C114.084 146.368 116.934 151.383 120.973 155.355C125.012 159.327 130.079 162.101 135.609 163.365C136.235 163.465 136.797 163.808 137.171 164.318C137.545 164.829 137.701 165.467 137.606 166.092C137.505 166.719 137.164 167.283 136.653 167.663C136.143 168.044 135.504 168.211 134.872 168.13C128.428 166.728 122.507 163.556 117.777 158.973C113.048 154.389 109.701 148.577 108.113 142.195C100.479 115.892 88.3134 94.4559 75.6022 84.8737C75.3448 84.6843 75.128 84.4457 74.9643 84.1717C74.8007 83.8977 74.6936 83.5939 74.6492 83.2781C74.6049 82.9624 74.6242 82.6409 74.706 82.3327C74.7879 82.0245 74.9306 81.7356 75.1259 81.4831C75.3421 81.1982 75.6218 80.9675 75.943 80.8091C76.2642 80.6508 76.6181 80.5692 76.9764 80.5708Z" fill="white"/>
<path d="M90.4695 65.734C90.8293 65.7327 91.1852 65.8088 91.5129 65.9572C91.8405 66.1056 92.1322 66.3228 92.3679 66.594C107.667 85.9322 119.628 107.676 127.761 130.932C134.524 149.925 146.223 150.523 146.704 150.51C147.346 150.53 147.955 150.801 148.399 151.264C148.843 151.727 149.087 152.346 149.078 152.987C149.097 153.306 149.045 153.625 148.928 153.922C148.81 154.219 148.629 154.487 148.397 154.708C148.165 154.928 147.888 155.096 147.585 155.199C147.282 155.302 146.96 155.338 146.641 155.305C146.016 155.321 131.149 154.904 123.237 132.539C115.247 109.85 103.598 88.6121 88.7486 69.6626C88.3476 69.1708 88.1584 68.5405 88.2225 67.9099C88.2865 67.2793 88.5987 66.6998 89.0905 66.2982C89.4803 65.9719 89.9622 65.7748 90.4695 65.734Z" fill="white"/>
</g>
<defs>
<filter id="filter0_f_52_21" x="-2" y="-5" width="335.498" height="319.972" filterUnits="userSpaceOnUse" color-interpolation-filters="sRGB">
<feFlood flood-opacity="0" result="BackgroundImageFix"/>
<feBlend mode="normal" in="SourceGraphic" in2="BackgroundImageFix" result="shape"/>
<feGaussianBlur stdDeviation="10" result="effect1_foregroundBlur_52_21"/>
</filter>
</defs>
</svg>
