<svg width="412" height="400" viewBox="0 0 412 400" fill="none" xmlns="http://www.w3.org/2000/svg">
<g opacity="0.5" filter="url(#filter0_f_52_7)">
<path d="M363.17 223.954L363.987 223.946L388.677 228.422C389.198 228.519 389.68 228.709 390.085 228.977C390.49 229.245 390.806 229.584 391.008 229.964C391.209 230.345 391.291 230.758 391.246 231.169C391.2 231.58 391.03 231.978 390.747 232.33L277.835 370.647C277.352 371.242 276.582 371.667 275.695 371.828C274.808 371.989 273.877 371.872 273.107 371.505C272.336 371.137 271.79 370.548 271.587 369.868C271.385 369.187 271.543 368.47 272.027 367.875L382.438 232.672L364.705 229.439L253.098 359.101C252.615 359.659 251.879 360.058 251.036 360.222C250.192 360.385 249.302 360.3 248.54 359.983L68.794 282.258L49.4121 297.424L245.773 374.099C246.579 374.411 247.189 374.957 247.468 375.617C247.747 376.278 247.672 376.998 247.261 377.62C246.85 378.242 246.135 378.715 245.274 378.935C244.413 379.154 243.477 379.102 242.671 378.79L42.1419 300.27C41.6611 300.089 41.2468 299.818 40.9356 299.483C40.6245 299.148 40.4261 298.759 40.358 298.349C40.2729 297.952 40.3139 297.543 40.4774 297.159C40.6408 296.774 40.9219 296.425 41.297 296.141L65.7613 276.944C66.2866 276.535 66.9704 276.269 67.7081 276.186C68.4457 276.104 69.1965 276.209 69.8455 276.486L249.182 354.006L360.383 224.819C360.729 224.518 361.161 224.283 361.645 224.133C362.129 223.983 362.651 223.921 363.17 223.954Z" fill="white"/>
<path d="M48.3341 63.7781C48.9046 63.7704 49.4675 63.873 49.971 64.0766L201.156 128.878C201.598 129.065 201.98 129.325 202.276 129.639C202.573 129.953 202.776 130.313 202.871 130.695L253.631 357.315C253.774 358.007 253.555 358.717 253.024 359.291C252.492 359.864 251.69 360.256 250.79 360.38C250.348 360.437 249.896 360.425 249.46 360.347C249.025 360.269 248.614 360.125 248.252 359.924C247.89 359.723 247.584 359.469 247.351 359.176C247.117 358.884 246.962 358.558 246.893 358.218L196.414 132.852L51.925 71.0764L74.2783 267.015C74.3233 267.704 74.0268 268.382 73.4488 268.912C72.8707 269.443 72.0542 269.786 71.1638 269.874C70.7164 269.907 70.2656 269.871 69.8374 269.77C69.4092 269.668 69.0119 269.502 68.6686 269.281C68.3252 269.061 68.0425 268.79 67.8367 268.484C67.6309 268.178 67.506 267.844 67.4694 267.5L45.0833 66.6379C45.0171 66.164 45.1278 65.6844 45.4023 65.2551C45.6769 64.8258 46.1041 64.4646 46.6339 64.2135C47.1291 63.936 47.7235 63.7838 48.3341 63.7781Z" fill="white"/>
<path d="M48.3343 63.7782C48.9167 63.7761 49.489 63.8889 49.9965 64.1059C50.5039 64.3228 50.9296 64.6366 51.2328 65.0172C51.5361 65.3978 51.7066 65.8326 51.7283 66.28C51.7501 66.7274 51.6222 67.1725 51.3569 67.5727L27.4068 102.635L47.0999 298.023C47.1335 298.366 47.0786 298.712 46.9386 299.041C46.7985 299.369 46.5759 299.673 46.2835 299.936C45.693 300.467 44.8539 300.798 43.9509 300.855C43.048 300.913 42.155 300.692 41.4686 300.242C40.7821 299.792 40.3584 299.149 40.2905 298.455L20.523 102.125C20.5109 101.635 20.6476 101.15 20.9223 100.707L45.074 65.2238C45.3761 64.7649 45.8461 64.3833 46.4256 64.1263C47.0052 63.8694 47.6688 63.7483 48.3343 63.7782Z" fill="white"/>
<path d="M300.305 20.8628L300.986 20.8563C301.636 20.9425 302.236 21.1753 302.711 21.525C303.186 21.8747 303.515 22.3257 303.656 22.8209L357.198 206.832C357.384 207.517 357.213 208.233 356.72 208.826C356.227 209.419 355.452 209.84 354.562 210C354.124 210.073 353.672 210.079 353.233 210.018C352.793 209.956 352.374 209.829 352 209.643C351.625 209.457 351.303 209.216 351.05 208.933C350.798 208.65 350.621 208.332 350.529 207.996L298.66 29.6781L202.204 132.691C201.674 133.259 200.875 133.644 199.982 133.76C199.088 133.877 198.174 133.716 197.439 133.313C196.705 132.911 196.211 132.299 196.066 131.613C195.92 130.927 196.136 130.222 196.666 129.654L297.521 22.1991C297.793 21.8088 298.194 21.4799 298.682 21.2453C299.171 21.0107 299.731 20.8788 300.305 20.8628Z" fill="white"/>
<path d="M300.304 20.8627L300.713 20.8587L328.385 22.9491C329.089 23.0061 329.751 23.2308 330.278 23.5919C330.806 23.953 331.173 24.4325 331.327 24.9635L391.142 230.231C391.238 230.574 391.245 230.929 391.163 231.275C391.081 231.621 390.911 231.952 390.663 232.249C390.415 232.546 390.094 232.802 389.718 233.004C389.342 233.206 388.919 233.349 388.472 233.426C388.025 233.502 387.564 233.511 387.114 233.45C386.665 233.39 386.236 233.261 385.852 233.073C385.468 232.885 385.136 232.64 384.877 232.352C384.617 232.064 384.433 231.74 384.337 231.397L325.012 28.0099L299.794 26.1053C298.891 26.114 298.023 25.8464 297.381 25.3615C296.739 24.8765 296.376 24.2139 296.371 23.5194C296.366 22.8249 296.721 22.1554 297.356 21.6581C297.992 21.1609 298.856 20.8766 299.759 20.8679L300.304 20.8627Z" fill="white"/>
<path d="M322.965 191.239C323.592 191.23 324.208 191.354 324.746 191.598C325.285 191.843 325.724 192.197 326.015 192.622C326.307 193.047 326.44 193.526 326.399 194.007C326.359 194.489 326.146 194.953 325.785 195.349L246.313 281.281C246.065 281.567 245.743 281.811 245.368 281.998C244.992 282.185 244.572 282.312 244.132 282.37C243.692 282.428 243.242 282.417 242.81 282.336C242.377 282.256 241.971 282.108 241.617 281.902C241.247 281.707 240.932 281.458 240.69 281.168C240.447 280.878 240.282 280.554 240.203 280.214C240.125 279.874 240.135 279.524 240.234 279.186C240.332 278.848 240.516 278.528 240.775 278.244L320.247 192.312C320.558 191.981 320.967 191.711 321.44 191.524C321.912 191.337 322.435 191.24 322.965 191.239Z" fill="white"/>
<path d="M316.567 151.074C317.272 151.07 317.961 151.227 318.546 151.526C319.267 151.937 319.751 152.548 319.895 153.23C320.039 153.913 319.833 154.614 319.319 155.185L239.916 241.116C239.66 241.404 239.332 241.649 238.951 241.837C238.57 242.025 238.144 242.152 237.699 242.21C237.254 242.268 236.798 242.256 236.36 242.175C235.923 242.094 235.511 241.946 235.151 241.739C234.435 241.337 233.953 240.736 233.808 240.062C233.664 239.388 233.868 238.695 234.378 238.132L313.782 152.201C314.092 151.853 314.508 151.568 314.994 151.371C315.48 151.175 316.02 151.073 316.567 151.074Z" fill="white"/>
<path d="M310.168 110.91C310.885 110.899 311.583 111.077 312.147 111.414C312.863 111.815 313.345 112.417 313.49 113.091C313.634 113.765 313.43 114.458 312.92 115.021L233.517 200.952C233.26 201.238 232.933 201.482 232.555 201.671C232.176 201.86 231.753 201.989 231.31 202.052C230.867 202.114 230.413 202.109 229.974 202.036C229.535 201.963 229.12 201.824 228.753 201.627C228.031 201.216 227.547 200.605 227.403 199.923C227.259 199.24 227.465 198.539 227.979 197.968L307.382 112.037C307.693 111.688 308.109 111.403 308.595 111.207C309.08 111.01 309.621 110.908 310.168 110.91Z" fill="white"/>
<path d="M303.974 70.7432C304.692 70.7276 305.392 70.9063 305.953 71.248C306.323 71.4429 306.638 71.6924 306.881 71.9822C307.123 72.272 307.288 72.5964 307.367 72.9365C307.445 73.2766 307.435 73.6259 307.337 73.964C307.238 74.302 307.054 74.6223 306.795 74.9063L227.323 160.838C226.796 161.392 226.01 161.767 225.132 161.883C224.255 161.999 223.356 161.847 222.627 161.459C222.257 161.264 221.942 161.015 221.699 160.725C221.457 160.435 221.291 160.111 221.213 159.771C221.135 159.431 221.145 159.081 221.243 158.743C221.341 158.405 221.526 158.085 221.785 157.801L301.257 71.8694C301.565 71.5315 301.971 71.2535 302.443 71.0578C302.915 70.8622 303.44 70.7544 303.974 70.7432Z" fill="white"/>
<path d="M101.681 228.83C102.283 228.815 102.876 228.937 103.386 229.18L211.394 275.279C212.182 275.619 212.76 276.187 213.001 276.857C213.242 277.528 213.126 278.246 212.678 278.855C212.231 279.464 211.488 279.912 210.614 280.102C209.741 280.293 208.807 280.209 208.019 279.869L100.011 233.769C99.2304 233.417 98.6626 232.843 98.4289 232.17C98.1953 231.497 98.3144 230.778 98.7606 230.167C99.0552 229.769 99.4797 229.436 99.992 229.201C100.504 228.966 101.087 228.838 101.681 228.83Z" fill="white"/>
<path d="M101.43 191.016C102.022 191.008 102.607 191.11 103.135 191.313L211.142 237.413C211.578 237.559 211.967 237.775 212.286 238.045C212.605 238.316 212.846 238.635 212.994 238.983C213.141 239.33 213.192 239.698 213.143 240.063C213.094 240.428 212.946 240.781 212.709 241.1C212.471 241.419 212.15 241.697 211.765 241.916C211.38 242.134 210.941 242.288 210.475 242.368C210.009 242.448 209.527 242.452 209.061 242.38C208.594 242.308 208.153 242.162 207.766 241.95L99.7588 195.85C98.9832 195.508 98.4169 194.943 98.1829 194.279C97.9489 193.614 98.0661 192.903 98.509 192.301C98.8121 191.912 99.2404 191.589 99.7522 191.364C100.264 191.139 100.842 191.019 101.43 191.016Z" fill="white"/>
<path d="M85.8359 150.94C86.4054 150.939 86.9664 151.041 87.4728 151.238L195.481 197.338C196.268 197.671 196.848 198.232 197.095 198.897C197.342 199.563 197.236 200.278 196.798 200.887C196.346 201.498 195.6 201.95 194.722 202.145C193.844 202.339 192.904 202.261 192.105 201.927L84.1653 155.827C83.7689 155.667 83.419 155.447 83.1367 155.18C82.8545 154.914 82.6456 154.605 82.5225 154.274C82.3995 153.943 82.3648 153.595 82.4206 153.252C82.4764 152.909 82.6217 152.578 82.8475 152.278C83.1477 151.872 83.5829 151.533 84.1083 151.298C84.6336 151.063 85.2299 150.939 85.8359 150.94Z" fill="white"/>
<path d="M82.4346 110.747C83.0367 110.732 83.6299 110.854 84.14 111.097L192.148 157.196C192.538 157.364 192.881 157.59 193.156 157.861C193.432 158.132 193.636 158.442 193.755 158.774C193.874 159.106 193.907 159.453 193.851 159.796C193.796 160.139 193.653 160.47 193.432 160.772C193.21 161.073 192.914 161.338 192.56 161.552C192.205 161.766 191.801 161.925 191.368 162.019C190.935 162.113 190.483 162.141 190.038 162.101C189.593 162.061 189.162 161.954 188.772 161.785L80.7644 115.686C80.1232 115.401 79.6226 114.961 79.3389 114.434C79.0553 113.908 79.0042 113.323 79.1935 112.769C79.3828 112.215 79.802 111.723 80.3873 111.367C80.9725 111.012 81.6917 110.812 82.435 110.799L82.4346 110.747Z" fill="white"/>
</g>
<defs>
<filter id="filter0_f_52_7" x="0" y="4.76837e-05" width="412.234" height="401.206" filterUnits="userSpaceOnUse" color-interpolation-filters="sRGB">
<feFlood flood-opacity="0" result="BackgroundImageFix"/>
<feBlend mode="normal" in="SourceGraphic" in2="BackgroundImageFix" result="shape"/>
<feGaussianBlur stdDeviation="10" result="effect1_foregroundBlur_52_7"/>
</filter>
</defs>
</svg>
