<svg width="350" height="354" viewBox="0 0 350 354" fill="none" xmlns="http://www.w3.org/2000/svg">
<g opacity="0.5" filter="url(#filter0_f_52_35)">
<path d="M81.5706 274.209C81.3964 273.985 81.2631 273.728 81.1815 273.456L55.3049 123.951C55.2389 123.595 55.2475 123.242 55.3297 122.924C55.412 122.605 55.5656 122.329 55.7774 122.121C55.989 121.916 56.2494 121.78 56.5385 121.723C56.8275 121.667 57.1375 121.691 57.4444 121.794L77.6168 128.538C78.044 128.691 78.4433 128.991 78.756 129.392C79.0687 129.794 79.2782 130.276 79.3539 130.769L98.1886 267.376L213.97 281.53C214.37 281.596 214.767 281.79 215.114 282.09C215.462 282.391 215.745 282.784 215.93 283.223L222.127 299.571C222.264 299.915 222.331 300.276 222.321 300.623C222.311 300.969 222.225 301.291 222.069 301.559C221.915 301.833 221.696 302.047 221.432 302.182C221.168 302.317 220.866 302.371 220.553 302.337L98.8176 290.709C98.295 290.661 97.7695 290.377 97.3567 289.919C96.9439 289.461 96.6776 288.866 96.6163 288.266C96.5551 287.666 96.704 287.109 97.0302 286.719C97.3563 286.328 97.8332 286.135 98.3557 286.183L217.355 297.521L212.911 285.777L96.9219 271.625C96.4229 271.555 95.9282 271.276 95.5342 270.842C95.1402 270.408 94.8753 269.851 94.7913 269.278L75.9042 132.327L59.7522 127.067L85.3219 273.396C85.4167 273.991 85.3095 274.561 85.0226 274.984C84.7358 275.408 84.2918 275.652 83.784 275.667C83.3717 275.699 82.9349 275.574 82.537 275.312C82.1391 275.05 81.8006 274.664 81.5706 274.209Z" fill="white"/>
<path d="M95.014 270.275C94.7692 269.819 94.6491 269.312 94.6722 268.831C94.6952 268.351 94.8603 267.924 95.1418 267.616L209.417 148.178L193.946 38.5804L86.8963 129.704C86.5185 130.021 86.0146 130.127 85.4944 129.997C84.9741 129.867 84.4797 129.513 84.1191 129.012C83.7612 128.508 83.5672 127.899 83.5794 127.318C83.5916 126.737 83.809 126.23 84.1842 125.909L193.955 32.5433C194.205 32.3106 194.525 32.1812 194.875 32.1707C195.225 32.1602 195.59 32.269 195.927 32.4841C196.267 32.6835 196.571 32.9764 196.805 33.3313C197.04 33.6862 197.197 34.0898 197.26 34.4989L213.45 149.443C213.498 149.774 213.483 150.1 213.405 150.396C213.327 150.692 213.189 150.951 213 151.156L98.0426 271.05C97.687 271.399 97.1993 271.55 96.6789 271.473C96.1586 271.396 95.6446 271.096 95.2416 270.635L95.014 270.275Z" fill="white"/>
<path d="M55.8248 124.796C55.5642 124.301 55.4536 123.749 55.5135 123.241C55.5733 122.734 55.7997 122.305 56.1504 122.036L164.143 32.3337C164.393 32.099 164.697 31.9429 165.034 31.8769L194.791 32.0619C195.279 32.1198 195.766 32.3834 196.158 32.8013C196.549 33.2192 196.817 33.7615 196.909 34.3224C197.001 34.8832 196.911 35.4224 196.655 35.8348C196.399 36.2472 195.997 36.5033 195.527 36.553L166.262 36.4329L58.5999 125.806C58.4103 125.964 58.1871 126.071 57.9434 126.119C57.6997 126.168 57.4402 126.158 57.18 126.09C56.9198 126.021 56.6639 125.897 56.4273 125.722C56.1906 125.547 55.9777 125.327 55.801 125.073L55.8248 124.796Z" fill="white"/>
<path d="M220.335 271.808C220.107 271.361 219.996 270.87 220.017 270.403C220.038 269.937 220.19 269.519 220.451 269.208L306.554 167.665L211.65 151.691C211.133 151.592 210.632 151.267 210.253 150.788C209.874 150.309 209.649 149.712 209.626 149.127C209.603 148.543 209.783 148.016 210.128 147.661C210.474 147.306 210.956 147.152 211.472 147.231L310.72 163.94C311.102 164.001 311.482 164.19 311.812 164.483C312.141 164.776 312.405 165.159 312.57 165.583C312.742 166 312.813 166.44 312.775 166.854C312.737 167.267 312.592 167.636 312.357 167.916L223.527 272.658C223.369 272.854 223.17 273.003 222.943 273.096C222.717 273.188 222.466 273.223 222.208 273.198C221.949 273.172 221.688 273.087 221.438 272.947C221.189 272.808 220.958 272.616 220.758 272.385L220.335 271.808Z" fill="white"/>
<path d="M218.787 301.02C218.554 300.58 218.437 300.094 218.452 299.63C218.467 299.165 218.613 298.748 218.871 298.437L317.043 182.551L308.979 166.949C308.692 166.395 308.591 165.774 308.698 165.223C308.804 164.672 309.11 164.236 309.547 164.012C309.995 163.809 310.53 163.829 311.042 164.068C311.553 164.308 312.003 164.748 312.298 165.299L321.14 182.407C321.363 182.85 321.469 183.335 321.444 183.794C321.42 184.254 321.265 184.663 321.002 184.965L221.946 301.886C221.788 302.083 221.589 302.232 221.363 302.325C221.136 302.417 220.886 302.452 220.627 302.427C220.369 302.401 220.107 302.316 219.858 302.176C219.609 302.037 219.377 301.845 219.177 301.614L218.787 301.02Z" fill="white"/>
<path d="M138.396 235.316C138.199 234.95 138.092 234.545 138.086 234.152C138.062 233.565 138.239 233.035 138.581 232.673C138.922 232.31 139.401 232.143 139.918 232.207L218.779 244.665C219.297 244.753 219.805 245.065 220.195 245.535C220.586 246.006 220.83 246.598 220.875 247.188C220.895 247.781 220.712 248.315 220.366 248.68C220.019 249.045 219.534 249.213 219.011 249.15L140.042 236.483C139.731 236.436 139.419 236.306 139.133 236.103C138.847 235.9 138.595 235.631 138.396 235.316Z" fill="white"/>
<path d="M159.714 215.541C159.513 215.176 159.404 214.769 159.404 214.377C159.37 213.785 159.543 213.248 159.887 212.883C160.23 212.518 160.715 212.356 161.236 212.432L240.172 225.116C240.444 225.128 240.723 225.207 240.989 225.347C241.256 225.486 241.504 225.684 241.718 225.927C241.933 226.169 242.108 226.451 242.234 226.755C242.359 227.059 242.432 227.377 242.446 227.69C242.461 228.002 242.418 228.302 242.32 228.569C242.221 228.837 242.07 229.066 241.876 229.242C241.681 229.418 241.448 229.537 241.19 229.592C240.933 229.646 240.658 229.635 240.382 229.559L161.521 217.101C161.154 217.035 160.79 216.853 160.47 216.578C160.151 216.302 159.889 215.943 159.714 215.541Z" fill="white"/>
<path d="M180.944 195.758C180.751 195.39 180.644 194.986 180.634 194.594C180.616 194.3 180.651 194.017 180.735 193.761C180.819 193.506 180.951 193.282 181.124 193.105C181.297 192.927 181.507 192.799 181.741 192.728C181.975 192.657 182.229 192.644 182.487 192.691L261.456 205.357C261.944 205.492 262.405 205.824 262.751 206.287C263.097 206.751 263.303 207.313 263.33 207.866C263.356 208.419 263.2 208.923 262.893 209.28C262.586 209.637 262.149 209.823 261.667 209.8L182.806 197.343C182.429 197.28 182.055 197.097 181.725 196.817C181.396 196.537 181.125 196.17 180.944 195.758Z" fill="white"/>
<path d="M202.228 175.999C202.036 175.631 201.928 175.228 201.919 174.835C201.901 174.541 201.935 174.258 202.019 174.003C202.103 173.747 202.236 173.524 202.409 173.346C202.581 173.169 202.791 173.04 203.025 172.969C203.26 172.898 203.513 172.885 203.772 172.932L282.633 185.39C283.158 185.484 283.67 185.807 284.06 186.289C284.45 186.772 284.686 187.375 284.718 187.971C284.736 188.265 284.702 188.548 284.618 188.804C284.534 189.06 284.401 189.283 284.228 189.46C284.056 189.638 283.846 189.766 283.612 189.837C283.378 189.908 283.124 189.921 282.865 189.875L203.896 177.208C203.578 177.159 203.261 177.023 202.971 176.813C202.68 176.602 202.426 176.323 202.228 175.999Z" fill="white"/>
<path d="M127.444 214.53C127.298 214.236 127.206 213.921 127.176 213.608L115.569 131.504C115.524 131.207 115.531 130.914 115.589 130.643C115.647 130.371 115.756 130.128 115.909 129.926C116.061 129.724 116.255 129.568 116.478 129.468C116.701 129.368 116.948 129.325 117.205 129.342C117.461 129.348 117.724 129.414 117.977 129.534C118.231 129.655 118.471 129.828 118.683 130.043C118.895 130.259 119.076 130.513 119.214 130.791C119.353 131.069 119.446 131.365 119.489 131.662L131.042 213.742C131.241 214.341 131.235 214.962 131.027 215.466C130.818 215.97 130.422 216.317 129.928 216.43C129.433 216.544 128.88 216.414 128.389 216.07C127.899 215.727 127.511 215.197 127.312 214.597L127.444 214.53Z" fill="white"/>
<path d="M149.573 199.311C149.396 199.052 149.25 198.769 149.141 198.475L137.633 116.32C137.575 116.012 137.571 115.706 137.622 115.421C137.672 115.135 137.777 114.877 137.928 114.661C138.079 114.445 138.275 114.276 138.502 114.165C138.729 114.053 138.984 114.002 139.25 114.014C139.515 114.026 139.787 114.101 140.048 114.234C140.308 114.368 140.553 114.556 140.765 114.789C140.978 115.021 141.155 115.292 141.285 115.586C141.414 115.879 141.495 116.189 141.52 116.495L153.105 198.558C153.304 199.157 153.299 199.777 153.09 200.281C152.881 200.785 152.486 201.132 151.992 201.246C151.497 201.359 150.943 201.23 150.453 200.886C149.962 200.542 149.575 200.012 149.375 199.413L149.573 199.311Z" fill="white"/>
<path d="M167.511 174.126C167.364 173.833 167.273 173.518 167.243 173.205L155.637 91.101C155.591 90.8038 155.598 90.5109 155.656 90.2397C155.714 89.9686 155.823 89.7249 155.976 89.523C156.129 89.3211 156.322 89.1654 156.545 89.0651C156.768 88.9647 157.015 88.9216 157.272 88.9387C157.528 88.9454 157.791 89.011 158.044 89.1314C158.298 89.2519 158.538 89.4249 158.75 89.6406C158.963 89.8563 159.143 90.1104 159.281 90.3882C159.42 90.6661 159.513 90.9622 159.556 91.2595L171.108 173.338C171.153 173.636 171.147 173.929 171.09 174.201C171.033 174.473 170.926 174.718 170.776 174.923C170.626 175.128 170.436 175.288 170.216 175.395C169.996 175.501 169.75 175.551 169.494 175.543C169.115 175.525 168.727 175.382 168.375 175.131C168.024 174.88 167.724 174.532 167.511 174.126Z" fill="white"/>
<path d="M189.9 156.183C189.708 155.933 189.561 155.647 189.468 155.346L177.927 73.208C177.852 72.892 177.834 72.5743 177.873 72.2755C177.913 71.9767 178.011 71.7035 178.159 71.4739C178.307 71.2442 178.503 71.0631 178.734 70.9425C178.964 70.8219 179.225 70.7645 179.498 70.7739C179.771 70.7833 180.051 70.8594 180.319 70.9973C180.588 71.1351 180.838 71.3316 181.055 71.5739C181.271 71.8162 181.449 72.0988 181.576 72.4034C181.703 72.7079 181.777 73.0277 181.793 73.3417L193.366 155.463C193.411 155.76 193.405 156.053 193.348 156.325C193.291 156.597 193.184 156.843 193.034 157.047C192.884 157.252 192.694 157.413 192.474 157.519C192.254 157.625 192.008 157.675 191.752 157.667C191.386 157.609 191.021 157.44 190.696 157.179C190.37 156.918 190.095 156.574 189.9 156.183Z" fill="white"/>
</g>
<defs>
<filter id="filter0_f_52_35" x="-20" y="-20" width="389.331" height="393.145" filterUnits="userSpaceOnUse" color-interpolation-filters="sRGB">
<feFlood flood-opacity="0" result="BackgroundImageFix"/>
<feBlend mode="normal" in="SourceGraphic" in2="BackgroundImageFix" result="shape"/>
<feGaussianBlur stdDeviation="10" result="effect1_foregroundBlur_52_35"/>
</filter>
</defs>
</svg>
