<svg width="500" height="330" viewBox="0 0 500 330" fill="none" xmlns="http://www.w3.org/2000/svg">
<path d="M189.67 293.637H71.02V313.911H189.67V293.637Z" stroke="white" stroke-width="2" stroke-miterlimit="10" stroke-linecap="round" stroke-linejoin="round"/>
<path d="M161.707 293.636H71.02V313.909H161.707V293.636Z" stroke="white" stroke-width="2" stroke-miterlimit="10" stroke-linecap="round" stroke-linejoin="round"/>
<path d="M204.525 313.906H292.874V220.463H204.525V313.906Z" stroke="white" stroke-width="2" stroke-miterlimit="10" stroke-linecap="round" stroke-linejoin="round"/>
<path d="M204.526 313.906H272.052V220.463H204.526V313.906Z" stroke="white" stroke-width="2" stroke-miterlimit="10" stroke-linecap="round" stroke-linejoin="round"/>
<path d="M322.846 91.9659C316.863 92.8305 310.816 93.9442 308.04 94.4739C305.533 94.9524 298.793 92.677 292.21 90.0651C288.325 88.524 285.616 87.3607 282.743 86.0803" stroke="white" stroke-width="2" stroke-miterlimit="10" stroke-linecap="round" stroke-linejoin="round"/>
<path d="M280.871 97.4902C282.216 98.2525 282.703 98.0512 288.521 99.2376C288.521 99.2376 288.521 99.2376 288.523 99.2376C296.551 100.874 306.034 102.297 309.263 101.797C311.294 101.482 314.813 100.401 319.098 98.8333" stroke="white" stroke-width="2" stroke-miterlimit="10" stroke-linecap="round" stroke-linejoin="round"/>
<path d="M319.143 186.643C314.893 181.774 303.107 167.881 300.982 161.436C299.583 157.202 290.648 155.372 281.312 152.983C279.175 152.435 277.017 151.86 274.923 151.218" stroke="white" stroke-width="2" stroke-miterlimit="10" stroke-linecap="round" stroke-linejoin="round"/>
<path d="M283.597 130.937C287.275 133.322 290.323 135.371 294.07 138.011C303.105 144.376 311.135 150.882 312.345 154.623C315.045 162.979 320.632 178.736 323.598 186.154" stroke="white" stroke-width="2" stroke-miterlimit="10" stroke-linecap="round" stroke-linejoin="round"/>
<path d="M319.152 193.614H321.232C321.929 193.506 322.444 193.306 323.159 193.213C324.244 193.073 324.744 193.514 324.844 193.614C324.857 193.628 324.864 193.636 324.864 193.636H333.7C333.922 193.322 333.709 192.593 333.5 192.058C333.36 191.694 333.052 191.418 332.674 191.309C331.737 191.04 329.889 190.801 328.197 189.285C327.245 188.433 323.6 186.153 323.6 186.153L323.58 186.148C323.5 186.15 323.119 186.265 321.462 187.651C320.605 188.366 319.144 186.642 319.144 186.642C319.144 186.642 318.869 186.866 318.665 187.285C318.5 187.615 318.38 188.069 318.475 188.628C318.607 189.417 318.182 190.882 317.842 191.872C317.637 192.473 317.462 192.898 317.462 192.898C317.462 192.898 317.362 193.393 319.152 193.614Z" stroke="white" stroke-width="2" stroke-miterlimit="10" stroke-linecap="round" stroke-linejoin="round"/>
<path d="M241.44 213.47C240.884 206.179 240.61 186.138 251.654 173.971C251.8 173.809 251.917 173.621 251.932 173.405C251.934 173.403 251.934 173.402 251.934 173.398C252.117 171.151 252.774 161.085 254.2 150.886C254.552 148.383 254.948 145.875 255.395 143.471C255.423 143.317 255.453 143.165 255.48 143.014C256.185 139.276 257.133 135.376 257.845 132.893" stroke="white" stroke-width="2" stroke-miterlimit="10" stroke-linecap="round" stroke-linejoin="round"/>
<path d="M277.559 143.141C275.442 149.249 274.387 153.003 270.967 161.07C270.215 162.842 269.45 164.584 268.68 166.262C265.835 172.47 262.924 177.791 260.359 180.494C256.765 184.284 249.05 204.425 245.877 212.977" stroke="white" stroke-width="2" stroke-miterlimit="10" stroke-linecap="round" stroke-linejoin="round"/>
<path d="M241.448 220.444H243.528C244.225 220.335 244.74 220.135 245.455 220.043C246.54 219.902 247.04 220.341 247.14 220.444C247.153 220.457 247.16 220.463 247.16 220.463H255.997C256.218 220.148 256.005 219.421 255.797 218.886C255.657 218.521 255.348 218.246 254.97 218.137C254.033 217.868 252.185 217.629 250.493 216.112C249.542 215.261 245.897 212.981 245.897 212.981L245.877 212.976C245.797 212.977 245.415 213.093 243.758 214.479C242.902 215.193 241.44 213.469 241.44 213.469C241.44 213.469 241.167 213.693 240.962 214.112C240.797 214.442 240.677 214.896 240.772 215.456C240.903 216.244 240.478 217.709 240.138 218.699C239.932 219.3 239.758 219.726 239.758 219.726C239.758 219.726 239.658 220.221 241.448 220.444Z" stroke="white" stroke-width="2" stroke-miterlimit="10" stroke-linecap="round" stroke-linejoin="round"/>
<path d="M251.91 107.333C250.7 109.192 249.385 111.048 247.636 113.428C247.636 113.428 247.636 113.428 247.635 113.428C242.813 119.99 236.766 127.362 234.04 129.144C231.011 131.122 221.318 135.077 214.643 137.196" stroke="white" stroke-width="2" stroke-miterlimit="10" stroke-linecap="round" stroke-linejoin="round"/>
<path d="M211.027 133.982L212.94 133.919C218.43 130.01 226.892 124.77 229.964 122.912C232.142 121.593 235.579 115.421 238.67 109.101C239.752 106.889 240.619 105.039 241.547 102.993" stroke="white" stroke-width="2" stroke-miterlimit="10" stroke-linecap="round" stroke-linejoin="round"/>
<path d="M259.129 75.9727L259.857 76.1938C259.857 76.1938 259.837 73.8739 261.349 74.0356C263.705 74.2881 265.667 68.5593 262.169 63.5086C261.79 62.9625 261.407 62.4807 261.027 62.0467C261.499 62.0566 262.01 62.0104 262.434 61.8372C263.554 61.3785 264.064 57.8607 263.895 56.8179C263.727 55.7751 262.095 52.4338 262.095 52.4338L262.074 52.4635C261.029 53.8759 259.524 54.8907 257.812 55.3345C258.165 53.8132 259.89 53.1202 259.89 53.1202C253.209 54.3396 253.614 57.496 253.66 57.9036C247.544 55.747 243.954 67.1485 243.954 67.1485" stroke="white" stroke-width="2" stroke-miterlimit="10" stroke-linecap="round" stroke-linejoin="round"/>
<path d="M259.857 76.1938C260.234 76.8241 261.032 78.1458 261.482 78.8421C262.494 80.3848 263.559 81.7725 264.027 81.7213" stroke="white" stroke-width="2" stroke-miterlimit="10" stroke-linecap="round" stroke-linejoin="round"/>
<path d="M254.93 86.3922C255.242 86.0836 254.99 85.4995 254.705 84.2917C254.53 83.5179 254.154 82.4553 253.642 81.3613" stroke="white" stroke-width="2" stroke-miterlimit="10" stroke-linecap="round" stroke-linejoin="round"/>
<path d="M246.005 75.6492C246.325 77.7183 249.632 82.8811 252.083 82.0924C252.083 82.0924 260.945 78.634 259.05 73.1774C259.015 73.0751 258.253 71.1067 258.21 71.0044" stroke="white" stroke-width="2" stroke-miterlimit="10" stroke-linecap="round" stroke-linejoin="round"/>
<path d="M246.483 65.4619C246.268 65.7391 244.006 66.2539 243.303 68.5227C242.246 71.9299 246.005 75.649 246.005 75.649C246.916 75.3933 245.888 72.3573 245.745 70.737C245.64 69.544 246.288 68.0178 246.64 67.2951C247.09 67.8726 251.568 73.4446 257.036 73.6674C257.036 73.6674 254.518 72.0636 251.888 70.1232C253.195 70.7601 255.103 71.3095 256.4 71.128C260.645 70.534 260.998 69.2932 260.998 69.2932" stroke="white" stroke-width="2" stroke-miterlimit="10" stroke-linecap="round" stroke-linejoin="round"/>
<path d="M280.727 99.1137C280.648 98.8414 280.565 98.5593 280.477 98.2705C281.842 95.6866 282.513 93.3585 282.797 91.3867C283.42 87.2221 282.355 84.6514 282.355 84.6514C282.355 84.6514 275.977 81.3036 273.162 80.8779C273.15 80.873 273.138 80.868 273.127 80.868C273.093 80.863 273.055 80.8597 273.013 80.8581C270.17 80.4703 264.017 81.7144 264.017 81.7144C264.017 81.7144 265.203 84.8429 261.855 86.9284C258.507 89.014 254.928 86.3938 254.928 86.3938C254.82 86.4664 254.705 86.5456 254.588 86.6281C254.588 86.6281 245.775 92.385 244.985 93.7C244.194 95.0151 240.805 101.529 240.805 101.529C240.805 101.529 241.88 106.997 253.785 107.454C254.763 109.804 255.513 112.096 255.757 114.008C256.702 121.43 255.605 127.286 256.707 131.619C257.808 135.952 277.672 133.48 281.268 132.647C284.865 131.813 284.057 128.01 284.333 124.316C284.68 119.671 281.898 103.209 280.727 99.1137Z" stroke="white" stroke-width="2" stroke-miterlimit="10" stroke-linecap="round" stroke-linejoin="round"/>
<path d="M276.827 89.6907C278.878 91.9528 280.15 96.9391 280.462 98.302" stroke="white" stroke-width="2" stroke-miterlimit="10" stroke-linecap="round" stroke-linejoin="round"/>
<path d="M202.793 138.831C202.793 138.831 205.622 135.592 206.418 135.067C207.215 134.542 210.71 133.622 210.91 133.808C211.11 133.993 211.118 134.262 210.685 134.64C210.252 135.018 208.598 135.973 208.835 136.082C209.072 136.189 214.058 133.732 214.777 134.559C215.495 135.386 214.37 138.798 212.448 140.435C210.527 142.07 204.86 142.994 204.498 143.221" stroke="white" stroke-width="2" stroke-miterlimit="10" stroke-linecap="round" stroke-linejoin="round"/>
<path d="M149.772 131.177C150.364 128.268 150.645 125.332 150.49 122.366" stroke="white" stroke-width="2" stroke-miterlimit="10" stroke-linecap="round" stroke-linejoin="round"/>
<path d="M140.122 119.287C139.833 121.77 140 124.41 138.745 126.667" stroke="white" stroke-width="2" stroke-miterlimit="10" stroke-linecap="round" stroke-linejoin="round"/>
<path d="M140.427 119.003C143.167 122.925 148.833 123.255 152.833 121.44C153.833 120.945 154.167 119.625 154.333 118.47C154.5 115.17 154.5 111.87 153.853 108.625" stroke="white" stroke-width="2" stroke-miterlimit="10" stroke-linecap="round" stroke-linejoin="round"/>
<path d="M140.13 119.165C139.975 119.262 137.545 120.001 132.943 110.926C132.222 109.502 131.728 106.42 133.413 103.696C135.097 100.974 141.068 98.8319 146.028 97.8996C150.988 96.9674 152.18 99.7311 153.348 102.508C154.575 105.424 158.117 107.823 158.117 107.823C153.838 110.189 148.687 106.805 146.902 107.361C145.117 107.917 144.487 110.702 144.352 111.595C144.218 112.487 144.012 113.228 141.767 112.431C139.522 111.634 140.752 115.581 141.112 116.335C141.113 116.338 141.418 118.348 140.13 119.165Z" stroke="white" stroke-width="2" stroke-miterlimit="10" stroke-linecap="round" stroke-linejoin="round"/>
<path d="M106.171 280.912C106.23 282.102 106.261 283.478 106.193 284.684C106.033 287.562 106.996 290.661 109.545 291.22C112.095 291.779 111.04 293.636 111.04 293.636H104.201C102.768 293.636 101.175 292.195 100.776 289.56C100.378 286.922 97.4314 285.485 96.7931 283.326C96.1548 281.168 99.4231 278.131 99.4231 278.131L99.7798 277.282" stroke="white" stroke-width="2" stroke-miterlimit="10" stroke-linecap="round" stroke-linejoin="round"/>
<path d="M146.838 285.51V285.511C147.945 289.234 152.89 290.925 155.748 291.397C157.932 291.758 158.497 293.055 158.643 293.703H140.517C140.343 293.669 140.212 293.631 140.132 293.59C138.922 292.972 139.3 288.25 139.447 286.79" stroke="white" stroke-width="2" stroke-miterlimit="10" stroke-linecap="round" stroke-linejoin="round"/>
<path d="M154.303 197.951C154 203.28 153.5 208.395 153.166 213.675C153 215.82 152.833 218.13 152.666 220.275C152.5 221.1 152.5 221.76 152.333 222.585C152.333 223.905 152.166 225.39 152.166 226.71C151 241.89 149.667 256.74 148.833 271.92C148.667 276.21 148.167 280.5 147.667 284.79C147 285.45 146.333 285.945 145.5 286.275C143.167 286.77 140.667 287.43 138.5 286.275C138.5 286.275 138.5 285.945 138.5 285.78C138.167 285.12 138 284.46 137.833 283.8C135.833 277.035 134.167 270.765 133.333 263.835C130.5 240.24 129.667 217.305 128.255 193.865" stroke="white" stroke-width="2" stroke-miterlimit="10" stroke-linecap="round" stroke-linejoin="round"/>
<path d="M122.083 190.629C121.667 195.03 121.333 199.32 120.667 203.94C120 207.735 119.167 211.2 118 214.665C116.833 217.8 115.833 220.77 114 223.74C112.833 225.39 112.167 227.04 111 228.69C110.333 229.35 109.833 230.01 109.333 230.835C108.5 232.815 107.667 234.63 107 236.61C104.333 245.85 102.5 254.595 100.833 264.165C100.167 268.455 99.5 272.415 99.5 276.54C99.5 276.87 99.6667 277.2 100 277.53C101.833 279.18 104 280.335 106.333 280.995C106.5 280.995 106.667 280.995 106.833 280.83C108 279.345 108.5 277.695 109.667 276.21C114 269.445 117 262.515 121.333 256.08C124.5 249.81 128 243.705 130.717 237.295" stroke="white" stroke-width="2" stroke-miterlimit="10" stroke-linecap="round" stroke-linejoin="round"/>
<path d="M110.47 185.813C110.32 187.432 110.076 189.785 109.84 190.382C109.508 191.212 107.303 193.786 107.048 193.75C106.793 193.713 106.64 193.51 106.77 192.986C106.9 192.462 107.66 190.842 107.418 190.885C107.176 190.928 104.653 195.487 103.646 195.23C102.641 194.972 101.658 191.732 102.256 189.441C102.855 187.151 106.345 184.508 106.5 184.14" stroke="white" stroke-width="2" stroke-miterlimit="10" stroke-linecap="round" stroke-linejoin="round"/>
<path d="M127.628 141.806C122.5 148.17 117.667 154.275 113 161.37C111.333 163.845 110.333 166.32 109.333 169.125C107.667 174.075 107 179.025 106.5 184.14C107.5 185.46 109.5 186.285 111.167 185.625C114.667 179.355 117.833 173.25 121.833 166.815C122.5 165.825 123.333 165.165 124.333 164.505C124.5 164.34 124.667 164.01 124.87 163.868" stroke="white" stroke-width="2" stroke-miterlimit="10" stroke-linecap="round" stroke-linejoin="round"/>
<path d="M158.698 153.831C158.833 159.225 158.5 164.835 158.167 170.28C157.333 179.355 156.5 188.595 155 197.505C153.833 198.33 152.5 198 151.167 198C147.167 198.33 143.167 198 139 197.175C136.167 196.68 133.5 196.02 130.833 194.7C130.5 194.535 130.333 194.7 130 194.535C127.333 193.215 124.333 192.39 122 190.245C121.167 189.42 121.5 188.1 121.667 186.945C123 177.54 124.833 168.465 125.333 159.06C125.5 156.255 125.833 153.45 126.167 150.48C126.333 148.665 126.833 147.015 127 145.2C127.5 142.89 128.167 140.91 128.833 138.765C129.167 137.775 129.667 136.95 130 135.96C131.5 132.66 133 129.36 136 127.05C136.5 126.72 137.167 126.555 137.667 126.72C139.333 127.05 140.667 128.04 142 129.03C144.5 130.515 147.167 131.835 150 131.175C151.333 132.33 152.5 133.815 153.725 135.241" stroke="white" stroke-width="2" stroke-miterlimit="10" stroke-linecap="round" stroke-linejoin="round"/>
<path d="M148.427 152.44C149.167 152.46 149.833 152.46 150.5 152.46C154.833 153.12 159 153.78 163.333 154.275C163.833 154.275 164.5 154.605 165 154.605C169.833 155.1 174.667 155.43 179.5 154.935C180.667 154.77 181.667 154.44 182.833 154.11C183.167 153.945 183.5 153.615 183.833 153.45C184.833 153.12 186 152.79 187 152.46C191 150.645 194.667 148.83 198.667 146.85C200.5 145.86 202.167 145.035 203.834 143.88C204.167 143.715 204.334 143.55 204.5 143.22C204.667 142.89 204.667 142.395 204.667 142.065C204.334 140.745 204 139.425 202.667 138.765C200.667 138.93 198.667 139.425 196.667 139.92C191.167 141.405 186 142.56 180.333 143.88C177.667 144.54 175.167 143.55 172.667 142.56C170.333 141.405 167.667 140.745 165.167 139.92C161.5 138.435 157.37 136.593 153.725 135.24" stroke="white" stroke-width="2" stroke-miterlimit="10" stroke-linecap="round" stroke-linejoin="round"/>
<path d="M416.21 178.85L416.812 179.617C416.812 179.617 419.808 182.366 419.223 184.322C418.638 186.275 415.933 187.577 415.568 189.966C415.203 192.354 413.742 193.657 412.425 193.657C411.11 193.657 406.153 193.657 406.153 193.657C406.153 193.657 405.185 191.978 407.523 191.471C409.862 190.964 410.743 188.159 410.598 185.554C410.523 184.226 410.557 183.115 410.632 181.911" stroke="white" stroke-width="2" stroke-miterlimit="10" stroke-linecap="round" stroke-linejoin="round"/>
<path d="M380.09 187.272C380.227 188.575 380.574 192.779 379.464 193.329C379.16 193.481 378.09 193.585 376.625 193.654H362.44C362.489 193.236 362.819 191.746 365.137 191.377C367.757 190.954 372.297 189.448 373.309 186.13" stroke="white" stroke-width="2" stroke-miterlimit="10" stroke-linecap="round" stroke-linejoin="round"/>
<path d="M366.43 105.918C366.77 110.154 367.295 116.722 367.764 122.649C369.182 140.56 370.889 162.561 371.057 166.729C371.349 173.966 372.519 185.542 372.519 185.542C372.519 185.542 375.295 188.293 380.85 187.133C380.85 187.133 385.802 170.606 387.215 153.121C387.237 152.834 387.258 152.546 387.28 152.257C387.465 149.75 387.805 144.703 388.012 141.576" stroke="white" stroke-width="2" stroke-miterlimit="10" stroke-linecap="round" stroke-linejoin="round"/>
<path d="M372.105 105.212C376.69 116.325 388.123 143.476 396.42 158.19C406.945 176.858 410.233 182.069 410.233 182.069C410.233 182.069 416.263 179.682 416.812 178.053C416.812 178.053 412.787 142.012 405.738 133.228C401.755 128.263 397.077 113.365 396.858 108.154C396.702 104.447 396.202 99.5874 395.837 96.2676" stroke="white" stroke-width="2" stroke-miterlimit="10" stroke-linecap="round" stroke-linejoin="round"/>
<path d="M318.24 77.7942C316.87 77.5219 315.695 77.3025 315.443 77.319C314.712 77.3685 312.157 78.4278 312.122 78.6324C312.088 78.837 312.208 79.0036 312.65 79.0333C313.092 79.063 314.545 78.8782 314.453 79.0515C314.362 79.2264 310.173 80.0398 310.127 80.8747C310.08 81.7096 312.375 83.259 314.313 83.3629C316.252 83.4669 319.68 81.6139 320.007 81.5842" stroke="white" stroke-width="2" stroke-miterlimit="10" stroke-linecap="round" stroke-linejoin="round"/>
<path d="M350.034 70.7931C346.891 73.0553 344.436 74.7647 343.434 75.3323C336.607 79.2015 320.796 81.3911 320.796 81.3911C320.796 81.3911 319.721 80.4852 319.231 78.9441C318.609 76.9806 318.754 76.6688 318.754 76.6688C318.754 76.6688 336.354 67.2473 337.966 66.2919C338.784 65.8068 344.522 59.7332 349.339 54.7485" stroke="white" stroke-width="2" stroke-miterlimit="10" stroke-linecap="round" stroke-linejoin="round"/>
<path d="M337.803 28.0664C338.135 30.2609 343.368 40.0273 345.97 39.2006C345.97 39.2006 346.7 38.9185 347.708 38.3872C347.823 38.572 348.587 39.7732 350.062 41.6459C350.545 42.2564 351.105 42.9395 351.741 43.6837C350.595 45.6125 350.168 48.0496 350.013 49.2739" stroke="white" stroke-width="2" stroke-miterlimit="10" stroke-linecap="round" stroke-linejoin="round"/>
<path d="M358.272 35.6695C356.89 34.8825 355.465 33.9832 354.048 32.3728" stroke="white" stroke-width="2" stroke-miterlimit="10" stroke-linecap="round" stroke-linejoin="round"/>
<path d="M351.846 65.3482C349.806 59.5138 348.69 53.1085 349.718 49.4587C349.721 49.4406 349.728 49.4257 349.735 49.4076C355.886 46.591 358.271 35.6697 358.271 35.6697C358.271 35.6697 379.261 39.4003 391.018 67.0972C391.018 67.0972 399.806 90.7582 396.381 95.6356C392.445 101.239 363.013 108.725 363.363 104.846C363.496 103.363 363.676 100.744 363.36 97.1965C363.286 96.3649 363.183 95.4855 363.046 94.5532C362.395 90.1164 361.778 86.3824 358.805 80.0167" stroke="white" stroke-width="2" stroke-miterlimit="10" stroke-linecap="round" stroke-linejoin="round"/>
<path d="M328.574 91.1194C328.574 91.1194 324.465 91.2629 323.565 91.5847C322.665 91.9064 319.838 94.1389 319.868 94.4079C319.9 94.6768 320.112 94.8435 320.677 94.7247C321.242 94.6059 323 93.8584 322.949 94.1109C322.895 94.3617 317.932 96.8664 318.175 97.9306C318.419 98.9949 321.859 100.13 324.33 99.5757C326.802 99.0213 330.462 95.1124 330.864 94.9606" stroke="white" stroke-width="2" stroke-miterlimit="10" stroke-linecap="round" stroke-linejoin="round"/>
<path d="M374.038 56.1216C369.458 63.7611 360.22 78.9262 357.523 81.5167C351.52 87.2835 331.43 95.3404 331.43 95.3404C331.43 95.3404 330.09 94.6012 329.177 93.141C328.013 91.2814 328.852 90.4317 328.852 90.4317C328.852 90.4317 346.788 76.5288 348.195 75.123C349.602 73.7188 353.265 60.834 353.265 60.834" stroke="white" stroke-width="2" stroke-miterlimit="10" stroke-linecap="round" stroke-linejoin="round"/>
<path d="M354.667 18.3463C354.735 18.2127 354.933 18.0691 355.418 17.9223C355.418 17.9223 354.965 17.7705 354.437 17.886C354.163 17.2243 353.937 16.1551 352.723 15.7954C352.723 15.7954 352.963 16.2723 353.228 16.9818C351.517 15.9076 348.343 15.5958 340.423 18.2077C329.985 21.6496 335.2 27.649 336.782 28.1292C338.363 28.611 341.277 25.5238 343.897 25.1014C346.517 24.6807 347.933 28.2925 348.932 28.5928C349.93 28.8931 349.363 28.0698 350.408 27.2464C351.453 26.4231 352.055 28.3602 352.032 29.7198C352.008 31.0794 354.048 32.3697 354.048 32.3697C354.048 32.3697 354.048 32.3697 355.245 30.1983C356.44 28.0269 356.115 20.1432 354.973 18.7242C354.87 18.6004 354.77 18.4734 354.667 18.3463Z" stroke="white" stroke-width="2" stroke-miterlimit="10" stroke-linecap="round" stroke-linejoin="round"/>
<path d="M428.98 193.652H307.987V313.904H428.98V193.652Z" stroke="white" stroke-width="2" stroke-miterlimit="10" stroke-linecap="round" stroke-linejoin="round"/>
<path d="M400.467 193.654H307.987V313.906H400.467V193.654Z" stroke="white" stroke-width="2" stroke-miterlimit="10" stroke-linecap="round" stroke-linejoin="round"/>
</svg>
