<svg width="500" height="330" viewBox="0 0 500 330" fill="none" xmlns="http://www.w3.org/2000/svg">
<path d="M272.937 247.278H285.354" stroke="white" stroke-width="2" stroke-miterlimit="10" stroke-linecap="round" stroke-linejoin="round"/>
<path d="M285.354 323.658H267.54C258.632 323.658 250.717 312.425 247.575 298.407" stroke="white" stroke-width="2" stroke-miterlimit="10" stroke-linecap="round" stroke-linejoin="round"/>
<path d="M306.981 285.468C306.981 264.377 297.217 247.276 285.501 247.276C273.783 247.276 264.286 264.377 264.286 285.466C264.286 306.56 273.783 323.656 285.501 323.656C294.823 323.656 302.789 312.568 305.636 297.517" stroke="white" stroke-width="2" stroke-miterlimit="10" stroke-linecap="round" stroke-linejoin="round"/>
<path d="M142.316 323.658H124.504C115.595 323.658 107.68 312.425 104.538 298.407" stroke="white" stroke-width="2" stroke-miterlimit="10" stroke-linecap="round" stroke-linejoin="round"/>
<path d="M122.497 298.406C125.498 312.932 133.346 323.658 142.463 323.658C150.591 323.658 157.951 314.305 161.522 302.171" stroke="white" stroke-width="2" stroke-miterlimit="10" stroke-linecap="round" stroke-linejoin="round"/>
<path d="M285.499 257.482C294.072 257.482 301.046 270.019 301.046 285.468C301.046 300.918 294.072 313.454 285.499 313.454C276.925 313.454 269.951 300.917 269.951 285.468C269.951 270.019 276.925 257.482 285.499 257.482Z" stroke="white" stroke-width="2" stroke-miterlimit="10" stroke-linecap="round" stroke-linejoin="round"/>
<path d="M271.548 275.092C274.163 277.109 276.78 279.128 279.394 281.146C279.772 280.714 280.179 280.137 280.556 279.417C281.137 278.293 281.341 277.254 281.428 276.534C281.078 274.573 280.528 272.326 279.684 269.903C278.783 267.309 277.766 265.12 276.778 263.274" stroke="white" stroke-width="2" stroke-miterlimit="10" stroke-linecap="round" stroke-linejoin="round"/>
<path d="M270.969 293.826C273.673 292.47 276.404 291.147 279.106 289.791C279.571 290.34 280.095 291.117 280.559 292.097C281.081 293.221 281.315 294.229 281.432 294.98C280.82 296.767 279.979 298.841 278.817 301.032C277.655 303.194 276.463 305.01 275.328 306.509" stroke="white" stroke-width="2" stroke-miterlimit="10" stroke-linecap="round" stroke-linejoin="round"/>
<path d="M285.789 313.138C285.876 308.153 285.992 303.138 286.08 298.151C286.312 297.748 286.689 297.229 287.242 296.711C287.882 296.106 288.521 295.759 288.984 295.557C289.595 296.711 290.176 297.978 290.729 299.305C292.123 302.62 293.023 305.761 293.635 308.528" stroke="white" stroke-width="2" stroke-miterlimit="10" stroke-linecap="round" stroke-linejoin="round"/>
<path d="M299.738 293.826C298.546 293.277 297.297 292.587 295.96 291.808C294.68 291.03 293.519 290.251 292.471 289.501C292.241 288.809 291.949 287.83 291.89 286.62C291.805 285.294 292.008 284.199 292.182 283.449C292.879 282.872 293.635 282.295 294.505 281.718C296.482 280.392 298.371 279.499 300.026 278.837" stroke="white" stroke-width="2" stroke-miterlimit="10" stroke-linecap="round" stroke-linejoin="round"/>
<path d="M286.661 258.373C286.574 263.475 286.458 268.549 286.37 273.65C286.633 274.082 287.069 274.744 287.823 275.379C288.608 276.013 289.364 276.36 289.857 276.531C290.468 275.262 291.049 273.911 291.6 272.497C292.849 269.325 293.809 266.33 294.506 263.56" stroke="white" stroke-width="2" stroke-miterlimit="10" stroke-linecap="round" stroke-linejoin="round"/>
<path d="M448.63 257.482C457.203 257.482 464.177 270.019 464.177 285.468C464.177 300.918 457.203 313.454 448.63 313.454C440.056 313.454 433.082 300.917 433.082 285.468C433.082 270.019 440.056 257.482 448.63 257.482Z" stroke="white" stroke-width="2" stroke-miterlimit="10" stroke-linecap="round" stroke-linejoin="round"/>
<path d="M434.68 275.092C437.295 277.109 439.912 279.128 442.526 281.146C442.903 280.714 443.311 280.137 443.688 279.417C444.269 278.293 444.473 277.254 444.56 276.534C444.21 274.573 443.659 272.326 442.816 269.903C441.915 267.309 440.898 265.12 439.91 263.274" stroke="white" stroke-width="2" stroke-miterlimit="10" stroke-linecap="round" stroke-linejoin="round"/>
<path d="M434.099 293.826C436.803 292.47 439.534 291.147 442.236 289.791C442.701 290.34 443.225 291.117 443.689 292.097C444.211 293.221 444.445 294.229 444.561 294.98C443.952 296.767 443.108 298.841 441.947 301.032C440.785 303.194 439.593 305.01 438.458 306.509" stroke="white" stroke-width="2" stroke-miterlimit="10" stroke-linecap="round" stroke-linejoin="round"/>
<path d="M448.919 313.138C449.007 308.153 449.123 303.138 449.211 298.151C449.443 297.748 449.822 297.229 450.372 296.711C451.012 296.106 451.652 295.759 452.115 295.557C452.726 296.711 453.307 297.978 453.859 299.305C455.254 302.62 456.154 305.761 456.766 308.528" stroke="white" stroke-width="2" stroke-miterlimit="10" stroke-linecap="round" stroke-linejoin="round"/>
<path d="M462.869 293.826C461.677 293.277 460.428 292.587 459.091 291.808C457.811 291.03 456.65 290.251 455.602 289.501C455.372 288.809 455.08 287.83 455.021 286.62C454.936 285.294 455.137 284.199 455.313 283.449C456.01 282.872 456.766 282.295 457.638 281.718C459.615 280.392 461.504 279.499 463.159 278.837" stroke="white" stroke-width="2" stroke-miterlimit="10" stroke-linecap="round" stroke-linejoin="round"/>
<path d="M449.793 258.373C449.705 263.475 449.589 268.549 449.501 273.65C449.764 274.082 450.2 274.744 450.955 275.379C451.739 276.013 452.495 276.36 452.988 276.531C453.6 275.262 454.181 273.911 454.731 272.497C455.98 269.325 456.94 266.33 457.637 263.56" stroke="white" stroke-width="2" stroke-miterlimit="10" stroke-linecap="round" stroke-linejoin="round"/>
<path d="M433.082 247.373L447.801 247.276" stroke="white" stroke-width="2" stroke-miterlimit="10" stroke-linecap="round" stroke-linejoin="round"/>
<path d="M447.802 323.658H429.989C420.567 323.658 412.628 312.881 409.863 297.572" stroke="white" stroke-width="2" stroke-miterlimit="10" stroke-linecap="round" stroke-linejoin="round"/>
<path d="M466.031 263.543C462.419 252.395 454.574 247.278 447.947 247.278C436.231 247.278 426.734 264.378 426.734 285.468C426.734 306.561 436.231 323.658 447.947 323.658C459.665 323.658 469.162 306.56 469.162 285.468C469.162 282.367 469.235 281.895 468.81 278.932" stroke="white" stroke-width="2" stroke-miterlimit="10" stroke-linecap="round" stroke-linejoin="round"/>
<path d="M120.266 288.473C113.607 288.181 108.116 287.725 100.08 286.861C95.1395 286.343 91.4774 285.104 89.3273 284.267C88.4551 283.922 87.7581 283.605 87.2934 283.403C86.5964 280.406 85.9851 276.688 85.8403 272.451C85.6651 267.61 86.1012 263.402 86.7125 260.059C92.6981 266.658 94.7625 269.887 95.4309 271.588C95.5756 271.991 96.0993 273.404 97.4648 274.471C98.5694 275.308 99.7025 275.538 100.08 275.624C106.256 276.859 110.906 277.431 117.387 277.855" stroke="white" stroke-width="2" stroke-miterlimit="10" stroke-linecap="round" stroke-linejoin="round"/>
<path d="M163.01 277.799C174.149 277.359 186.935 276.773 192.783 276.2C193.684 276.113 195.137 275.912 196.851 275.335C198.508 274.786 199.641 274.124 200.049 273.892C204.96 271.068 210.134 268.647 214.871 265.535C219.114 262.767 227.977 259.682 248.58 258.615C245.617 265.303 243.871 270.491 242.768 274.179C242.1 276.428 241.315 279.311 238.698 281.387C237.072 282.684 235.444 283.087 232.597 283.692C223.124 285.738 220.683 285.998 220.683 285.998C210.134 287.065 204.874 287.612 202.084 287.727C188.239 288.281 177.71 288.408 165.657 288.551" stroke="white" stroke-width="2" stroke-miterlimit="10" stroke-linecap="round" stroke-linejoin="round"/>
<path d="M161.95 270.365C166.323 269.741 166.683 269.273 167.804 268.751C172.133 266.705 174.75 263.823 176.814 261.257C179.429 257.97 183.323 252.235 185.824 243.676C185.329 242.32 184.866 240.995 184.371 239.639C177.281 239.588 172.331 239.545 165.241 239.484" stroke="white" stroke-width="2" stroke-miterlimit="10" stroke-linecap="round" stroke-linejoin="round"/>
<path d="M118.113 239.352C114.072 239.352 111.111 239.352 107.07 239.352C106.11 240.792 105.123 242.233 104.164 243.675C104.164 251.341 105.994 256.905 107.359 260.104C108.319 262.382 109.538 264.657 112.01 266.733C113.156 267.702 113.703 268.27 115.969 269.031" stroke="white" stroke-width="2" stroke-miterlimit="10" stroke-linecap="round" stroke-linejoin="round"/>
<path d="M121.481 229.148C116.903 229.195 114.256 229.224 109.683 229.265C109.683 227.708 109.683 226.124 109.683 224.567C110.643 223.443 111.629 222.318 112.589 221.194C117.032 221.194 120.824 221.194 125.427 221.194" stroke="white" stroke-width="2" stroke-miterlimit="10" stroke-linecap="round" stroke-linejoin="round"/>
<path d="M174.198 221.194C180.408 221.194 184.55 221.194 190.762 221.194C191.983 222.404 193.175 223.584 194.396 224.797C193.291 226.179 192.158 227.593 191.054 228.977C183.503 228.977 177.294 228.977 169.734 228.977" stroke="white" stroke-width="2" stroke-miterlimit="10" stroke-linecap="round" stroke-linejoin="round"/>
<path d="M100.967 242.235C101.315 236.268 101.49 231.426 101.547 228.112C101.664 222.203 101.664 219.32 102.128 214.854C102.593 210.301 103.32 206.583 103.873 204.188C101.083 205.774 94.3411 210.156 91.0865 218.6C89.7211 222.116 87.0187 229.12 90.7951 235.316C93.846 240.302 99.2792 241.83 100.967 242.235Z" stroke="white" stroke-width="2" stroke-miterlimit="10" stroke-linecap="round" stroke-linejoin="round"/>
<path d="M279.105 193.235C273.029 201.276 267.509 207.761 262.772 212.95C258.558 217.563 254.926 221.108 252.077 223.789C249.375 226.325 246.874 228.487 243.359 230.706C239.756 232.984 234.321 235.752 218.657 239.066C212.816 240.305 205.027 241.745 195.699 242.812C197.268 239.643 199.769 235.088 203.545 230.131C217.204 212.147 235.162 204.739 244.521 201.019C248.967 199.262 254.837 197.245 261.957 195.688C267.044 194.56 272.799 193.668 279.105 193.235Z" stroke="white" stroke-width="2" stroke-miterlimit="10" stroke-linecap="round" stroke-linejoin="round"/>
<path d="M262.774 212.95C263.383 210.616 263.937 207.618 263.705 203.9C263.473 200.414 262.629 197.618 261.962 195.829C261.962 195.772 261.962 195.744 261.962 195.686C267.047 194.562 272.8 193.668 279.106 193.235C273.033 201.276 267.512 207.761 262.774 212.95Z" stroke="white" stroke-width="2" stroke-miterlimit="10" stroke-linecap="round" stroke-linejoin="round"/>
<path d="M270.361 137.871C274.421 137.82 274.372 137.856 278.333 137.869C291.963 137.927 304.981 138.415 317.303 139.194C311.113 145.938 306.781 151.905 303.936 156.2C300.854 160.84 297.716 165.395 294.635 170.035C291.41 174.907 289.578 177.703 285.916 180.123C282.486 182.371 279.234 183.121 276.907 183.583C263.364 186.292 247.266 186.177 247.266 186.177L220.822 186.752C220.822 186.752 214.275 186.856 210.523 186.896" stroke="white" stroke-width="2" stroke-miterlimit="10" stroke-linecap="round" stroke-linejoin="round"/>
<path d="M167.17 187.039C159.207 186.983 148.547 186.896 139.162 186.751C140.556 185.282 142.62 183.148 145.265 180.699C151.862 174.56 157.791 170.467 169.386 162.541C170.636 161.675 180.08 155.22 189.002 149.801C192.809 147.496 196.703 145.248 196.703 145.248C199.202 143.808 201.295 142.626 202.805 141.789C211.055 140.891 219.598 140.12 228.429 139.502" stroke="white" stroke-width="2" stroke-miterlimit="10" stroke-linecap="round" stroke-linejoin="round"/>
<path d="M400.01 145.111C404.522 146.557 408.007 148.007 410.393 149.063C410.683 149.206 410.945 149.323 411.206 149.438C411.64 149.64 412.048 149.841 412.484 150.043C416.554 151.974 419.953 153.876 422.539 155.49C423.613 158.718 424.63 162.811 425.154 167.596C425.821 173.533 425.474 178.663 424.891 182.554C423.903 182.669 422.886 182.784 421.869 182.871C420.281 183.046 417.628 183.357 416.017 183.55" stroke="white" stroke-width="2" stroke-miterlimit="10" stroke-linecap="round" stroke-linejoin="round"/>
<path d="M372.433 190.51C356.788 193.619 340.587 197.505 326.843 201.349C323.036 202.416 319.317 203.481 315.684 204.577C315.451 204.635 315.247 204.722 315.015 204.78C311.993 202.59 308.942 200.427 305.92 198.238C303.333 196.392 300.747 194.52 298.161 192.675C300.776 187.113 303.45 182.126 306.007 177.773C308.826 172.988 311.501 168.925 313.853 165.58C316.584 161.717 318.94 158.691 321.031 156.27C325.101 151.572 328.123 149.179 330.709 147.422C337.015 143.156 342.477 141.455 343.785 141.082C346.836 140.179 349.732 139.722 352.534 139.502" stroke="white" stroke-width="2" stroke-miterlimit="10" stroke-linecap="round" stroke-linejoin="round"/>
<path d="M320.866 156.462C322.521 162.976 323.974 170.033 325.021 177.959C325.295 180.044 325.633 182.533 325.834 184.55" stroke="white" stroke-width="2" stroke-miterlimit="10" stroke-linecap="round" stroke-linejoin="round"/>
<path d="M326.565 195.686C326.651 197.933 326.659 199.126 326.676 201.334" stroke="white" stroke-width="2" stroke-miterlimit="10" stroke-linecap="round" stroke-linejoin="round"/>
<path d="M421.673 182.888C420.25 177.441 418.565 171.762 416.56 165.853C414.554 159.886 412.404 154.266 410.226 149.049C410.515 149.192 410.778 149.309 411.039 149.424" stroke="white" stroke-width="2" stroke-miterlimit="10" stroke-linecap="round" stroke-linejoin="round"/>
<path d="M316.767 186.894C319.715 186.807 322.632 186.69 325.578 186.606C325.637 185.337 325.912 183.003 327.401 180.554C327.614 180.178 329.68 176.892 333.781 175.077C341.53 171.675 349.886 176.576 352.013 177.959C353.442 178.881 360.309 183.348 359.305 187.469C358.576 190.439 354.171 191.649 348.364 193.235C346.268 193.812 338.762 195.744 318.585 195.829C317.309 195.829 316.247 195.829 315.548 195.829C315.304 195.569 313.571 193.64 314.028 190.929C314.457 188.393 316.433 187.096 316.767 186.894Z" stroke="white" stroke-width="2" stroke-miterlimit="10" stroke-linecap="round" stroke-linejoin="round"/>
<path d="M225.556 235.506C231.45 234.565 235.554 229.648 234.722 224.526C233.889 219.401 228.437 216.011 222.543 216.952C216.649 217.893 212.545 222.81 213.377 227.934C214.208 233.059 219.66 236.449 225.556 235.506Z" stroke="white" stroke-width="2" stroke-miterlimit="10" stroke-linecap="round" stroke-linejoin="round"/>
<path d="M248.576 213.519C251.316 213.084 253.226 210.802 252.84 208.431C252.455 206.057 249.92 204.488 247.178 204.928C244.437 205.363 242.527 207.644 242.914 210.016C243.301 212.39 245.833 213.959 248.576 213.519Z" stroke="white" stroke-width="2" stroke-miterlimit="10" stroke-linecap="round" stroke-linejoin="round"/>
<path d="M206.137 239.186C207.769 238.926 208.906 237.567 208.677 236.153C208.447 234.739 206.939 233.804 205.307 234.064C203.674 234.324 202.538 235.683 202.766 237.097C202.996 238.513 204.505 239.448 206.137 239.186Z" stroke="white" stroke-width="2" stroke-miterlimit="10" stroke-linecap="round" stroke-linejoin="round"/>
<path d="M96.9665 234.975C92.6645 233.823 91.4914 227.667 91.3771 226.96C91.3181 226.556 90.244 219.811 94.2832 217.16C94.4279 217.075 97.4502 215.142 99.8041 216.585C100.88 217.247 101.598 218.327 101.8 218.904" stroke="white" stroke-width="2" stroke-miterlimit="10" stroke-linecap="round" stroke-linejoin="round"/>
<path d="M101.258 236.47C100.009 237.422 98.3237 237.218 97.48 236.181C96.724 235.259 96.8116 233.904 97.48 233.012C98.2932 231.945 99.95 231.628 101.258 232.435C101.258 233.791 101.258 235.116 101.258 236.47Z" stroke="white" stroke-width="2" stroke-miterlimit="10" stroke-linecap="round" stroke-linejoin="round"/>
<path d="M200.062 282.01C200.616 281.145 201.486 279.934 202.676 278.551C208.372 272.037 215.375 269.559 220.983 267.599C227.435 265.351 232.871 264.601 236.386 264.141C238.887 263.824 240.978 263.649 242.488 263.564C242.315 267.08 241.385 274.488 235.805 278.551C234.817 279.271 233.771 279.731 231.736 280.568C228.016 282.125 224.617 283.077 208.78 284.893C207.908 284.978 206.31 285.153 204.419 284.604C202.417 284.028 200.962 282.874 200.062 282.01Z" stroke="white" stroke-width="2" stroke-miterlimit="10" stroke-linecap="round" stroke-linejoin="round"/>
<path d="M86.1685 264.433C87.4844 265.883 88.4461 267.037 89.2212 267.991C91.5465 270.843 92.6206 272.572 94.7421 276.06C95.5267 277.357 96.1951 278.511 96.1951 280.096C96.1951 280.615 96.1951 282.461 95.0335 283.268C93.3766 284.42 90.2972 282.749 88.6404 281.248L86.5341 279.533" stroke="white" stroke-width="2" stroke-miterlimit="10" stroke-linecap="round" stroke-linejoin="round"/>
<path d="M118.229 281.487C109.278 280.825 107.012 280.367 98.9331 279.128C98.9331 280.193 98.9331 281.23 98.9331 282.297C106.983 283.393 110.236 283.896 119.04 284.5" stroke="white" stroke-width="2" stroke-miterlimit="10" stroke-linecap="round" stroke-linejoin="round"/>
<path d="M164.683 285.174C176.334 284.799 186.094 284.035 195.412 282.874C195.324 281.807 195.208 280.77 195.121 279.703C185.818 280.996 176.063 281.835 163.944 282.235" stroke="white" stroke-width="2" stroke-miterlimit="10" stroke-linecap="round" stroke-linejoin="round"/>
<path d="M375.642 216.338C373.319 217.002 374.132 216.785 371.807 217.448C371.138 216.843 370.237 215.891 369.483 214.566C369.308 214.277 369.163 213.989 369.019 213.7C368.379 212.316 368.118 211.078 368.03 210.241C368.67 209.52 369.628 208.655 370.936 207.935C374.134 206.206 374.892 206.325 374.892 206.325" stroke="white" stroke-width="2" stroke-miterlimit="10" stroke-linecap="round" stroke-linejoin="round"/>
<path d="M318.629 284.028C345.016 282.73 349.838 282.376 366.433 281.25" stroke="white" stroke-width="2" stroke-miterlimit="10" stroke-linecap="round" stroke-linejoin="round"/>
<path d="M103.873 204.189C104.773 202.892 106.754 199.705 108.003 198.436C109.748 196.679 111.216 195.037 113.454 193.54C115.284 192.301 117.9 190.744 127.838 186.824C129.466 186.191 130.888 185.644 132.225 185.18C133.65 184.69 134.492 184.402 135.103 184.23C135.859 184 136.179 183.883 136.76 183.653C138.677 182.846 139.753 181.953 142.107 179.964C142.484 179.647 142.892 179.272 143.357 178.897C144.345 178.061 145.39 177.254 146.379 176.447C147.512 175.554 148.645 174.632 149.75 173.71C154.168 169.905 162.159 164.142 172.212 157.511C188.632 146.674 197.901 140.822 206.299 136.989C217.784 131.742 237.461 129.147 255.273 128.095" stroke="white" stroke-width="2" stroke-miterlimit="10" stroke-linecap="round" stroke-linejoin="round"/>
<path d="M124.148 298.407L90.1734 298.379C90.1449 298.379 90.1449 298.379 90.1144 298.379C85.3781 298.034 82.2682 296.65 80.8152 294.286C79.6535 292.385 80.0591 290.713 80.6114 288.435C81.1046 286.39 81.7731 283.566 81.5998 279.269C81.5712 278.577 81.5122 277.913 81.4836 277.28C81.3389 275.347 81.2227 273.503 81.5998 270.766C81.9197 268.634 82.3844 267.163 82.792 265.866C82.9081 265.549 82.9957 265.23 83.0833 264.914C84.0717 261.541 84.0412 259.669 84.0127 257.105C83.9841 254.972 83.9536 252.32 84.5059 248.025C84.8544 245.344 85.3781 241.307 87.1511 236.352C87.9072 234.22 89.2346 231.484 89.2346 231.484" stroke="white" stroke-width="2" stroke-miterlimit="10" stroke-linecap="round" stroke-linejoin="round"/>
<path d="M360.286 297.572H305.919C305.687 297.572 305.483 297.485 305.367 297.312C305.249 297.139 305.163 296.908 305.22 296.707C307.602 285.811 310.103 265.146 300.076 249.409C298.189 246.441 294.7 240.936 288.947 239.927C288.336 239.81 287.698 239.754 287.06 239.754C280.259 239.754 274.186 245.979 271.598 248.632C262.735 257.712 260.613 269.356 260.177 272.727C258.579 284.976 257.591 292.412 257.562 293.076C257.619 293.767 257.503 294.488 257.212 295.121C256.166 297.139 253.58 298.407 250.295 298.407C250.004 298.407 249.714 298.407 249.394 298.379L169.208 298.398" stroke="white" stroke-width="2" stroke-miterlimit="10" stroke-linecap="round" stroke-linejoin="round"/>
<path d="M394.067 135.753C397.725 136.564 397.841 136.7 401.088 137.635C409.428 140.028 417.653 142.939 425.587 146.311C425.733 146.37 425.849 146.485 425.937 146.628C434.655 162.424 441.715 178.853 446.861 195.425C447.091 196.117 447.295 196.809 447.499 197.501C449.592 204.42 450.203 207.704 450.753 210.615C451.306 213.555 451.742 215.889 453.602 221.106C456.101 228.053 458.86 233.932 461.273 239.12C466.329 249.87 471.873 258.617 470.885 270.345C470.652 273.113 469.992 275.783 469.236 278.464C469.15 278.781 468.858 278.982 468.539 278.982C468.51 278.982 468.479 278.982 468.479 278.982C468.131 278.954 467.84 278.666 467.84 278.319C467.579 274.917 467.367 271.426 466.844 267.966C465.478 258.858 463.191 254.539 460.458 250.274C459.384 248.573 457.116 245.085 452.583 242.751H452.555C451.334 242.116 448.079 240.446 444.273 240.446C442.905 240.446 441.599 240.676 440.378 241.079C436.891 242.291 435.002 244.827 432.589 248.027C429.538 252.12 428.26 255.894 426.893 259.931C425.177 264.974 424.452 269.095 423.435 274.802C423.027 277.108 422.825 278.52 422.591 280.019C422.361 281.546 422.157 283.104 421.69 285.754C421.022 289.559 420.237 293.335 419.367 297.025C419.279 297.342 418.988 297.574 418.668 297.574H399.885" stroke="white" stroke-width="2" stroke-miterlimit="10" stroke-linecap="round" stroke-linejoin="round"/>
<path d="M359.022 300.455C355.447 300.396 351.32 300.11 346.816 299.303C344.086 298.813 341.557 298.236 339.262 297.572" stroke="white" stroke-width="2" stroke-miterlimit="10" stroke-linecap="round" stroke-linejoin="round"/>
<path d="M258.553 125.8C247.502 127.384 238.597 129.537 238.597 129.537" stroke="white" stroke-width="2" stroke-miterlimit="10" stroke-linecap="round" stroke-linejoin="round"/>
<path d="M347.232 131.149C355.398 143.053 363.642 158.187 369.483 178.536C385.554 234.51 366.868 282.902 359.022 300.455C372.012 300.541 384.973 300.658 397.961 300.743C405.402 288.811 420.629 260.824 420.919 222.346C421.269 175.51 399.298 142.71 391.277 131.843C383.909 130.173 372.89 127.957 362.595 126.4" stroke="white" stroke-width="2" stroke-miterlimit="10" stroke-linecap="round" stroke-linejoin="round"/>
<path d="M171.002 302.474C175.565 302.819 181.581 302.762 188.439 301.32C192.478 300.483 195.664 299.589 198.599 298.407" stroke="white" stroke-width="2" stroke-miterlimit="10" stroke-linecap="round" stroke-linejoin="round"/>
<path d="M293.851 129.671C268.117 136.566 251.107 147.469 240.458 156.63C227.932 167.41 228.717 171.502 210.526 186.894C194.775 200.24 184.285 205.542 174.2 221.192C168.157 230.589 165.481 238.717 164.9 240.502C156.416 267.02 166.18 292.067 171.002 302.47C155.805 301.98 140.577 301.52 125.378 301.03C120.874 291.75 110.615 267.22 118.113 239.35C119.362 234.68 121.716 226.264 127.993 217.156C138.92 201.332 150.543 199.661 171.293 184.586C188.991 171.702 186.464 168.589 202.969 155.763C213.75 147.405 230.576 136.481 255.278 128.093" stroke="white" stroke-width="2" stroke-miterlimit="10" stroke-linecap="round" stroke-linejoin="round"/>
<path d="M289.794 128.168C278.438 128.734 267.058 127.499 264.226 126.943C248.126 123.744 236.821 121.496 231.678 111.954C224.965 99.5317 232.114 81.0854 243.302 71.8905C264.254 54.6828 294.687 67.7823 310.67 79.0794" stroke="white" stroke-width="2" stroke-miterlimit="10" stroke-linecap="round" stroke-linejoin="round"/>
<path d="M294.885 90.137C292.647 92.0394 274.456 107.603 278.64 119.132C280.326 123.744 285.005 126.164 288.781 127.75C315.747 139.105 343.995 132.16 349.457 130.546C365.209 125.876 376.222 122.62 380.465 112.618C385.986 99.6185 377.151 81.9225 365.15 73.7947C342.659 58.6044 309.733 77.426 294.885 90.137Z" stroke="white" stroke-width="2" stroke-miterlimit="10" stroke-linecap="round" stroke-linejoin="round"/>
<path d="M341.055 68.3688C321.352 74.9411 310.75 93.9701 314.82 109.735C319.149 126.54 338.435 132.46 339.366 132.748" stroke="white" stroke-width="2" stroke-miterlimit="10" stroke-linecap="round" stroke-linejoin="round"/>
<path d="M324.544 78.5608C338.203 83.6626 346.554 96.4774 345.973 109.16C345.392 121.698 336.114 129.452 334.428 130.806" stroke="white" stroke-width="2" stroke-miterlimit="10" stroke-linecap="round" stroke-linejoin="round"/>
<path d="M163.711 129.45C163.711 129.45 160.977 128.671 157.731 127.791" stroke="white" stroke-width="2" stroke-miterlimit="10" stroke-linecap="round" stroke-linejoin="round"/>
<path d="M167.364 160.711C167.471 153.158 167.762 145.815 167.425 140.123" stroke="white" stroke-width="2" stroke-miterlimit="10" stroke-linecap="round" stroke-linejoin="round"/>
<path d="M120.664 184.35C120.599 186.16 120.533 188.228 120.504 189.806" stroke="white" stroke-width="2" stroke-miterlimit="10" stroke-linecap="round" stroke-linejoin="round"/>
<path d="M138.096 123.072C137.588 122.972 136.931 122.846 136.441 122.755C134.67 121.79 132.705 120.779 131.214 120.18C127.704 118.77 114.019 99.075 111.699 94.3597C109.38 89.6445 105.539 69.1016 105.539 69.1016L100.206 70.7852C100.206 70.7852 98.6048 93.845 99.3722 99.8556C100.14 105.866 117.085 131.711 118.491 133.971C121.185 143.722 121.46 157.252 121.197 169.135" stroke="white" stroke-width="2" stroke-miterlimit="10" stroke-linecap="round" stroke-linejoin="round"/>
<path d="M106.975 63.7455C107.047 63.359 107.047 63.2383 107.089 62.8763" stroke="white" stroke-width="2" stroke-miterlimit="10" stroke-linecap="round" stroke-linejoin="round"/>
<path d="M105.575 60.1139C103.04 59.9631 98.5344 60.1271 97.9307 61.4205C97.2489 62.8835 100.205 70.7851 100.205 70.7851L105.537 69.1014" stroke="white" stroke-width="2" stroke-miterlimit="10" stroke-linecap="round" stroke-linejoin="round"/>
<path d="M48.1679 90.6955L30.3789 80.0452C31.1673 78.7537 32.4128 77.8996 33.7859 77.564C35.1609 77.2303 36.6615 77.4132 37.968 78.1956C39.1182 78.8838 40.6151 78.518 41.3102 77.3793L44.0068 72.9637L48.1717 75.4581L45.4751 79.8736C45.1266 80.443 45.0447 81.0991 45.1952 81.6986C45.3437 82.2982 45.7246 82.8411 46.2997 83.1843C47.6042 83.9648 48.4669 85.1978 48.8059 86.5572C49.143 87.9165 48.9583 89.4041 48.1679 90.6955Z" stroke="white" stroke-width="2" stroke-miterlimit="10" stroke-linecap="round" stroke-linejoin="round"/>
<path d="M46.8469 69.4817C47.8638 67.2324 47.6505 64.6891 46.2051 63.0884C39.2769 55.415 36.6774 42.7209 43.3028 31.8744L53.0514 11.126L100.205 39.3555L85.8091 57.3211C80.8043 65.513 72.1507 69.4421 63.8608 69.772C63.8589 69.7701 63.8589 69.772 63.857 69.772C61.0328 69.8851 58.2505 69.5797 55.67 68.8821C53.6494 68.3373 51.3241 69.3478 49.9396 71.3312" stroke="white" stroke-width="2" stroke-miterlimit="10" stroke-linecap="round" stroke-linejoin="round"/>
<path d="M39.869 40.8548C39.0349 37.3518 36.7744 34.8273 34.3938 32.1727C31.6096 29.0675 28.7321 25.8586 28.1131 21.0792C27.4256 15.7795 29.9185 10.3704 34.3139 7.61963C37.658 5.52688 41.3506 5.46089 44.4529 7.42921C47.8865 9.61246 49.6386 13.3888 49.6234 18.4793" stroke="white" stroke-width="2" stroke-miterlimit="10" stroke-linecap="round" stroke-linejoin="round"/>
<path d="M43.3024 31.8731C43.3804 31.7072 50.9885 15.1707 42.8053 9.9671C39.983 8.17035 37.294 9.32231 35.9418 10.1688C32.5806 12.271 30.6038 16.6017 31.1351 20.6948C31.6341 24.5504 34.0812 27.2804 36.6731 30.1687C38.2785 31.9598 39.9468 33.798 41.2208 36.0642" stroke="white" stroke-width="2" stroke-miterlimit="10" stroke-linecap="round" stroke-linejoin="round"/>
<path d="M79.1948 64.5273C82.7408 63.6035 86.1764 64.4123 89.6786 65.2721C93.7483 66.2713 97.957 67.3026 102.518 65.6265C107.578 63.7675 111.259 59.0692 111.678 53.9373C111.996 50.0346 110.341 46.7654 107.14 44.9611C103.836 43.1021 99.7662 43.1926 95.5784 45.1289" stroke="white" stroke-width="2" stroke-miterlimit="10" stroke-linecap="round" stroke-linejoin="round"/>
<path d="M97.8687 63.573C95.3948 63.671 92.8944 63.0639 90.3234 62.4342C88 61.8648 85.4938 61.2596 82.9058 61.1842" stroke="white" stroke-width="2" stroke-miterlimit="10" stroke-linecap="round" stroke-linejoin="round"/>
<path d="M85.7212 57.4116C85.8336 57.2664 97.0924 42.9151 105.548 47.6737C108.465 49.314 108.684 52.208 108.555 53.7861C108.366 56.1051 107.256 58.3618 105.573 60.1152" stroke="white" stroke-width="2" stroke-miterlimit="10" stroke-linecap="round" stroke-linejoin="round"/>
<path d="M49.8253 76.4483L42.0591 71.799C41.0041 71.1674 40.6632 69.7967 41.3012 68.7541C41.9391 67.7096 43.3236 67.3722 44.3768 68.0038L52.1429 72.6531C53.198 73.2847 53.5389 74.6553 52.9009 75.6979C52.2648 76.7424 50.8803 77.0799 49.8253 76.4483Z" stroke="white" stroke-width="2" stroke-miterlimit="10" stroke-linecap="round" stroke-linejoin="round"/>
<path d="M52.2021 50.6094L53.0363 49.2444C56.986 51.3579 57.4945 51.1071 59.117 48.4526L67.2717 35.1023C68.4201 33.2207 67.8392 32.6721 66.4261 31.5729L65.4206 30.7189L66.1633 29.5028C69.2351 30.8885 72.8878 32.0688 75.5597 32.6099L64.0704 51.4182C62.404 54.1463 62.425 54.612 66.1119 57.0724L65.2778 58.4374L52.2021 50.6094Z" stroke="white" stroke-width="2" stroke-miterlimit="10" stroke-linecap="round" stroke-linejoin="round"/>
<path d="M97.9305 61.4178C97.9305 61.4178 97.6467 64.4023 98.6123 64.9641C99.5797 65.5278 99.9206 61.4178 99.9206 61.4178C99.9206 61.4178 99.9777 64.7888 100.717 65.0169C101.456 65.245 101.911 61.135 101.911 61.135C101.911 61.135 101.989 64.4004 102.49 64.2873C102.991 64.1742 103.331 61.135 103.331 61.135C103.331 61.135 103.558 63.5049 104.242 63.0807C104.923 62.6546 105.573 60.1112 105.573 60.1112" stroke="white" stroke-miterlimit="10" stroke-linecap="round" stroke-linejoin="round"/>
<path d="M105.539 69.0996C105.539 69.0996 107.6 67.499 108.055 66.0359C108.51 64.5729 109.847 62.1106 109.135 61.8127C108.683 61.6242 107.63 62.8591 106.958 63.766C106.571 64.2882 106.347 64.6841 106.347 64.6841" stroke="white" stroke-width="2" stroke-miterlimit="10" stroke-linecap="round" stroke-linejoin="round"/>
<path d="M154.714 123.127C154.745 120.545 154.657 119.974 155.032 117.908C155.173 117.141 155.389 116.337 155.714 115.449" stroke="white" stroke-width="2" stroke-miterlimit="10" stroke-linecap="round" stroke-linejoin="round"/>
<path d="M142.039 116.384L141.258 120.396" stroke="white" stroke-width="2" stroke-miterlimit="10" stroke-linecap="round" stroke-linejoin="round"/>
<path d="M155.568 115.916C152.016 119.508 145.134 117.628 142.127 116.42C141.167 116.035 140.578 115.737 140.578 115.737C139.544 115.13 139.415 113.215 139.771 110.85C140.477 106.171 143.084 99.7382 144.336 98.2544" stroke="white" stroke-width="2" stroke-miterlimit="10" stroke-linecap="round" stroke-linejoin="round"/>
<path d="M144.103 90.6964C144.103 90.6964 147.795 91.426 152.579 90.7737C156.462 90.2458 160.363 93.0984 161.57 94.2315C161.597 93.9939 161.593 93.6602 161.463 93.2907C161.463 93.2907 161.974 93.9147 161.89 94.5652C161.941 94.6311 161.962 94.6726 161.941 94.6783C161.941 94.6783 162.699 94.748 163.105 95.0836C163.105 95.0836 162.795 94.9479 162.619 95.1213C162.6 95.1402 162.577 95.1534 162.551 95.1628C167.217 99.2446 165.322 107.827 163.031 109.299C160.275 111.07 155.541 115.941 155.541 115.941C155.541 115.941 155.708 114.162 156.674 112.199C157.639 110.236 155.836 109.735 153.823 108.16C151.81 106.586 154.455 104.482 152.915 102.329C151.372 100.176 143.792 99.0844 144.234 97.8891C141.797 96.1583 144.025 90.9717 144.103 90.6964Z" stroke="white" stroke-width="2" stroke-miterlimit="10" stroke-linecap="round" stroke-linejoin="round"/>
<path d="M143.096 131.29C143.096 131.29 138.535 161.259 104.412 182.072L101.228 191.231H113.544C113.544 191.231 144.106 165.858 146.155 132.153L143.096 131.29Z" stroke="white" stroke-width="2" stroke-miterlimit="10" stroke-linecap="round" stroke-linejoin="round"/>
<path d="M147.009 130.88L146.156 132.151L143.097 131.289V129.127" stroke="white" stroke-width="2" stroke-miterlimit="10" stroke-linecap="round" stroke-linejoin="round"/>
<path d="M141.257 120.396L137.967 123.181C137.967 123.181 137.056 127.071 139.275 131.29L145.91 127.536C145.91 127.536 141.991 125.662 141.257 120.396Z" stroke="white" stroke-width="2" stroke-miterlimit="10" stroke-linecap="round" stroke-linejoin="round"/>
<path d="M145.91 127.535C145.91 127.535 146.569 131.063 148.296 132.809C148.296 132.809 155.771 131.514 157.845 127.967L154.714 123.126C154.714 123.126 153.965 126.429 145.91 127.535Z" stroke="white" stroke-width="2" stroke-miterlimit="10" stroke-linecap="round" stroke-linejoin="round"/>
<path d="M163.603 129.45C163.603 129.45 170.175 131.222 174.63 140.924C175.629 143.103 178.614 149.304 180.137 152.312" stroke="white" stroke-width="2" stroke-miterlimit="10" stroke-linecap="round" stroke-linejoin="round"/>
</svg>
