<svg width="500" height="330" viewBox="0 0 500 330" fill="none" xmlns="http://www.w3.org/2000/svg">
<path d="M115.655 228.169V183.769" stroke="white" stroke-width="3" stroke-miterlimit="10" stroke-linecap="round" stroke-linejoin="round"/>
<path d="M383.24 200.358V209.888C383.24 214.982 382.218 219.75 380.43 223.849C376.84 232.097 370.162 237.643 362.515 237.643H111.552C109.89 237.643 108.545 235.841 108.545 233.62V232.193C108.545 229.972 109.89 228.17 111.552 228.17H260.242C263.062 228.17 265.633 226.494 266.665 223.895C266.672 223.88 266.677 223.864 266.683 223.849C268.117 220.234 268.925 216.114 268.925 211.738V199.622C268.925 197.394 268.71 195.231 268.305 193.175C268.298 193.141 268.292 193.106 268.285 193.071C267.2 187.645 262.335 183.769 256.747 183.769H111.552C109.89 183.769 108.545 181.967 108.545 179.743V178.319C108.545 176.095 109.89 174.293 111.552 174.293H363.778C372.667 174.293 380.163 182.272 382.49 193.175C382.978 195.457 383.24 197.868 383.24 200.358Z" stroke="white" stroke-width="3" stroke-miterlimit="10" stroke-linecap="round" stroke-linejoin="round"/>
<path d="M115.655 205.97L134.238 207.034L115.655 207.676V205.97Z" stroke="white" stroke-width="3" stroke-miterlimit="10" stroke-linecap="round" stroke-linejoin="round"/>
<path d="M115.655 215.909L159.863 216.973L115.655 217.615V215.909Z" stroke="white" stroke-width="3" stroke-miterlimit="10" stroke-linecap="round" stroke-linejoin="round"/>
<path d="M132.425 115.371V77.9526" stroke="white" stroke-width="3" stroke-miterlimit="10" stroke-linecap="round" stroke-linejoin="round"/>
<path d="M353.927 91.9332V99.9654C353.927 104.257 353.08 108.276 351.6 111.73C348.628 118.681 343.1 123.354 336.77 123.354H129.026C127.651 123.354 126.538 121.836 126.538 119.963V118.761C126.538 116.889 127.651 115.37 129.026 115.37H252.07C254.433 115.37 256.576 113.949 257.428 111.766C257.433 111.753 257.438 111.74 257.443 111.727C258.628 108.681 259.3 105.207 259.3 101.52V91.3095C259.3 89.4318 259.121 87.6102 258.786 85.876C258.5 84.3894 258.098 82.9654 257.596 81.6256C256.765 79.4047 254.601 77.9494 252.21 77.9494H129.026C127.651 77.9494 126.538 76.4314 126.538 74.557V73.3575C126.538 71.4831 127.651 69.9651 129.026 69.9651H337.817C345.175 69.9651 351.38 76.6905 353.307 85.8793C353.712 87.8049 353.927 89.836 353.927 91.9332Z" stroke="white" stroke-width="3" stroke-miterlimit="10" stroke-linecap="round" stroke-linejoin="round"/>
<path d="M132.425 96.6619L147.807 97.5595L132.425 98.1007V96.6619Z" stroke="white" stroke-width="3" stroke-miterlimit="10" stroke-linecap="round" stroke-linejoin="round"/>
<path d="M132.425 105.039L169.02 105.936L132.425 106.476V105.039Z" stroke="white" stroke-width="3" stroke-miterlimit="10" stroke-linecap="round" stroke-linejoin="round"/>
<path d="M131.867 277.532C133.69 278.485 135.833 279.06 138.04 279.06H294.86" stroke="white" stroke-width="3" stroke-miterlimit="10" stroke-linecap="round" stroke-linejoin="round"/>
<path d="M294.86 237.532H137.24C130.447 237.532 124.938 242.986 124.938 249.711V266.091C124.938 270.049 126.712 273.592 129.518 275.961" stroke="white" stroke-width="3" stroke-miterlimit="10" stroke-linecap="round" stroke-linejoin="round"/>
<path d="M279.555 272.849H456.924V243.743H279.272C272.363 243.743 266.765 249.287 266.765 256.125V260.184C266.763 267.179 272.49 272.849 279.555 272.849Z" stroke="white" stroke-width="3" stroke-miterlimit="10" stroke-linecap="round" stroke-linejoin="round"/>
<path d="M293.015 279.059H463.845C464.894 279.059 465.745 278.218 465.745 277.178V274.728C465.745 273.69 464.895 272.847 463.845 272.847H293.015" stroke="white" stroke-width="3" stroke-miterlimit="10" stroke-linecap="round" stroke-linejoin="round"/>
<path d="M359.345 243.743H463.843C464.891 243.743 465.743 242.901 465.743 241.862V239.412C465.743 238.374 464.893 237.531 463.843 237.531H364.375" stroke="white" stroke-width="3" stroke-miterlimit="10" stroke-linecap="round" stroke-linejoin="round"/>
<path d="M456.923 258.296L433.868 258.994L456.923 259.415V258.296Z" stroke="white" stroke-width="3" stroke-miterlimit="10" stroke-linecap="round" stroke-linejoin="round"/>
<path d="M456.923 248.739L402.075 249.437L456.923 249.858V248.739Z" stroke="white" stroke-width="3" stroke-miterlimit="10" stroke-linecap="round" stroke-linejoin="round"/>
<path d="M402.638 249.299C402.638 249.299 404.988 251.082 405.767 254.016C405.905 254.529 405.992 255.079 406.01 255.656C406.14 259.553 406.01 268.373 406.01 268.373L412.95 263.964L419.871 268.373V256.42C419.871 254.159 419.278 251.962 418.175 250.521C417.64 249.823 416.992 249.299 416.258 249.299H402.638V249.299Z" stroke="white" stroke-width="3" stroke-miterlimit="10" stroke-linecap="round" stroke-linejoin="round"/>
<path d="M410.832 166.675V130.974" stroke="white" stroke-width="3" stroke-miterlimit="10" stroke-linecap="round" stroke-linejoin="round"/>
<path d="M116.072 123.357H415.85C417.964 123.357 419.677 124.77 419.677 126.517V127.811C419.677 129.558 417.964 130.974 415.85 130.974H234.947C230.624 130.974 226.712 132.495 223.979 134.929C222.797 135.983 221.835 137.209 221.155 138.552C220.449 139.961 220.052 141.501 220.039 143.118V154.082C220.052 155.765 220.467 157.365 221.207 158.829C222.524 161.439 224.87 163.607 227.822 164.998C230.09 166.062 232.714 166.67 235.499 166.67H415.85C417.964 166.67 419.677 168.085 419.677 169.833V171.126C419.677 172.874 417.964 174.289 415.85 174.289H104.29C103.33 174.289 102.045 174.215 101.112 174.133" stroke="white" stroke-width="3" stroke-miterlimit="10" stroke-linecap="round" stroke-linejoin="round"/>
<path d="M410.832 148.823L387.712 149.68L410.832 150.196V148.823Z" stroke="white" stroke-width="3" stroke-miterlimit="10" stroke-linecap="round" stroke-linejoin="round"/>
<path d="M410.832 137.102L355.827 137.958L410.832 138.473V137.102Z" stroke="white" stroke-width="3" stroke-miterlimit="10" stroke-linecap="round" stroke-linejoin="round"/>
<path d="M356.393 137.788C356.393 137.788 360.023 139.404 361.225 142.058C361.436 142.522 361.573 143.02 361.601 143.543C361.801 147.071 361.601 155.054 361.601 155.054L372.318 151.063L383.008 155.054V144.233C383.008 142.187 382.09 140.197 380.388 138.894C379.563 138.262 378.561 137.787 377.428 137.787H356.393V137.788Z" stroke="white" stroke-width="3" stroke-miterlimit="10" stroke-linecap="round" stroke-linejoin="round"/>
<path d="M253.82 194.385C253.82 194.385 250.19 196.579 248.988 200.186C248.776 200.816 248.64 201.493 248.611 202.204C248.411 206.997 248.611 217.844 248.611 217.844L237.895 212.421L227.205 217.844V203.141C227.205 200.361 228.123 197.657 229.825 195.886C230.65 195.028 231.651 194.383 232.785 194.383H253.82V194.385Z" stroke="white" stroke-width="3" stroke-miterlimit="10" stroke-linecap="round" stroke-linejoin="round"/>
<path d="M42.8486 124.206C42.8486 124.206 45.1253 133.983 51.7603 133.983C53.252 133.983 55.2953 132.771 56.9003 131.479" stroke="white" stroke-width="3" stroke-miterlimit="10" stroke-linecap="round" stroke-linejoin="round"/>
<path d="M112.648 269.074C107.652 263.444 93.4067 246.31 89.3133 229.162C88.4317 225.459 88.0733 221.806 88.4517 218.343C88.4517 218.343 88.1517 217.404 87.6283 215.742C87.605 215.67 87.5816 215.595 87.5583 215.521C87.3283 214.792 87.0533 213.935 86.7483 212.965C85.755 209.832 84.3883 205.544 82.8333 200.661C81.665 197 79.7283 190.976 77.9033 185.318" stroke="white" stroke-width="3" stroke-miterlimit="10" stroke-linecap="round" stroke-linejoin="round"/>
<path d="M95.8784 153.887C96.9218 157.466 98.2984 162.578 99.6918 168.526C100.325 170.816 100.958 173.347 101.55 176.106C102.222 179.231 102.848 182.648 103.37 186.339C104.253 192.593 104.842 199.629 104.878 207.344C104.892 210.482 104.815 213.738 104.627 217.097C104.488 219.559 104.858 222.841 105.552 226.575C108.723 243.642 118.427 268.902 118.427 268.902" stroke="white" stroke-width="3" stroke-miterlimit="10" stroke-linecap="round" stroke-linejoin="round"/>
<path d="M132.44 279.06H112.09C112.09 279.06 111.33 275.845 112.665 273.659C113.848 271.725 113.395 270.623 112.518 269.023C113.44 269.396 114.633 269.736 115.945 269.661C116.958 269.604 118.032 269.148 118.972 268.607C119.847 269.595 123.598 273.803 124.77 274.638C126.1 275.583 132.03 275.247 132.44 279.06Z" stroke="white" stroke-width="3" stroke-miterlimit="10" stroke-linecap="round" stroke-linejoin="round"/>
<path d="M67.143 272.753C67.143 272.753 65.7347 276.174 67.0614 279.06H78.1314C78.1314 279.06 78.3614 276.458 74.3447 273.441C71.3014 271.156 67.143 272.753 67.143 272.753Z" stroke="white" stroke-width="3" stroke-miterlimit="10" stroke-linecap="round" stroke-linejoin="round"/>
<path d="M83.7764 76.7562C83.7764 76.7562 84.973 73.377 86.943 73.8374C90.0147 74.5551 93.278 66.0263 89.4947 58.7861C89.0864 58.004 88.6614 57.3044 88.2297 56.6708C88.8514 56.7599 89.5347 56.783 90.123 56.6229C91.6764 56.2005 92.9347 51.6366 92.8864 50.2325C92.838 48.8267 91.2864 44.5895 88.8047 43.88C86.323 43.1705 83.3564 45.6323 83.3564 45.6323C84.0764 43.6803 88.5064 43.05 88.5064 43.05C79.4797 43.5731 79.1964 49.4553 79.1897 49.9998C72.108 46.4721 65.938 58.362 64.968 60.3503C64.533 60.7463 64.103 61.3485 63.7014 62.2329C61.7397 66.5609 66.0864 72.0851 66.0864 72.0851" stroke="white" stroke-width="3" stroke-miterlimit="10" stroke-linecap="round" stroke-linejoin="round"/>
<path d="M73.0438 81.5858C70.8221 82.0082 67.8654 76.6094 66.0854 72.0818C66.0871 72.0835 66.0871 72.0851 66.0871 72.0851C67.3321 71.897 66.4788 67.7209 66.5588 65.5561C66.6171 63.9638 67.7288 62.0548 68.3121 61.1555C68.8238 62.0135 73.8121 70.0837 80.9854 71.2651C80.9854 71.2651 77.3338 69.4847 74.1854 66.4916C75.8054 67.546 77.5771 68.2967 79.3188 68.267C80.7604 68.2439 81.9604 68.0971 82.9488 67.8892C83.1538 68.7323 83.3721 69.6134 83.6238 70.5226C85.7838 78.3452 73.0438 81.5858 73.0438 81.5858Z" stroke="white" stroke-width="3" stroke-miterlimit="10" stroke-linecap="round" stroke-linejoin="round"/>
<path d="M90.8966 86.3347C89.6766 86.1416 88.3283 85.9997 87.0816 85.9271C85.715 84.4768 83.93 80.3336 83.5083 74.1709" stroke="white" stroke-width="3" stroke-miterlimit="10" stroke-linecap="round" stroke-linejoin="round"/>
<path d="M73.8102 81.3613C73.9152 82.7721 73.9802 85.7305 73.9002 86.6941C71.1552 87.1198 69.3818 87.5455 69.3818 87.5455" stroke="white" stroke-width="3" stroke-miterlimit="10" stroke-linecap="round" stroke-linejoin="round"/>
<path d="M66.8169 273.791C66.4369 273.696 66.3869 273.671 66.3869 273.671C66.3869 273.671 56.9135 229.215 58.2402 223.036C59.5669 216.856 57.3535 211.581 57.3535 211.581C49.9985 177.669 50.8035 158.874 52.2635 149.876C52.4919 148.467 52.6369 147.718 52.8702 146.769" stroke="white" stroke-width="3" stroke-miterlimit="10" stroke-linecap="round" stroke-linejoin="round"/>
<path d="M80.9468 155.521C80.8635 156.309 80.8485 156.451 80.7552 157.332C79.6068 168.219 77.8052 185.706 76.5768 199.506C75.6168 210.297 75.0068 218.838 75.3352 220.209C76.3268 224.336 75.3352 273.669 75.3352 273.669C75.1352 273.763 75.0935 273.788 74.8818 273.862" stroke="white" stroke-width="3" stroke-miterlimit="10" stroke-linecap="round" stroke-linejoin="round"/>
<path d="M53.1484 109.433C54.7018 104.079 56.6751 97.7772 58.6168 94.0812C61.6484 88.3161 69.7418 87.4829 69.7418 87.4829C69.7418 87.4829 73.1101 92.7728 81.2584 92.022C89.4051 91.2713 90.8951 86.3345 90.8951 86.3345" stroke="white" stroke-width="3" stroke-miterlimit="10" stroke-linecap="round" stroke-linejoin="round"/>
<path d="M96.8115 134.699C97.3948 140.092 98.1348 149.581 96.4348 153.08C96.1682 153.633 95.8365 154.019 95.4298 154.194C86.7048 157.958 52.7248 154.303 51.2898 143.451C51.0198 141.413 54.7182 136.442 58.2382 132.155" stroke="white" stroke-width="3" stroke-miterlimit="10" stroke-linecap="round" stroke-linejoin="round"/>
<path d="M101.553 115.028C100.617 118.26 100.178 119.473 99.1118 122.463" stroke="white" stroke-width="3" stroke-miterlimit="10" stroke-linecap="round" stroke-linejoin="round"/>
<path d="M82.0517 129.2L84.3567 132.825H59.5667L45.6851 110.185L69.7867 109.686L78.7534 123.953" stroke="white" stroke-width="3" stroke-miterlimit="10" stroke-linecap="round" stroke-linejoin="round"/>
<path d="M79.6783 124.23L70.0633 108.956L69.7866 109.686L78.7533 123.953" stroke="white" stroke-width="3" stroke-miterlimit="10" stroke-linecap="round" stroke-linejoin="round"/>
<path d="M82.0518 129.2L83.5984 131.663L83.8501 130.855L82.9084 129.36" stroke="white" stroke-width="3" stroke-miterlimit="10" stroke-linecap="round" stroke-linejoin="round"/>
<path d="M70.0634 108.956L46.7101 109.615L45.6851 110.186L69.7867 109.686L70.0634 108.956Z" stroke="white" stroke-width="3" stroke-miterlimit="10" stroke-linecap="round" stroke-linejoin="round"/>
<path d="M46.4052 124.653L47.8552 126.908L59.5668 132.825L45.6852 110.185L32.5835 103.166L42.9468 119.277" stroke="white" stroke-width="3" stroke-miterlimit="10" stroke-linecap="round" stroke-linejoin="round"/>
<path d="M79.1035 124.217C79.1035 124.217 84.8735 124.354 90.2952 124.432" stroke="white" stroke-width="3" stroke-miterlimit="10" stroke-linecap="round" stroke-linejoin="round"/>
<path d="M87.8035 130.226C82.7185 129.372 78.3418 128.482 78.3418 128.482" stroke="white" stroke-width="3" stroke-miterlimit="10" stroke-linecap="round" stroke-linejoin="round"/>
<path d="M72.4835 123.177C70.8285 124.124 69.0735 125.552 68.2885 125.977C67.2135 126.56 64.2935 128.647 65.7735 129.909C67.2535 131.171 71.8618 130.087 73.6868 129.121C75.5118 128.154 78.3435 128.484 78.3435 128.484" stroke="white" stroke-width="3" stroke-miterlimit="10" stroke-linecap="round" stroke-linejoin="round"/>
<path d="M79.1048 124.215C79.1048 124.215 76.0365 122.014 74.7832 122.323" stroke="white" stroke-width="3" stroke-miterlimit="10" stroke-linecap="round" stroke-linejoin="round"/>
<path d="M74.7834 122.324C74.7834 122.324 71.2451 121.907 70.2784 121.927C69.3117 121.947 69.5751 122.156 70.1084 122.899C70.4201 123.334 70.9701 123.535 71.5651 123.743" stroke="white" stroke-width="3" stroke-miterlimit="10" stroke-linecap="round" stroke-linejoin="round"/>
<path d="M90.8966 86.3345C90.8966 86.3345 101.392 87.567 104.28 92.022C107.933 97.6551 116.555 120.09 116.278 125.743C116.278 125.743 109.975 136.364 88.3583 134.665C88.3583 134.665 86.1083 126.801 90.6566 124.204C90.6566 124.204 101.76 122.248 103.038 121.135L98.5499 102.806" stroke="white" stroke-width="3" stroke-miterlimit="10" stroke-linecap="round" stroke-linejoin="round"/>
<path d="M49.0415 118.645C48.7165 117.337 45.8332 118.153 44.8615 118.907C44.6248 119.09 44.3715 119.402 44.1232 119.767C44.0932 119.548 44.0665 119.338 44.0515 119.175C43.9965 118.559 43.2732 117.459 43.0932 118.284C42.9132 119.109 42.6182 122.572 42.6182 122.572C42.5832 125.362 44.3948 126.514 45.5598 125.606C46.7248 124.699 49.3665 119.953 49.0415 118.645Z" stroke="white" stroke-width="3" stroke-miterlimit="10" stroke-linecap="round" stroke-linejoin="round"/>
</svg>
