<svg width="500" height="330" viewBox="0 0 500 330" fill="none" xmlns="http://www.w3.org/2000/svg">
<path d="M99.2694 133.428C99.2694 133.428 102.464 133.424 104.492 133.424C134.098 133.424 158.101 157.185 158.101 186.498C158.101 215.808 134.1 239.571 104.492 239.571C102.196 239.571 97.6665 239.53 97.6665 239.53" stroke="white" stroke-width="2" stroke-miterlimit="10"/>
<path d="M137.722 224.025C158.658 203.299 158.658 169.695 137.722 148.969C116.787 128.243 82.8434 128.243 61.9078 148.969C40.9722 169.695 40.9722 203.299 61.9078 224.025C82.8434 244.752 116.787 244.752 137.722 224.025Z" stroke="white" stroke-width="2" stroke-miterlimit="10"/>
<path d="M99.8163 235.479C86.7702 235.479 74.5046 230.449 65.2795 221.316C56.0545 212.183 50.9736 200.041 50.9736 187.125C50.9736 174.209 56.0545 162.066 65.2795 152.933C74.5046 143.801 86.7702 138.771 99.8163 138.771C112.862 138.771 125.128 143.801 134.353 152.933C143.578 162.066 148.659 174.209 148.659 187.125C148.659 200.041 143.578 212.183 134.353 221.316C125.13 230.449 112.864 235.479 99.8163 235.479Z" stroke="white" stroke-width="2" stroke-miterlimit="10"/>
<path d="M106.538 201.158C106.663 200.116 106.623 199.18 106.422 198.349C106.22 197.519 105.821 196.743 105.222 196.019C104.625 195.294 103.824 194.595 102.824 193.923C101.822 193.251 100.584 192.565 99.1082 191.864C96.5723 190.635 94.2851 189.389 92.2447 188.131C90.2044 186.871 88.4945 185.493 87.1131 183.996C85.7317 182.499 84.7224 180.821 84.0816 178.957C83.4426 177.093 83.2684 174.946 83.5606 172.513C83.813 170.403 84.4211 168.521 85.3868 166.873C86.3507 165.226 87.6122 163.838 89.1715 162.711C90.729 161.585 92.537 160.733 94.59 160.156C96.6449 159.579 98.8994 159.322 101.357 159.383L102.312 151.413L108.792 152.175L107.823 160.257C110.108 160.828 112.142 161.683 113.922 162.823C115.701 163.964 117.166 165.344 118.313 166.965C119.461 168.586 120.272 170.437 120.748 172.52C121.223 174.603 121.312 176.887 121.014 179.369L109.31 177.994C109.667 175.014 109.266 172.707 108.106 171.073C106.946 169.44 105.245 168.491 103.005 168.227C101.791 168.085 100.724 168.13 99.807 168.361C98.8885 168.593 98.1116 168.969 97.4744 169.485C96.8373 170.002 96.3363 170.642 95.9714 171.404C95.6066 172.168 95.3688 173.007 95.258 173.927C95.1473 174.845 95.1836 175.694 95.3633 176.47C95.543 177.246 95.926 177.99 96.5124 178.702C97.0969 179.412 97.9046 180.111 98.9303 180.799C99.9577 181.487 101.245 182.222 102.793 183.009C105.294 184.285 107.56 185.558 109.584 186.828C111.608 188.099 113.311 189.488 114.69 190.998C116.07 192.507 117.079 194.193 117.718 196.056C118.357 197.92 118.533 200.055 118.243 202.463C117.981 204.648 117.36 206.564 116.384 208.212C115.405 209.86 114.138 211.235 112.583 212.336C111.027 213.438 109.21 214.257 107.133 214.793C105.057 215.33 102.789 215.566 100.333 215.504L99.4458 222.916L93.0071 222.159L93.8912 214.784C91.6766 214.297 89.5673 213.558 87.5651 212.568C85.561 211.578 83.8347 210.286 82.3825 208.692C80.9304 207.099 79.8467 205.178 79.1315 202.928C78.4163 200.678 78.2365 198.064 78.5923 195.086L90.297 196.461C90.0864 198.224 90.159 199.724 90.5166 200.962C90.8742 202.201 91.4297 203.223 92.1812 204.028C92.9327 204.833 93.8258 205.443 94.8587 205.854C95.8916 206.266 96.9607 206.535 98.068 206.665C99.3369 206.814 100.47 206.783 101.466 206.573C102.463 206.363 103.32 206.01 104.037 205.514C104.754 205.02 105.32 204.4 105.737 203.656C106.164 202.909 106.427 202.078 106.538 201.158Z" stroke="white" stroke-width="2" stroke-miterlimit="10"/>
<path d="M395.363 127.862C395.363 127.862 396.51 126.094 397.238 124.972C407.879 108.597 429.914 103.862 446.456 114.396C462.999 124.931 467.78 146.746 457.139 163.123C456.313 164.393 454.663 166.882 454.663 166.882" stroke="white" stroke-width="2" stroke-miterlimit="10"/>
<path d="M450.69 171.564C464.598 157.795 464.598 135.472 450.69 121.703C436.782 107.935 414.233 107.935 400.326 121.703C386.418 135.472 386.418 157.795 400.326 171.564C414.233 185.333 436.782 185.333 450.69 171.564Z" stroke="white" stroke-width="2" stroke-miterlimit="10"/>
<path d="M453.151 164.236C448.462 171.452 441.216 176.43 432.746 178.248C424.276 180.069 415.597 178.514 408.309 173.872C401.021 169.231 395.992 162.057 394.155 153.671C392.317 145.286 393.887 136.694 398.576 129.479C403.264 122.264 410.511 117.286 418.981 115.467C427.451 113.647 436.129 115.201 443.417 119.843C450.706 124.485 455.734 131.659 457.571 140.044C459.41 148.429 457.841 157.021 453.151 164.236Z" stroke="white" stroke-width="2" stroke-miterlimit="10"/>
<path d="M436.196 148.183C435.651 147.74 435.11 147.425 434.569 147.238C434.028 147.051 433.446 146.994 432.823 147.064C432.199 147.134 431.518 147.324 430.779 147.637C430.04 147.95 429.207 148.388 428.281 148.953C426.677 149.914 425.152 150.732 423.709 151.407C422.264 152.083 420.873 152.534 419.532 152.759C418.19 152.985 416.88 152.94 415.598 152.624C414.317 152.308 413.042 151.632 411.773 150.597C410.673 149.698 409.831 148.687 409.247 147.56C408.662 146.435 408.334 145.238 408.257 143.971C408.181 142.704 408.35 141.399 408.764 140.055C409.176 138.713 409.842 137.372 410.761 136.035L406.605 132.642L409.365 129.332L413.578 132.772C414.721 131.713 415.936 130.895 417.219 130.32C418.503 129.745 419.808 129.433 421.135 129.381C422.462 129.328 423.798 129.546 425.145 130.031C426.491 130.516 427.811 131.287 429.105 132.344L424.123 138.323C422.571 137.054 421.124 136.447 419.784 136.501C418.446 136.555 417.299 137.155 416.344 138.3C415.827 138.92 415.469 139.527 415.27 140.116C415.07 140.708 415.003 141.272 415.065 141.809C415.128 142.347 415.308 142.855 415.607 143.331C415.907 143.808 416.295 144.241 416.774 144.632C417.254 145.024 417.744 145.308 418.247 145.488C418.749 145.668 419.307 145.723 419.918 145.655C420.53 145.587 421.215 145.393 421.97 145.071C422.727 144.751 423.605 144.304 424.605 143.729C426.225 142.803 427.757 142.009 429.202 141.346C430.647 140.682 432.042 140.24 433.389 140.019C434.736 139.798 436.052 139.847 437.332 140.163C438.614 140.479 439.881 141.15 441.137 142.176C442.275 143.107 443.135 144.138 443.713 145.27C444.292 146.404 444.611 147.599 444.673 148.854C444.735 150.11 444.546 151.409 444.101 152.75C443.658 154.091 442.977 155.429 442.059 156.766L445.922 159.922L443.181 163.213L439.336 160.073C438.265 161.123 437.091 162.025 435.813 162.776C434.533 163.527 433.184 164.019 431.763 164.249C430.342 164.48 428.868 164.39 427.341 163.976C425.814 163.565 424.275 162.724 422.721 161.455L427.704 155.476C428.623 156.227 429.496 156.725 430.323 156.971C431.151 157.219 431.926 157.279 432.652 157.153C433.377 157.027 434.041 156.752 434.644 156.328C435.246 155.906 435.784 155.41 436.254 154.844C436.795 154.195 437.183 153.559 437.425 152.931C437.664 152.304 437.773 151.704 437.751 151.129C437.73 150.554 437.584 150.018 437.314 149.521C437.049 149.019 436.675 148.575 436.196 148.183Z" stroke="white" stroke-width="2" stroke-miterlimit="10"/>
<path d="M216.825 40.1321C216.825 40.1321 217.108 41.4188 217.288 42.2365C219.904 54.1655 212.256 65.9347 200.207 68.5243C188.157 71.1139 176.269 63.5428 173.653 51.6137C173.45 50.6882 173.067 48.8605 173.067 48.8605" stroke="white" stroke-width="2" stroke-miterlimit="10"/>
<path d="M210.843 60.6689C219.562 52.0374 219.562 38.0431 210.843 29.4117C202.125 20.7802 187.989 20.7802 179.27 29.4117C170.552 38.0431 170.552 52.0374 179.27 60.6689C187.989 69.3003 202.125 69.3003 210.843 60.6689Z" stroke="white" stroke-width="2" stroke-miterlimit="10"/>
<path d="M174.92 49.3669C173.767 44.1104 174.751 38.7245 177.692 34.1994C180.63 29.6762 185.174 26.5564 190.484 25.4152C195.793 24.2741 201.233 25.2481 205.804 28.1594C210.373 31.0689 213.524 35.567 214.677 40.8235C215.83 46.08 214.846 51.4659 211.905 55.9909C208.966 60.5142 204.423 63.634 199.113 64.7751C193.804 65.9163 188.363 64.9422 183.793 62.031C179.224 59.1215 176.072 54.6234 174.92 49.3669Z" stroke="white" stroke-width="2" stroke-miterlimit="10"/>
<path d="M189.626 49.0439C190.065 49.0026 190.446 48.9038 190.769 48.7492C191.092 48.5947 191.377 48.3646 191.622 48.0609C191.868 47.7554 192.084 47.3727 192.272 46.909C192.459 46.4472 192.634 45.8865 192.791 45.2305C193.073 44.1002 193.383 43.0686 193.719 42.1359C194.057 41.2032 194.472 40.3928 194.966 39.7027C195.46 39.0144 196.061 38.4591 196.77 38.0368C197.48 37.6145 198.348 37.3557 199.374 37.2568C200.263 37.1724 201.091 37.2514 201.853 37.4941C202.616 37.7367 203.298 38.123 203.899 38.6514C204.5 39.1797 205.01 39.8321 205.427 40.6084C205.847 41.3848 206.152 42.2707 206.342 43.2663L209.702 42.9464L209.962 45.6241L206.555 45.9476C206.522 46.9198 206.35 47.8129 206.037 48.6324C205.725 49.4501 205.288 50.1617 204.723 50.7674C204.159 51.373 203.469 51.8636 202.654 52.2392C201.839 52.6148 200.909 52.852 199.862 52.9526L199.394 48.1149C200.65 47.9962 201.563 47.6296 202.133 47.0186C202.701 46.4076 202.942 45.6385 202.852 44.7112C202.803 44.2098 202.69 43.7839 202.514 43.4334C202.338 43.0848 202.115 42.8045 201.846 42.5924C201.577 42.3821 201.27 42.2366 200.924 42.1557C200.577 42.0766 200.21 42.0551 199.824 42.091C199.437 42.127 199.09 42.2168 198.787 42.3588C198.484 42.5007 198.212 42.72 197.972 43.0183C197.733 43.3166 197.515 43.703 197.324 44.1774C197.132 44.6519 196.943 45.2359 196.756 45.9296C196.453 47.051 196.13 48.0753 195.787 49.0026C195.444 49.9299 195.022 50.7386 194.523 51.4287C194.024 52.117 193.42 52.6741 192.712 53.0964C192.002 53.5187 191.14 53.7775 190.125 53.8745C189.205 53.9626 188.36 53.8817 187.598 53.6337C186.834 53.3857 186.157 52.9958 185.567 52.4674C184.977 51.9373 184.479 51.2777 184.075 50.4888C183.67 49.6999 183.372 48.8067 183.182 47.8111L180.056 48.1077L179.8 45.4498L182.909 45.1551C182.913 44.2206 183.031 43.304 183.261 42.4109C183.492 41.5159 183.87 40.7055 184.398 39.9812C184.924 39.2552 185.618 38.6496 186.48 38.1626C187.342 37.6756 188.4 37.3719 189.657 37.2532L190.125 42.091C189.382 42.1611 188.771 42.3228 188.293 42.578C187.816 42.8314 187.444 43.1459 187.181 43.5197C186.916 43.8935 186.745 44.3068 186.667 44.7597C186.589 45.2126 186.572 45.6672 186.618 46.1237C186.669 46.6484 186.781 47.1013 186.955 47.4859C187.13 47.8687 187.351 48.1831 187.618 48.4275C187.885 48.672 188.19 48.8463 188.533 48.9487C188.872 49.0475 189.237 49.0817 189.626 49.0439Z" stroke="white" stroke-width="2" stroke-miterlimit="10"/>
<path d="M259.697 260.936C252.73 259.861 245.957 266.697 242.9 271.045C240.911 273.87 234.77 273.505 233.447 273.39C233.447 273.39 232.584 269.181 242.37 256.231C244.481 253.439 250.918 242.917 250.918 242.917C253.461 242.304 260.423 246.8 262.514 248.071" stroke="white" stroke-width="2" stroke-miterlimit="10"/>
<path d="M318.506 286.13C326.843 290.15 335.139 294.292 340.614 297.044C347.337 300.061 355.232 300.061 356.84 294.206C362.222 274.6 344.46 204.495 344.46 204.495" stroke="white" stroke-width="2" stroke-miterlimit="10"/>
<path d="M278.143 249.027C268.362 248.281 262.508 248.072 262.508 248.072L259.507 261.784C264.34 263.107 272.819 266.201 279.188 268.692" stroke="white" stroke-width="2" stroke-miterlimit="10"/>
<path d="M219.939 276.107C215.457 276.102 212.544 276.145 212.043 276.154C211.979 276.114 211.914 276.075 211.839 276.028C209.75 274.758 201.825 270.588 199.28 271.201C199.28 271.201 192.841 281.721 190.732 284.516C180.946 297.467 181.808 301.674 181.808 301.674C183.133 301.789 189.274 302.152 191.262 299.329C194.319 294.984 201.044 288.139 208.011 289.213C208.236 289.249 208.461 289.289 208.686 289.343C208.688 289.343 208.688 289.343 208.69 289.343V289.345C211.79 290 215.326 290.924 219.175 292.062" stroke="white" stroke-width="2" stroke-miterlimit="10"/>
<path d="M333.213 26.5633C333.213 26.5633 333.07 26.0026 331.676 25.3485C330.284 24.6961 328.819 23.032 328.55 21.42C328.283 19.8116 326.615 16.8069 327.089 16.4906C328.232 15.7233 329.953 20.3975 330.964 20.6059C331.879 20.7946 332.17 20.1531 332.219 20.0273C332.22 20.0183 332.224 20.0111 332.226 20.0021C333.816 16.1833 330.881 6.54194 333.206 6.0064C334.076 5.80872 338.968 10.4236 339.681 12.0482C341.353 15.8616 342.691 20.8629 341.558 23.5011C340.275 26.4914 340.199 26.6478 340.199 26.6478" stroke="white" stroke-width="2" stroke-miterlimit="10" stroke-linecap="round" stroke-linejoin="round"/>
<path d="M181.333 91.3393C181.004 90.9116 178.944 88.6778 178.902 87.1503C178.862 85.6246 177.916 83.6262 176.537 82.7331C175.157 81.8417 173.055 79.1155 172.572 79.4192C171.401 80.1453 175.025 83.5921 174.809 84.5931C174.614 85.497 173.903 85.5024 173.768 85.4952C173.759 85.4934 173.752 85.4934 173.743 85.4916C169.572 85.3874 161.849 78.8334 160.415 80.7221C159.88 81.4302 162.167 87.7254 163.38 89.0265C166.228 92.0815 170.308 95.3145 173.202 95.354C176.484 95.4007 177.226 96.0729 177.226 96.0729" stroke="white" stroke-width="2" stroke-miterlimit="10"/>
<path d="M277.434 234.296C277.677 242.877 278.443 252.621 279.099 266.947C279.311 271.593 279.748 276.078 280.367 280.359C261.952 276.697 233.636 276.147 219.931 276.109C219.931 276.109 217.655 281.123 217.753 285.127C217.961 293.658 222.361 299.297 222.361 299.297C253.426 308.493 301.177 324.018 301.177 324.018C301.177 324.018 301.181 324.003 301.186 323.982C304.369 324.799 307.366 323.223 309.749 318.707C317.565 303.89 324.451 244.899 328.597 215.673" stroke="white" stroke-width="2" stroke-miterlimit="10" stroke-linecap="round" stroke-linejoin="round"/>
<path d="M287.123 105.914C286.569 104.183 285.865 101.984 285.633 101.308C284.275 97.3724 283.16 94.8151 282.697 93.798C285.84 91.4725 287.949 89.1651 287.949 89.1651C290.79 85.641 281.336 73.6454 275.759 68.3691" stroke="white" stroke-width="2" stroke-miterlimit="10"/>
<path d="M262.326 90.7461C262.834 91.1774 263.406 91.8621 263.582 92.27C263.838 92.8703 263.945 93.2926 263.811 93.7634C263.809 94.2181 263.634 94.6709 263.288 94.9693C263.585 95.237 263.883 95.5084 264.183 95.7869C264.58 96.1535 264.985 96.4752 265.395 96.7609C266.998 101.714 267.327 106.433 267.209 109.617" stroke="white" stroke-width="2" stroke-miterlimit="10"/>
<path d="M263.396 94.8275C263.396 94.8275 264.847 93.2353 262.748 91.1669C260.65 89.0984 258.261 86.1135 260.581 85.1969C262.901 84.2804 264.184 85.6911 264.259 84.2193C264.333 82.7475 261.418 79.0833 266.787 74.4486C272.157 69.8139 275.962 69.954 277.65 66.7876C279.336 63.6229 276.359 59.6316 276.359 59.6316C276.359 59.6316 276.733 61.5976 275.974 62.9149C275.974 62.9149 275.602 53.6616 267.377 53.5808C259.151 53.5017 256.154 60.1419 253.396 62.5932C247.321 67.9934 243.501 71.6128 244.745 77.4048C245.988 83.1968 256.096 94.0494 263.396 94.8275Z" stroke="white" stroke-width="2" stroke-miterlimit="10" stroke-linecap="round" stroke-linejoin="round"/>
<path d="M278.28 86.4118L283.53 81.522C283.53 81.522 285.665 84.7639 284.167 86.1728C282.668 87.5799 278.28 86.4118 278.28 86.4118Z" stroke="white" stroke-width="2" stroke-miterlimit="10" stroke-linecap="round" stroke-linejoin="round"/>
<path d="M179.076 101.394C184.542 110.946 197.951 132.726 208.775 137.408C216.456 140.731 233.327 144.727 247.106 147.682C252.554 148.85 256.921 152.85 258.573 158.121C259.715 161.767 260.299 163.706 261.156 167.232" stroke="white" stroke-width="2" stroke-miterlimit="10"/>
<path d="M264.514 116.222C264.514 116.222 220.885 117.076 214.234 113.923C209.36 111.612 193.756 100.454 185.969 94.8582" stroke="white" stroke-width="2" stroke-miterlimit="10"/>
<path d="M333.444 32.2637C333.673 38.6541 334.047 50.9714 333.922 59.8957C333.835 66.1532 331.07 71.8122 330.32 72.815C328.035 75.8413 294.287 107.134 293.16 108.157" stroke="white" stroke-width="2" stroke-miterlimit="10"/>
<path d="M263.687 179.26C269.171 210.45 265.001 234.407 265.001 234.407C265.001 234.407 277.425 235.786 292.891 231.532C313 226.002 327.692 217.042 327.692 217.042C333.361 210.24 330.01 185.298 330.01 185.298C330.01 185.298 333.924 189.482 335.235 196.469C336.179 201.504 336.687 204.288 337.001 206.056C337.297 207.719 339.255 208.497 340.626 207.49C343.532 205.361 347.68 202.043 348.976 199.608C353.503 191.103 343.436 156.46 329.529 132.288C327.044 127.967 327.133 122.653 329.789 118.434C338.344 104.848 351.494 83.3026 351.657 78.977C351.744 76.6336 350.94 65.3425 349.646 57.4389C348.136 48.1893 344.335 37.6961 342.171 32.2275" stroke="white" stroke-width="2" stroke-miterlimit="10"/>
<path d="M300.807 135.109C296.951 125.567 291.718 119.987 289.783 118.141C288.815 118.643 287.004 119.014 285.791 119.376C287.869 122.654 296.029 137.086 288.463 151.091C279.861 167.018 246.064 164.819 239.809 184.714L243.612 197.102L257.74 189.525C257.74 189.525 258.922 178.768 272.823 174.095C299.968 164.971 306.503 149.211 300.807 135.109Z" stroke="white" stroke-width="2" stroke-miterlimit="10" stroke-linecap="round" stroke-linejoin="round"/>
<path d="M280.826 114.071L280.825 114.067L267.219 109.617C265.43 112.362 264.527 116.224 264.527 116.224L281.496 116.622L281.483 116.574C280.494 115.763 279.412 114.788 280.826 114.071Z" stroke="white" stroke-width="2" stroke-miterlimit="10" stroke-linecap="round" stroke-linejoin="round"/>
<path d="M287.119 105.914L287.482 111.505C288.489 111.478 289.366 112.538 289.546 113.719C290.352 112.365 293.156 108.153 293.156 108.153C293.156 108.153 289.96 106.636 287.119 105.914Z" stroke="white" stroke-width="2" stroke-miterlimit="10" stroke-linecap="round" stroke-linejoin="round"/>
<path d="M280.819 114.065L287.756 111.747C288.391 111.535 289.065 111.954 289.146 112.613L289.716 117.228C289.778 117.722 289.48 118.189 289.005 118.349L285.951 119.372C285.619 119.483 285.254 119.424 284.975 119.216L280.522 115.895C279.841 115.39 280.012 114.336 280.819 114.065Z" stroke="white" stroke-width="2" stroke-miterlimit="10" stroke-linecap="round" stroke-linejoin="round"/>
<path d="M332.871 26.4644L332.259 32.2474C332.259 32.2474 339.633 32.3588 339.633 32.2474C339.633 32.136 339.856 29.381 339.856 29.381L341.085 32.5798L343.822 31.6957L340.687 26.4644C340.687 26.4644 337.561 27.9254 332.871 26.4644Z" stroke="white" stroke-width="2" stroke-miterlimit="10" stroke-linecap="round" stroke-linejoin="round"/>
<path d="M181.595 91.0391L176.79 96.5777L178.2 101.983L180.155 100.655L179.191 96.5939L182.557 99.329L186.913 93.6323L181.595 91.0391Z" stroke="white" stroke-width="2" stroke-miterlimit="10" stroke-linecap="round" stroke-linejoin="round"/>
<path d="M180.81 95.6327C180.81 95.205 181.16 94.8582 181.592 94.8582C182.024 94.8582 182.375 95.205 182.375 95.6327C182.375 96.0604 182.024 96.4073 181.592 96.4073C181.16 96.4091 180.81 96.0622 180.81 95.6327Z" stroke="white" stroke-width="2" stroke-miterlimit="10"/>
<path d="M336.13 29.9545C336.13 29.5088 336.495 29.1494 336.945 29.1494C337.394 29.1494 337.759 29.5106 337.759 29.9545C337.759 30.4002 337.394 30.7614 336.945 30.7614C336.493 30.7596 336.13 30.4002 336.13 29.9545Z" fill="white" stroke="white" stroke-width="2" stroke-miterlimit="10"/>
<path d="M326.675 164.75C326.675 164.231 327.1 163.81 327.624 163.81C328.149 163.81 328.574 164.231 328.574 164.75C328.574 165.27 328.149 165.69 327.624 165.69C327.101 165.69 326.675 165.27 326.675 164.75Z" stroke="white" stroke-width="2" stroke-miterlimit="10"/>
<path d="M319.134 149.197C319.134 148.678 319.558 148.257 320.083 148.257C320.608 148.257 321.032 148.678 321.032 149.197C321.032 149.716 320.608 150.137 320.083 150.137C319.558 150.137 319.134 149.716 319.134 149.197Z" stroke="white" stroke-width="2" stroke-miterlimit="10"/>
<path d="M308.742 137.427C308.742 136.908 309.167 136.488 309.691 136.488C310.216 136.488 310.641 136.908 310.641 137.427C310.641 137.947 310.216 138.367 309.691 138.367C309.169 138.367 308.742 137.947 308.742 137.427Z" stroke="white" stroke-width="2" stroke-miterlimit="10"/>
</svg>
