<svg width="8" height="8" viewBox="0 0 8 8" fill="none" xmlns="http://www.w3.org/2000/svg">
<path d="M3.54127 0.557866C3.71535 0.156426 4.28465 0.156426 4.45873 0.557866L5.10457 2.04723C5.17702 2.21431 5.33458 2.32878 5.51586 2.34606L7.13191 2.50005C7.56749 2.54155 7.74342 3.08299 7.41542 3.3726L6.19852 4.44707C6.06201 4.5676 6.00183 4.75282 6.04142 4.93058L6.39435 6.51511C6.48948 6.9422 6.02891 7.27683 5.65212 7.05438L4.2542 6.22907C4.09738 6.13649 3.90262 6.13649 3.7458 6.22907L2.34788 7.05438C1.97109 7.27683 1.51052 6.9422 1.60565 6.51511L1.95858 4.93058C1.99817 4.75282 1.93799 4.5676 1.80148 4.44707L0.584581 3.3726C0.256582 3.08299 0.432506 2.54155 0.868091 2.50005L2.48414 2.34606C2.66542 2.32878 2.82298 2.21431 2.89543 2.04723L3.54127 0.557866Z" fill="#FE8D00"/>
</svg>
