<svg width="15" height="14" viewBox="0 0 15 14" fill="none" xmlns="http://www.w3.org/2000/svg">
<path fill-rule="evenodd" clip-rule="evenodd" d="M10.6675 12.9423C11.5063 13.3092 11.8208 12.5404 11.8208 12.5404L14.04 1.39192C14.0226 0.640536 13.0091 1.09486 13.0091 1.09486L0.585011 5.97013C0.585011 5.97013 -0.00910738 6.17981 0.0433148 6.54677C0.095737 6.91372 0.567537 7.08847 0.567537 7.08847L3.69539 8.13691C3.69539 8.13691 4.63899 11.2298 4.83121 11.8239C5.00595 12.4006 5.16322 12.4181 5.16322 12.4181C5.33796 12.488 5.49522 12.3656 5.49522 12.3656L7.52221 10.5309L10.6675 12.9423ZM11.2092 3.36645C11.2092 3.36645 11.6461 3.10433 11.6286 3.36645C11.6286 3.36645 11.6985 3.40139 11.4713 3.64603C11.2617 3.85572 6.3165 8.29413 5.65248 8.88825C5.60006 8.9232 5.56511 8.97562 5.56511 9.04552L5.3729 10.6881C5.33795 10.8628 5.11079 10.8803 5.05837 10.723L4.23708 8.03202C4.20214 7.92718 4.23708 7.80486 4.34193 7.73496L11.2092 3.36645Z" fill="white"/>
</svg>
