<svg width="350" height="265" viewBox="0 0 350 265" fill="none" xmlns="http://www.w3.org/2000/svg">
<path d="M138.48 102.416C138.48 102.416 121.755 110.497 115.066 120.289C108.376 130.081 110.329 148.159 120.632 154.006C130.935 159.853 166.898 181.327 192.266 178.263C217.633 175.199 213.726 149.27 200.909 138.954C188.091 128.639 170.805 119.447 170.805 119.447C170.805 119.447 169.975 113.88 168.852 111.927C167.728 109.974 154.923 97.3987 138.48 102.416Z" fill="#444444" stroke="#444444" stroke-linecap="round" stroke-linejoin="round"/>
<path d="M206.373 145.057C168.405 133.439 143.395 154.236 135.556 162.202C151.259 170.36 174.392 180.382 192.266 178.224C213.484 175.658 214.211 157.083 206.373 145.057Z" fill="white" stroke="#444444" stroke-linecap="round" stroke-linejoin="round"/>
<path d="M180.559 141.993C180.559 141.993 202.862 159.866 195.049 177.662" stroke="#444444" stroke-linecap="round" stroke-linejoin="round"/>
<path d="M107.355 94.6283L98.418 136.311H105.606L123.326 103.463C123.326 103.463 119.866 92.9304 107.355 94.6283Z" fill="white" stroke="#444444" stroke-linecap="round" stroke-linejoin="round"/>
<path d="M219.676 74.4059C212.36 65.4693 202.696 57.1837 184.989 55.7666C184.989 55.7666 169.898 55.2943 149.37 64.0267C133.322 70.8441 116.176 85.73 107.355 94.6666C115.244 96.671 119.943 99.9009 123.339 103.501C126.837 100.169 129.888 97.271 132.135 95.4454C139.693 89.3046 150.787 84.1213 150.787 84.1213C150.787 84.1213 138.748 100.629 136.386 104.88C134.024 109.131 135.684 115.974 148.182 117.864C160.681 119.753 163.758 117.391 168.711 114.557C173.665 111.723 179.805 109.131 182.167 109.131C186.887 109.466 191.571 108.108 195.381 105.301C201.509 101.05 204.113 89.0237 206.232 88.079C207.688 87.4279 220.569 104.229 230.604 116.842L231.472 116.395C235.838 114.148 239.247 109.565 241.583 105.531C233.464 93.6708 224.412 80.202 219.676 74.4059Z" fill="#747CA5" stroke="#444444" stroke-linecap="round" stroke-linejoin="round"/>
<path d="M177.38 63.6947C177.38 63.6947 172.375 75.7336 182.397 80.2913" stroke="#444444" stroke-linecap="round" stroke-linejoin="round"/>
<path d="M150.787 84.083L161.664 80.8658" stroke="#444444" stroke-linecap="round" stroke-linejoin="round"/>
<path d="M150.646 105.084C150.646 105.084 157.502 111.135 173.55 104.293" stroke="#444444" stroke-linecap="round" stroke-linejoin="round"/>
<path d="M213.267 83.4958C209.309 84.0192 206.232 88.0918 206.232 88.0918C210.799 87.1189 215.443 86.5507 220.11 86.3938" stroke="#444444" stroke-linecap="round" stroke-linejoin="round"/>
<path d="M151.144 85.0788C151.144 85.0788 158.511 85.0788 165.622 84.8107" stroke="#444444" stroke-linecap="round" stroke-linejoin="round"/>
<path d="M155.089 101.918C155.089 101.918 155.881 106.667 166.145 106.131" stroke="#444444" stroke-linecap="round" stroke-linejoin="round"/>
<path d="M182.397 59.7753C182.397 59.7753 180.75 68.2652 181.925 72.7462C183.099 77.2273 187.35 82.4234 190.427 76.9975C193.504 71.5717 195.138 65.5076 195.138 62.6095C195.138 59.7115 184.516 54.3495 182.397 59.7753Z" fill="white" stroke="#444444" stroke-linecap="round" stroke-linejoin="round"/>
<path d="M206.232 49.1535C206.232 49.1535 212.833 47.7364 218.501 40.4211C224.17 33.1058 216.854 32.1739 214.492 25.1012C212.131 18.0284 220.442 20.3775 208.415 8.10875C196.389 -4.15999 176.793 0.0913005 167.562 4.10003C158.332 8.10875 158.626 21.5648 152 22.5095C145.374 23.4543 142.552 17.0837 134.535 17.0837C126.517 17.0837 118.015 25.5735 121.321 32.6462C124.628 39.719 130.999 36.6677 131.471 35.4804C131.943 34.2931 128.164 35.723 127.922 32.1739C127.679 28.6248 136.412 30.527 139.016 35.2506C141.123 39.0806 137.254 44.5192 137.382 48.5407C137.65 56.6092 147.531 61.767 153.876 62.8777C162.443 64.3714 172.86 63.8479 180.623 59.5966C190.159 54.3623 185.729 43.5107 192.751 40.6765C199.772 37.8423 203.373 42.0936 203.373 42.0936L206.232 49.1535Z" fill="#444444" stroke="#444444" stroke-linecap="round" stroke-linejoin="round"/>
<path d="M134.114 21.4626C132.898 20.9344 131.56 20.7515 130.247 20.9339C128.934 21.1163 127.696 21.6571 126.671 22.4967" stroke="white" stroke-linecap="round" stroke-linejoin="round"/>
<path d="M197.079 28.0758C197.079 28.0758 197.079 14.0325 187.223 11.1728C177.367 8.31307 166.107 21.0287 160.413 29.0461C154.719 37.0636 146.369 35.1486 140.229 26.697C139.651 25.8823 139.011 25.114 138.314 24.3991" stroke="white" stroke-linecap="round" stroke-linejoin="round"/>
<path d="M141.225 54.4134C146.331 57.6944 150.161 58.6391 157.655 56.2901C165.149 53.941 164.23 41.7361 170.792 35.174C177.354 28.612 189.099 30.9483 189.099 30.9483C189.099 30.9483 175.963 23.9011 165.634 31.4079C155.306 38.9147 156.238 51.5919 146.855 53.941" stroke="white" stroke-linecap="round" stroke-linejoin="round"/>
<path d="M203.654 29.5312C203.654 29.5312 212.59 27.1821 212.105 19.2029" stroke="white" stroke-linecap="round" stroke-linejoin="round"/>
<path d="M130.118 119.996C130.118 119.996 154.374 123.06 166.63 131.486" stroke="white" stroke-linecap="round" stroke-linejoin="round"/>
<path d="M198.534 32.5696C197.023 32.1363 195.419 32.1467 193.914 32.5994C192.409 33.0521 191.065 33.9281 190.044 35.123C186.035 39.3615 186.214 41.5063 182.869 44.149C181.872 45.0211 180.614 45.5401 179.292 45.6255C177.969 45.7109 176.656 45.358 175.554 44.6214C174.137 43.9192 172.49 44.3916 172.018 47.6854C171.545 50.9792 176.026 53.5836 176.741 53.5836C177.452 53.6221 178.16 53.7031 178.861 53.8261C178.861 53.8261 178.861 59.7243 182.869 63.2607C186.878 66.797 194.908 72.4654 200.334 71.2909C205.76 70.1164 207.879 57.605 207.879 51.2345C207.681 44.7751 206.408 38.3938 204.113 32.3526C202.453 28.6248 198.534 32.5696 198.534 32.5696Z" fill="white" stroke="#444444" stroke-linecap="round" stroke-linejoin="round"/>
<path d="M194.053 46.9066C194.053 48.1832 193.593 49.2811 193.006 49.2811C192.419 49.2811 191.946 48.2215 191.946 46.9066C191.946 45.5916 192.419 44.5447 193.006 44.5447C193.593 44.5447 194.053 45.6044 194.053 46.9066Z" fill="#444444"/>
<path d="M202.466 46.115C202.466 47.3917 201.994 48.4896 201.419 48.4896C200.845 48.4896 200.36 47.43 200.36 46.115C200.36 44.8 200.832 43.7532 201.419 43.7532C202.006 43.7532 202.466 44.8128 202.466 46.115Z" fill="#444444"/>
<path d="M189.048 42.1191C189.048 42.1191 190.619 39.7573 194.576 40.8425" stroke="#444444" stroke-linecap="round" stroke-linejoin="round"/>
<path d="M199.045 40.8424C199.045 40.8424 201.675 37.9444 204.049 40.8424" stroke="#444444" stroke-linecap="round" stroke-linejoin="round"/>
<path d="M198.789 46.115C198.789 46.115 199.045 51.3876 200.628 51.3876C202.211 51.3876 201.675 53.7494 199.568 54.541" stroke="#444444" stroke-linecap="round" stroke-linejoin="round"/>
<path d="M197.462 59.8136C197.462 59.8136 192.725 61.9201 190.887 57.1709" stroke="#444444" stroke-linecap="round" stroke-linejoin="round"/>
<path d="M198.572 176.348C198.572 176.348 171.762 152.831 143.982 144.827C116.202 136.822 84.2343 140.588 56.4668 133.069C28.6994 125.549 12.7156 115.195 12.7156 115.195L11.2985 140.129L197.691 190.48L325.205 155.193L337.907 129.315C337.907 129.315 322.383 137.307 294.616 143.895C266.848 150.482 235.736 150.47 218.31 157.019C200.883 163.568 198.572 176.348 198.572 176.348Z" fill="white" stroke="#444444" stroke-linecap="round" stroke-linejoin="round"/>
<path d="M8.47702 120.825C8.47702 120.825 39.5766 139.656 109.64 146.244C155.791 150.572 198.572 176.348 198.572 176.348C217.318 164.362 238.899 157.544 261.129 156.585C297.833 155.18 339.708 140.588 339.708 140.588L331.728 157.019L194.806 183.829L5.65558 134.422L8.47702 120.825Z" fill="white" stroke="#444444" stroke-linecap="round" stroke-linejoin="round"/>
<path d="M3.30654 126.481C29.7757 138.436 58.1062 145.743 87.0557 148.082C137.395 151.848 197.155 176.309 197.155 176.309C197.155 176.309 228.676 159.381 263.542 159.381C289.438 159.16 315.203 155.681 340.231 149.027C339.453 151.628 339.26 154.368 339.666 157.052C340.072 159.736 341.067 162.297 342.58 164.551L196.683 195.638L2.36182 139.146L3.30654 126.481Z" fill="white" stroke="#444444" stroke-linecap="round" stroke-linejoin="round"/>
<path d="M4.25129 137.652L190.568 184.352V190.94L206.564 191.412V183.829L346.78 161.717C346.78 161.717 352.895 160.3 347.725 167.36C342.554 174.42 252.205 252.998 252.205 252.998L151.987 263.352L0 229.993L0.90644 140.231C0.909268 139.824 1.00473 139.423 1.18561 139.058C1.36649 138.693 1.62801 138.375 1.95037 138.126C2.27273 137.878 2.64746 137.706 3.04612 137.624C3.44479 137.541 3.85693 137.551 4.25129 137.652Z" fill="#747CA5"/>
<path opacity="0.3" d="M190.568 190.94V184.352L0.944735 136.835L0.0127563 229.993L151.987 263.403L154.706 263.122L194.819 191.068L190.568 190.94Z" fill="#444444"/>
<path d="M4.25129 137.652L190.568 184.352V190.94L206.564 191.412V183.829L346.78 161.717C346.78 161.717 352.895 160.3 347.725 167.36C342.554 174.42 252.205 252.998 252.205 252.998L151.987 263.352L0 229.993L0.90644 140.231C0.909268 139.824 1.00473 139.423 1.18561 139.058C1.36649 138.693 1.62801 138.375 1.95037 138.126C2.27273 137.878 2.64746 137.706 3.04612 137.624C3.44479 137.541 3.85693 137.551 4.25129 137.652Z" stroke="#444444" stroke-linecap="round" stroke-linejoin="round"/>
<path d="M190.568 190.94L148.693 263.403L156.698 263.863L206.564 191.412L190.568 190.94Z" fill="#747CA5" stroke="#444444" stroke-linecap="round" stroke-linejoin="round"/>
<path d="M330.324 164.679C330.324 164.679 342.823 167.015 340.218 175.352L347.725 167.385C347.725 167.385 351.159 163.109 349.589 162.279C348.019 161.449 330.324 164.679 330.324 164.679Z" fill="#444444"/>
<path d="M21.5245 142.388C21.5245 142.388 3.84272 147.278 1.0979 160.491L0.944702 140.231C0.944702 140.231 1.4809 137.179 4.2768 137.677C7.07269 138.175 21.5245 142.388 21.5245 142.388Z" fill="#444444"/>
<path d="M0.178729 223.788L9.06432 232.253L0.0127563 229.993L0.178729 223.788Z" fill="#444444"/>
<path d="M245.809 253.599L257.861 247.675L251.516 253.177L245.809 253.599Z" fill="#444444"/>
<path d="M241.583 105.544L275.491 146.193L266.95 147.546L230.604 116.906C230.604 116.906 240.013 110.74 241.583 105.544Z" fill="white" stroke="#444444" stroke-linecap="round" stroke-linejoin="round"/>
<path d="M91.2176 132.583C91.2176 132.583 89.5197 130.528 89.0856 132.366C88.6516 134.205 84.8088 140.588 87.809 141.035C90.8091 141.482 92.5071 134.192 92.5071 134.192L91.2176 132.583Z" fill="white" stroke="#444444" stroke-linecap="round" stroke-linejoin="round"/>
<path d="M95.2774 132.341C95.2774 132.341 93.5667 130.286 93.1454 132.111C92.7241 133.937 88.8686 140.333 91.8687 140.792C94.8689 141.252 96.5796 133.937 96.5796 133.937L95.2774 132.341Z" fill="white" stroke="#444444" stroke-linecap="round" stroke-linejoin="round"/>
<path d="M99.35 132.188C99.35 132.188 97.3201 129.903 96.7967 131.932C96.2733 133.962 91.6901 141.061 95.2775 141.571C98.8649 142.082 100.856 133.911 100.856 133.911L99.35 132.188Z" fill="white" stroke="#444444" stroke-linecap="round" stroke-linejoin="round"/>
<path d="M102.899 132.954L109.742 139.541H101.635L102.899 132.954Z" fill="white" stroke="#444444" stroke-linecap="round" stroke-linejoin="round"/>
<path d="M102.899 132.954C102.899 132.954 100.869 130.669 100.346 132.698C99.8224 134.728 95.2392 141.827 98.8266 142.325C102.414 142.822 104.406 134.665 104.406 134.665L102.899 132.954Z" fill="white" stroke="#444444" stroke-linecap="round" stroke-linejoin="round"/>
<path d="M284.696 138.865C284.696 138.865 286.062 136.567 286.777 138.303C287.492 140.039 292.279 145.759 289.407 146.678C286.535 147.597 283.688 140.652 283.688 140.652L284.696 138.865Z" fill="white" stroke="#444444" stroke-linecap="round" stroke-linejoin="round"/>
<path d="M280.687 139.248C280.687 139.248 282.053 136.95 282.768 138.686C283.483 140.422 288.284 146.142 285.398 147.061C282.513 147.98 279.679 141.035 279.679 141.035L280.687 139.248Z" fill="white" stroke="#444444" stroke-linecap="round" stroke-linejoin="round"/>
<path d="M276.653 139.746C276.653 139.746 278.3 137.192 279.117 139.094C279.934 140.997 285.5 147.316 282.13 148.376C278.76 149.435 275.428 141.737 275.428 141.737L276.653 139.746Z" fill="white" stroke="#444444" stroke-linecap="round" stroke-linejoin="round"/>
<path d="M273.27 141.06L267.538 148.644L275.555 147.367L273.27 141.06Z" fill="white" stroke="#444444" stroke-linecap="round" stroke-linejoin="round"/>
<path d="M273.27 141.061C273.27 141.061 274.904 138.507 275.734 140.41C276.564 142.312 282.117 148.618 278.747 149.678C275.376 150.738 272.044 143.052 272.044 143.052L273.27 141.061Z" fill="white" stroke="#444444" stroke-linecap="round" stroke-linejoin="round"/>
</svg>
