<svg width="125" height="153" viewBox="0 0 125 153" fill="none" xmlns="http://www.w3.org/2000/svg">
<g filter="url(#filter0_d_1155_2629)">
<path d="M30 35C30 29.4772 34.4772 25 40 25H85C90.5229 25 95 29.4772 95 35V112.267C95 116.812 89.4281 118.999 86.3359 115.669C79.457 108.261 73.7502 102.116 66.1661 93.9481C64.188 91.8178 60.8142 91.8155 58.836 93.9458L38.664 115.67C35.5718 119 30 116.812 30 112.267V35Z" fill="#747CA5"/>
</g>
<g clip-path="url(#clip0_1155_2629)">
<path d="M54.8922 67.5275C53.466 64.4812 52.9184 61.2866 53.2721 57.9437C55.1888 57.1679 58.3606 57.6813 60.072 60.3168C61.8062 62.9866 61.1103 67.0027 57.8358 68.7483C59.1593 70.6879 60.825 72.2396 62.8331 73.449C64.8525 72.251 66.5069 70.6879 67.8532 68.7369C67.7619 68.6799 67.682 68.6342 67.5908 68.5772C66.0847 67.6645 65.1264 66.3524 64.7841 64.6182C64.168 61.5376 66.1076 58.5142 69.1653 57.7726C70.1693 57.5216 71.1733 57.5444 72.1659 57.8296C72.4055 57.8981 72.4283 57.8981 72.4283 58.1377C72.4511 58.9819 72.5082 59.8376 72.4854 60.6819C72.4397 62.2564 72.1545 63.7967 71.6525 65.2913C71.4357 65.9416 71.1619 66.5692 70.9223 67.2081C70.8881 67.3108 70.8424 67.402 70.7968 67.5047C73.0901 67.9383 76.9236 67.4705 79.9927 64.7094C83.3014 61.7202 84.294 57.3846 83.5296 53.9162C82.7424 54.635 81.9437 55.2967 81.0652 55.8786C80.1753 56.4605 79.2511 56.9625 78.2699 57.3846C77.3001 57.7954 76.3075 58.1262 75.2693 58.3544C75.1894 58.0806 75.2578 57.8182 75.3263 57.5786C75.5431 56.7799 76.0451 56.2095 76.8095 55.9014C77.5055 55.6162 78.2015 55.3081 78.8632 54.9545C80.6202 53.9961 82.1263 52.7525 83.3927 51.2122C83.6437 50.9041 83.8833 50.5733 84.1343 50.2652C84.1571 50.231 84.1913 50.1968 84.2256 50.1625C85.9484 53.2545 86.5074 58.2175 84.0887 62.6101C82.6853 65.1658 80.6773 67.0712 78.0417 68.3148C75.4062 69.5584 72.6565 69.8779 69.7814 69.353C68.4921 71.3725 66.872 73.0725 64.8639 74.4644C66.37 75.0805 67.8988 75.457 69.4733 75.5939C71.0592 75.7309 72.6223 75.6396 74.1854 75.3087C72.7592 78.1839 69.0512 81.4812 64.0653 81.9375C58.3492 82.4624 53.5687 79.2449 51.4694 75.3087C52.5305 75.5027 53.5687 75.6396 54.6184 75.651C55.668 75.651 56.7177 75.5825 57.7445 75.3772C58.7828 75.1832 59.7982 74.8866 60.8136 74.4644C60.5398 74.259 60.3002 74.0879 60.0606 73.9054C58.4861 72.6846 57.1398 71.2356 56.0559 69.5584C55.9533 69.3987 55.8506 69.353 55.6566 69.3873C54.356 69.6269 53.0439 69.6611 51.7318 69.5014C48.8567 69.1363 46.3466 67.9725 44.2245 65.9987C43.0265 64.8806 42.0567 63.5799 41.3379 62.1081C40.5507 60.4994 40.1057 58.7994 40.003 57.0081C39.8889 55.0115 40.2084 53.0833 40.95 51.2236C41.0755 50.9155 41.2124 50.6189 41.3493 50.3223C41.3721 50.2652 41.4178 50.2196 41.4634 50.1511C41.5547 50.2766 41.6345 50.3679 41.703 50.4706C43.5171 52.935 45.856 54.7149 48.7083 55.833C49.4157 56.1068 49.952 56.5518 50.2486 57.2591C50.3855 57.6014 50.4882 57.9665 50.4197 58.3773C47.2593 57.6471 44.5325 56.1524 42.1708 53.939C41.4862 56.7914 42.0453 60.9444 45.0573 64.1047C48.0808 67.2765 52.1197 67.9953 54.8922 67.5275ZM55.8734 77.5792C57.8358 79.2335 60.962 80.3973 64.3049 79.9637C66.1532 79.7241 69.1995 78.4235 69.77 77.5678C69.6787 77.5563 69.6102 77.5449 69.5304 77.5449C68.6518 77.4765 67.7733 77.351 66.9062 77.1456C65.5713 76.8376 64.2821 76.3812 63.0499 75.7765C62.9015 75.708 62.7874 75.6966 62.6391 75.7651C61.7378 76.2215 60.7908 76.5865 59.821 76.8718C58.8969 77.1456 57.9499 77.351 56.9915 77.4537C56.6264 77.4879 56.2727 77.5335 55.8734 77.5792ZM70.5686 59.5638C68.8572 59.541 66.9633 60.7504 66.6438 62.9638C66.4955 63.9792 66.7237 64.9262 67.317 65.7705C67.7049 66.3296 68.2069 66.7745 68.8572 67.0598C70.0438 64.6866 70.6142 62.2108 70.5686 59.5638ZM56.8204 67.0598C58.4063 66.341 59.4445 64.4242 58.9425 62.5074C58.4291 60.5793 56.6378 59.5068 55.1204 59.5638C55.0519 62.1994 55.6338 64.6866 56.8204 67.0598Z" fill="white"/>
<path d="M62.8335 45.4277C62.8792 45.3593 62.9248 45.3022 62.959 45.2452C64.0087 43.5908 65.5033 42.5412 67.3973 42.062C69.759 41.4687 72.1093 40.8526 74.4596 40.2365C75.7603 39.8942 77.0724 39.5633 78.373 39.221C78.4529 39.1982 78.5328 39.1868 78.6469 39.164C78.6469 39.2895 78.6583 39.415 78.6469 39.5177C78.51 40.5445 77.7798 41.3774 76.7643 41.6398C73.7294 42.4271 70.6832 43.1801 67.6597 44.0016C65.8228 44.4922 64.602 45.7015 64.0543 47.527C63.5865 49.0787 63.849 50.5505 64.7503 51.8854C65.5261 53.0149 66.61 53.7223 67.9563 54.0075C70.1583 54.4639 72.3831 53.4143 73.467 51.4747C73.8892 50.7102 74.1174 49.8888 74.1174 49.0217C74.1174 48.5197 74.1972 48.0405 74.4482 47.6069C74.7221 47.1505 75.0872 46.7968 75.612 46.5687C75.6804 46.7512 75.7489 46.9338 75.7945 47.1049C76.9012 51.2693 74.1972 55.274 70.1583 55.9471C69.5879 56.0384 69.0174 56.1183 68.4697 56.2666C67.1691 56.6203 66.0624 57.2934 65.1268 58.2632C64.5563 58.8565 64.0886 59.5068 63.7349 60.2484C63.5523 60.6364 63.3241 61.0015 63.0389 61.3209C62.9704 61.3894 62.902 61.4578 62.8221 61.5377C62.4456 61.184 62.1604 60.7847 61.955 60.3283C61.3617 59.0733 60.4946 58.0464 59.3423 57.2592C58.3611 56.5975 57.2772 56.1639 56.102 56.027C54.9383 55.8901 53.8316 55.5706 52.8504 54.9089C50.9564 53.6539 49.8839 51.8854 49.6329 49.6264C49.5303 48.6452 49.6443 47.6982 49.941 46.7626C49.9638 46.6942 49.998 46.6257 50.0323 46.5458C50.4772 46.7284 50.7967 47.025 51.0705 47.3787C51.4356 47.8693 51.5383 48.4398 51.5383 49.0331C51.5497 49.9915 51.8121 50.8928 52.3369 51.7029C53.1812 53.0263 54.3906 53.8136 55.9309 54.0418C58.0872 54.3612 60.1181 53.3002 61.145 51.5089C62.6624 48.8391 61.5215 45.576 58.9201 44.3324C58.3611 44.07 57.7678 43.9217 57.1745 43.7734C54.5846 43.1002 52.0061 42.4385 49.4162 41.7653C49.2222 41.7197 49.0282 41.6626 48.8343 41.617C47.8303 41.3546 47.0316 40.3734 47.0088 39.3465C47.0088 39.2895 47.0202 39.2439 47.0202 39.1526C47.1685 39.1868 47.294 39.221 47.4309 39.2553C50.5457 40.0539 53.6604 40.864 56.7752 41.6626C57.4597 41.8338 58.1329 41.9935 58.806 42.2103C60.449 42.7237 61.7154 43.7277 62.6624 45.1653C62.708 45.2452 62.7651 45.3364 62.8335 45.4277ZM62.8335 52.4673C62.1147 53.7109 61.1335 54.6236 59.8671 55.2854C61.0537 55.9928 62.0235 56.8827 62.8335 57.9894C63.2557 57.4189 63.6778 56.9055 64.1912 56.4834C64.6933 56.0612 65.2295 55.6733 65.7543 55.2626C64.5221 54.6122 63.5637 53.6881 62.8335 52.4673Z" fill="white"/>
<path d="M77.1741 42.8149C77.1856 43.3284 77.0715 43.7505 76.8319 44.1384C76.4439 44.7773 75.8849 45.1767 75.1547 45.3592C74.1735 45.6102 73.2037 45.8726 72.2225 46.1236C71.15 46.3975 70.0775 46.6713 69.0051 46.9565C68.6856 47.0478 68.3547 47.1391 68.0581 47.276C67.3393 47.6297 66.9628 48.4854 67.0655 49.1928C67.191 50.0256 67.7843 50.6532 68.5829 50.8357C69.5299 51.0525 70.6366 50.4592 70.8762 49.3183C70.9903 48.7706 71.2299 48.2914 71.6178 47.8921C71.8232 47.6867 72.2453 47.4243 72.5077 47.3787C72.6446 47.6069 72.7017 47.8579 72.7587 48.1203C72.9869 49.1699 72.8158 50.1626 72.2453 51.0639C71.6748 51.9538 70.8534 52.5243 69.8265 52.7525C68.0923 53.1404 66.301 52.3417 65.5138 50.733C64.8749 49.4209 64.9433 48.1089 65.7306 46.8538C66.3125 45.9297 67.1682 45.4163 68.2064 45.1539C69.6554 44.7888 71.093 44.4122 72.5305 44.0357C73.7742 43.7163 75.0292 43.3854 76.2728 43.0545C76.5809 42.9633 76.8547 42.8948 77.1741 42.8149Z" fill="white"/>
<path d="M48.4805 42.8149C48.8684 42.9062 49.1993 42.9861 49.5187 43.0659C50.5684 43.3398 51.6294 43.6136 52.6791 43.8874C53.9341 44.2183 55.1892 44.5492 56.4442 44.8914C56.8207 44.9941 57.1972 45.0968 57.5737 45.1881C58.6348 45.4391 59.4334 46.0552 60.0039 46.9565C60.3234 47.4585 60.5059 48.029 60.5401 48.6337C60.5744 49.2726 60.5059 49.8887 60.2435 50.482C59.8213 51.4404 59.1368 52.1364 58.167 52.5471C57.6992 52.7525 57.2086 52.8437 56.7066 52.8437C55.9422 52.8552 55.2234 52.6384 54.5616 52.2162C53.6717 51.6458 53.1241 50.8357 52.8845 49.8203C52.7133 49.1015 52.7704 48.029 53.1583 47.3559C53.4321 47.4357 53.6603 47.584 53.8771 47.7666C54.3677 48.1773 54.6643 48.7136 54.7898 49.3411C54.9039 49.9458 55.2576 50.3793 55.7939 50.6646C56.8891 51.2464 58.2583 50.6189 58.5549 49.3639C58.7831 48.4283 58.1442 47.3444 57.1516 47.0934C55.3261 46.6257 53.5006 46.1351 51.6637 45.6559C51.1959 45.5304 50.7281 45.4277 50.2717 45.2794C49.3134 44.9713 48.7315 44.3096 48.5489 43.317C48.5147 43.1686 48.5033 43.0089 48.4805 42.8149Z" fill="white"/>
<path d="M50.3967 60.6136C50.0772 60.6592 48.8108 60.3284 47.5672 59.8834C46.643 59.5525 45.7531 59.1418 44.8518 58.674C44.9545 59.1874 45.137 59.6096 45.3424 60.0203C45.9128 61.2069 46.7001 62.2223 47.7155 63.0552C48.7309 63.8881 49.8719 64.47 51.1383 64.8008C51.9141 65.0062 52.5188 65.4398 52.8725 66.1814C52.8953 66.227 52.9068 66.284 52.941 66.3753C52.8155 66.3753 52.7128 66.3981 52.6101 66.3867C50.8074 66.227 49.1417 65.6793 47.6356 64.6639C46.586 63.9565 45.6846 63.078 44.9659 62.0284C44.1786 60.8874 43.631 59.621 43.3686 58.2519C43.2316 57.5445 43.129 56.8143 43.186 56.0613C43.2316 56.0841 43.2773 56.0841 43.3001 56.1069C44.2243 56.8029 45.2283 57.3848 46.2665 57.8982C47.0994 58.3089 47.9665 58.6284 48.8564 58.925C49.6095 59.176 50.2484 59.872 50.3967 60.6136Z" fill="white"/>
<path d="M82.4799 56.0498C82.6853 61.3666 78.3041 66.2383 72.7363 66.3753C72.839 66.1128 72.9531 65.8732 73.1357 65.6679C73.5122 65.2343 73.9799 64.9491 74.5276 64.8122C75.2692 64.6296 75.9766 64.3444 76.6497 63.9679C77.5967 63.4316 78.4296 62.7471 79.137 61.9028C79.8672 61.0357 80.392 60.0545 80.7571 58.982C80.7913 58.8907 80.8027 58.788 80.837 58.6625C79.0571 59.5981 77.243 60.2941 75.2692 60.6706C75.3377 60.2941 75.4974 59.9974 75.7142 59.735C76.0679 59.2786 76.547 59.0162 77.0833 58.8451C78.4068 58.4229 79.6618 57.8525 80.8484 57.1223C81.339 56.8142 81.8182 56.4834 82.3088 56.1639C82.3544 56.1183 82.4 56.0954 82.4799 56.0498Z" fill="white"/>
<path d="M56.6035 40.6929C59.5129 37.1218 65.6968 36.7452 69.0967 40.6929C69.0511 40.7157 69.0055 40.7499 68.9598 40.7613C68.3551 40.9211 67.7504 41.0694 67.1458 41.2291C66.9974 41.2633 66.8947 41.2519 66.7692 41.1493C66.233 40.7271 65.6397 40.4191 65.0008 40.1909C64.4075 39.9855 63.7914 39.8486 63.1639 39.8258C61.9659 39.7687 60.8364 40.0311 59.7753 40.6016C59.4787 40.7613 59.2048 40.9553 58.931 41.1493C58.8283 41.2291 58.7257 41.2633 58.6002 41.2291C57.9498 41.058 57.2995 40.8868 56.6492 40.7271C56.6263 40.7271 56.6149 40.7043 56.6035 40.6929Z" fill="white"/>
<path d="M67.5109 78.3551C64.3962 79.7927 61.3043 79.7813 58.1553 78.3551C58.3721 78.2068 58.5774 78.1726 58.7714 78.1612C59.1479 78.1383 59.513 78.184 59.8781 78.2981C60.5512 78.5148 61.2472 78.6518 61.9546 78.7202C62.6277 78.7887 63.3009 78.7659 63.974 78.6974C64.6358 78.6289 65.2747 78.4692 65.9136 78.2638C66.3928 78.1041 66.8834 78.1041 67.3626 78.2524C67.3968 78.2638 67.4311 78.2753 67.4653 78.2867C67.4653 78.2981 67.4767 78.3209 67.5109 78.3551Z" fill="white"/>
</g>
<defs>
<filter id="filter0_d_1155_2629" x="0" y="0" width="125" height="152.277" filterUnits="userSpaceOnUse" color-interpolation-filters="sRGB">
<feFlood flood-opacity="0" result="BackgroundImageFix"/>
<feColorMatrix in="SourceAlpha" type="matrix" values="0 0 0 0 0 0 0 0 0 0 0 0 0 0 0 0 0 0 127 0" result="hardAlpha"/>
<feOffset dy="5"/>
<feGaussianBlur stdDeviation="15"/>
<feColorMatrix type="matrix" values="0 0 0 0 0 0 0 0 0 0 0 0 0 0 0 0 0 0 0.05 0"/>
<feBlend mode="normal" in2="BackgroundImageFix" result="effect1_dropShadow_1155_2629"/>
<feBlend mode="normal" in="SourceGraphic" in2="effect1_dropShadow_1155_2629" result="shape"/>
</filter>
<clipPath id="clip0_1155_2629">
<rect width="45.7143" height="45.7143" fill="white" transform="translate(40 37)"/>
</clipPath>
</defs>
</svg>
