<svg width="65" height="100" viewBox="0 0 65 100" fill="none" xmlns="http://www.w3.org/2000/svg">
<path d="M0 10C0 4.47716 4.47715 0 10 0H55C60.5229 0 65 4.47715 65 10V87.2673C65 91.8117 59.4281 93.9995 56.3359 90.6694C49.457 83.2614 43.7502 77.1156 36.1661 68.9481C34.188 66.8178 30.8142 66.8155 28.836 68.9458L8.66396 90.6696C5.57177 93.9996 0 91.8117 0 87.2673V10Z" fill="#747CA5"/>
<g clip-path="url(#clip0)">
<path d="M24.8922 42.5275C23.466 39.4812 22.9184 36.2866 23.2721 32.9437C25.1888 32.1679 28.3606 32.6813 30.072 35.3168C31.8062 37.9866 31.1103 42.0027 27.8358 43.7483C29.1593 45.6879 30.825 47.2396 32.8331 48.449C34.8525 47.251 36.5069 45.6879 37.8532 43.7369C37.7619 43.6799 37.682 43.6342 37.5908 43.5772C36.0847 42.6645 35.1264 41.3524 34.7841 39.6182C34.168 36.5376 36.1076 33.5142 39.1653 32.7726C40.1693 32.5216 41.1733 32.5444 42.1659 32.8296C42.4055 32.8981 42.4283 32.8981 42.4283 33.1377C42.4511 33.9819 42.5082 34.8376 42.4854 35.6819C42.4397 37.2564 42.1545 38.7967 41.6525 40.2913C41.4357 40.9416 41.1619 41.5692 40.9223 42.2081C40.8881 42.3108 40.8424 42.402 40.7968 42.5047C43.0901 42.9383 46.9236 42.4705 49.9927 39.7094C53.3014 36.7202 54.294 32.3846 53.5296 28.9162C52.7424 29.635 51.9437 30.2967 51.0652 30.8786C50.1753 31.4605 49.2511 31.9625 48.2699 32.3846C47.3001 32.7954 46.3075 33.1262 45.2693 33.3544C45.1894 33.0806 45.2578 32.8182 45.3263 32.5786C45.5431 31.7799 46.0451 31.2095 46.8095 30.9014C47.5055 30.6162 48.2015 30.3081 48.8632 29.9545C50.6202 28.9961 52.1263 27.7525 53.3927 26.2122C53.6437 25.9041 53.8833 25.5733 54.1343 25.2652C54.1571 25.231 54.1913 25.1968 54.2256 25.1625C55.9484 28.2545 56.5074 33.2175 54.0887 37.6101C52.6853 40.1658 50.6773 42.0712 48.0417 43.3148C45.4062 44.5584 42.6565 44.8779 39.7814 44.353C38.4921 46.3725 36.872 48.0725 34.8639 49.4644C36.37 50.0805 37.8988 50.457 39.4733 50.5939C41.0592 50.7309 42.6223 50.6396 44.1854 50.3087C42.7592 53.1839 39.0512 56.4812 34.0653 56.9375C28.3492 57.4624 23.5687 54.2449 21.4694 50.3087C22.5305 50.5027 23.5687 50.6396 24.6184 50.651C25.668 50.651 26.7177 50.5825 27.7445 50.3772C28.7828 50.1832 29.7982 49.8866 30.8136 49.4644C30.5398 49.259 30.3002 49.0879 30.0606 48.9054C28.4861 47.6846 27.1398 46.2356 26.0559 44.5584C25.9533 44.3987 25.8506 44.353 25.6566 44.3873C24.356 44.6269 23.0439 44.6611 21.7318 44.5014C18.8567 44.1363 16.3466 42.9725 14.2245 40.9987C13.0265 39.8806 12.0567 38.5799 11.3379 37.1081C10.5507 35.4994 10.1057 33.7994 10.003 32.0081C9.88892 30.0115 10.2084 28.0833 10.95 26.2236C11.0755 25.9155 11.2124 25.6189 11.3493 25.3223C11.3721 25.2652 11.4178 25.2196 11.4634 25.1511C11.5547 25.2766 11.6345 25.3679 11.703 25.4706C13.5171 27.935 15.856 29.7149 18.7083 30.833C19.4157 31.1068 19.952 31.5518 20.2486 32.2591C20.3855 32.6014 20.4882 32.9665 20.4197 33.3773C17.2593 32.6471 14.5325 31.1524 12.1708 28.939C11.4862 31.7914 12.0453 35.9444 15.0573 39.1047C18.0808 42.2765 22.1197 42.9953 24.8922 42.5275ZM25.8734 52.5792C27.8358 54.2335 30.962 55.3973 34.3049 54.9637C36.1532 54.7241 39.1995 53.4235 39.77 52.5678C39.6787 52.5563 39.6102 52.5449 39.5304 52.5449C38.6518 52.4765 37.7733 52.351 36.9062 52.1456C35.5713 51.8376 34.2821 51.3812 33.0499 50.7765C32.9015 50.708 32.7874 50.6966 32.6391 50.7651C31.7378 51.2215 30.7908 51.5865 29.821 51.8718C28.8969 52.1456 27.9499 52.351 26.9915 52.4537C26.6264 52.4879 26.2727 52.5335 25.8734 52.5792ZM40.5686 34.5638C38.8572 34.541 36.9633 35.7504 36.6438 37.9638C36.4955 38.9792 36.7237 39.9262 37.317 40.7705C37.7049 41.3296 38.2069 41.7745 38.8572 42.0598C40.0438 39.6866 40.6142 37.2108 40.5686 34.5638ZM26.8204 42.0598C28.4063 41.341 29.4445 39.4242 28.9425 37.5074C28.4291 35.5793 26.6378 34.5068 25.1204 34.5638C25.0519 37.1994 25.6338 39.6866 26.8204 42.0598Z" fill="white"/>
<path d="M32.8335 20.4277C32.8792 20.3593 32.9248 20.3022 32.959 20.2452C34.0087 18.5908 35.5033 17.5412 37.3973 17.062C39.759 16.4687 42.1093 15.8526 44.4596 15.2365C45.7603 14.8942 47.0724 14.5633 48.373 14.221C48.4529 14.1982 48.5328 14.1868 48.6469 14.164C48.6469 14.2895 48.6583 14.415 48.6469 14.5177C48.51 15.5445 47.7798 16.3774 46.7643 16.6398C43.7294 17.4271 40.6832 18.1801 37.6597 19.0016C35.8228 19.4922 34.602 20.7015 34.0543 22.527C33.5865 24.0787 33.849 25.5505 34.7503 26.8854C35.5261 28.0149 36.61 28.7223 37.9563 29.0075C40.1583 29.4639 42.3831 28.4143 43.467 26.4747C43.8892 25.7102 44.1174 24.8888 44.1174 24.0217C44.1174 23.5197 44.1972 23.0405 44.4482 22.6069C44.7221 22.1505 45.0872 21.7968 45.612 21.5687C45.6804 21.7512 45.7489 21.9338 45.7945 22.1049C46.9012 26.2693 44.1972 30.274 40.1583 30.9471C39.5879 31.0384 39.0174 31.1183 38.4697 31.2666C37.1691 31.6203 36.0624 32.2934 35.1268 33.2632C34.5563 33.8565 34.0886 34.5068 33.7349 35.2484C33.5523 35.6364 33.3241 36.0015 33.0389 36.3209C32.9704 36.3894 32.902 36.4578 32.8221 36.5377C32.4456 36.184 32.1604 35.7847 31.955 35.3283C31.3617 34.0733 30.4946 33.0464 29.3423 32.2592C28.3611 31.5975 27.2772 31.1639 26.102 31.027C24.9383 30.8901 23.8316 30.5706 22.8504 29.9089C20.9564 28.6539 19.8839 26.8854 19.6329 24.6264C19.5303 23.6452 19.6443 22.6982 19.941 21.7626C19.9638 21.6942 19.998 21.6257 20.0323 21.5458C20.4772 21.7284 20.7967 22.025 21.0705 22.3787C21.4356 22.8693 21.5383 23.4398 21.5383 24.0331C21.5497 24.9915 21.8121 25.8928 22.3369 26.7029C23.1812 28.0263 24.3906 28.8136 25.9309 29.0418C28.0872 29.3612 30.1181 28.3002 31.145 26.5089C32.6624 23.8391 31.5215 20.576 28.9201 19.3324C28.3611 19.07 27.7678 18.9217 27.1745 18.7734C24.5846 18.1002 22.0061 17.4385 19.4162 16.7653C19.2222 16.7197 19.0282 16.6626 18.8343 16.617C17.8303 16.3546 17.0316 15.3734 17.0088 14.3465C17.0088 14.2895 17.0202 14.2439 17.0202 14.1526C17.1685 14.1868 17.294 14.221 17.4309 14.2553C20.5457 15.0539 23.6604 15.864 26.7752 16.6626C27.4597 16.8338 28.1329 16.9935 28.806 17.2103C30.449 17.7237 31.7154 18.7277 32.6624 20.1653C32.708 20.2452 32.7651 20.3364 32.8335 20.4277ZM32.8335 27.4673C32.1147 28.7109 31.1335 29.6236 29.8671 30.2854C31.0537 30.9928 32.0235 31.8827 32.8335 32.9894C33.2557 32.4189 33.6778 31.9055 34.1912 31.4834C34.6933 31.0612 35.2295 30.6733 35.7543 30.2626C34.5221 29.6122 33.5637 28.6881 32.8335 27.4673Z" fill="white"/>
<path d="M47.1741 17.8149C47.1856 18.3284 47.0715 18.7505 46.8319 19.1384C46.4439 19.7773 45.8849 20.1767 45.1547 20.3592C44.1735 20.6102 43.2037 20.8726 42.2225 21.1236C41.15 21.3975 40.0775 21.6713 39.0051 21.9565C38.6856 22.0478 38.3547 22.1391 38.0581 22.276C37.3393 22.6297 36.9628 23.4854 37.0655 24.1928C37.191 25.0256 37.7843 25.6532 38.5829 25.8357C39.5299 26.0525 40.6366 25.4592 40.8762 24.3183C40.9903 23.7706 41.2299 23.2914 41.6178 22.8921C41.8232 22.6867 42.2453 22.4243 42.5077 22.3787C42.6446 22.6069 42.7017 22.8579 42.7587 23.1203C42.9869 24.1699 42.8158 25.1626 42.2453 26.0639C41.6748 26.9538 40.8534 27.5243 39.8265 27.7525C38.0923 28.1404 36.301 27.3417 35.5138 25.733C34.8749 24.4209 34.9433 23.1089 35.7306 21.8538C36.3125 20.9297 37.1682 20.4163 38.2064 20.1539C39.6554 19.7888 41.093 19.4122 42.5305 19.0357C43.7742 18.7163 45.0292 18.3854 46.2728 18.0545C46.5809 17.9633 46.8547 17.8948 47.1741 17.8149Z" fill="white"/>
<path d="M18.4805 17.8149C18.8684 17.9062 19.1993 17.9861 19.5187 18.0659C20.5684 18.3398 21.6294 18.6136 22.6791 18.8874C23.9341 19.2183 25.1892 19.5492 26.4442 19.8914C26.8207 19.9941 27.1972 20.0968 27.5737 20.1881C28.6348 20.4391 29.4334 21.0552 30.0039 21.9565C30.3234 22.4585 30.5059 23.029 30.5401 23.6337C30.5744 24.2726 30.5059 24.8887 30.2435 25.482C29.8213 26.4404 29.1368 27.1364 28.167 27.5471C27.6992 27.7525 27.2086 27.8437 26.7066 27.8437C25.9422 27.8552 25.2234 27.6384 24.5616 27.2162C23.6717 26.6458 23.1241 25.8357 22.8845 24.8203C22.7133 24.1015 22.7704 23.029 23.1583 22.3559C23.4321 22.4357 23.6603 22.584 23.8771 22.7666C24.3677 23.1773 24.6643 23.7136 24.7898 24.3411C24.9039 24.9458 25.2576 25.3793 25.7939 25.6646C26.8891 26.2464 28.2583 25.6189 28.5549 24.3639C28.7831 23.4283 28.1442 22.3444 27.1516 22.0934C25.3261 21.6257 23.5006 21.1351 21.6637 20.6559C21.1959 20.5304 20.7281 20.4277 20.2717 20.2794C19.3134 19.9713 18.7315 19.3096 18.5489 18.317C18.5147 18.1686 18.5033 18.0089 18.4805 17.8149Z" fill="white"/>
<path d="M20.3967 35.6136C20.0772 35.6592 18.8108 35.3284 17.5672 34.8834C16.643 34.5525 15.7531 34.1418 14.8518 33.674C14.9545 34.1874 15.137 34.6096 15.3424 35.0203C15.9128 36.2069 16.7001 37.2223 17.7155 38.0552C18.7309 38.8881 19.8719 39.47 21.1383 39.8008C21.9141 40.0062 22.5188 40.4398 22.8725 41.1814C22.8953 41.227 22.9068 41.284 22.941 41.3753C22.8155 41.3753 22.7128 41.3981 22.6101 41.3867C20.8074 41.227 19.1417 40.6793 17.6356 39.6639C16.586 38.9565 15.6846 38.078 14.9659 37.0284C14.1786 35.8874 13.631 34.621 13.3686 33.2519C13.2316 32.5445 13.129 31.8143 13.186 31.0613C13.2316 31.0841 13.2773 31.0841 13.3001 31.1069C14.2243 31.8029 15.2283 32.3848 16.2665 32.8982C17.0994 33.3089 17.9665 33.6284 18.8564 33.925C19.6095 34.176 20.2484 34.872 20.3967 35.6136Z" fill="white"/>
<path d="M52.4799 31.0498C52.6853 36.3666 48.3041 41.2383 42.7363 41.3753C42.839 41.1128 42.9531 40.8732 43.1357 40.6679C43.5122 40.2343 43.9799 39.9491 44.5276 39.8122C45.2692 39.6296 45.9766 39.3444 46.6497 38.9679C47.5967 38.4316 48.4296 37.7471 49.137 36.9028C49.8672 36.0357 50.392 35.0545 50.7571 33.982C50.7913 33.8907 50.8027 33.788 50.837 33.6625C49.0571 34.5981 47.243 35.2941 45.2692 35.6706C45.3377 35.2941 45.4974 34.9974 45.7142 34.735C46.0679 34.2786 46.547 34.0162 47.0833 33.8451C48.4068 33.4229 49.6618 32.8525 50.8484 32.1223C51.339 31.8142 51.8182 31.4834 52.3088 31.1639C52.3544 31.1183 52.4 31.0954 52.4799 31.0498Z" fill="white"/>
<path d="M26.6035 15.6929C29.5129 12.1218 35.6968 11.7452 39.0967 15.6929C39.0511 15.7157 39.0055 15.7499 38.9598 15.7613C38.3551 15.9211 37.7504 16.0694 37.1458 16.2291C36.9974 16.2633 36.8947 16.2519 36.7692 16.1493C36.233 15.7271 35.6397 15.4191 35.0008 15.1909C34.4075 14.9855 33.7914 14.8486 33.1639 14.8258C31.9659 14.7687 30.8364 15.0311 29.7753 15.6016C29.4787 15.7613 29.2048 15.9553 28.931 16.1493C28.8283 16.2291 28.7257 16.2633 28.6002 16.2291C27.9498 16.058 27.2995 15.8868 26.6492 15.7271C26.6263 15.7271 26.6149 15.7043 26.6035 15.6929Z" fill="white"/>
<path d="M37.5109 53.3551C34.3962 54.7927 31.3043 54.7813 28.1553 53.3551C28.3721 53.2068 28.5774 53.1726 28.7714 53.1612C29.1479 53.1383 29.513 53.184 29.8781 53.2981C30.5512 53.5148 31.2472 53.6518 31.9546 53.7202C32.6277 53.7887 33.3009 53.7659 33.974 53.6974C34.6358 53.6289 35.2747 53.4692 35.9136 53.2638C36.3928 53.1041 36.8834 53.1041 37.3626 53.2524C37.3968 53.2638 37.4311 53.2753 37.4653 53.2867C37.4653 53.2981 37.4767 53.3209 37.5109 53.3551Z" fill="white"/>
</g>
<defs>
<clipPath id="clip0">
<rect width="45.7143" height="45.7143" fill="white" transform="translate(10 12)"/>
</clipPath>
</defs>
</svg>
