<svg width="24" height="24" viewBox="0 0 24 24" fill="none" xmlns="http://www.w3.org/2000/svg">
<path fill-rule="evenodd" clip-rule="evenodd" d="M10.5605 8.43938C11.1465 9.02438 11.1465 9.97538 10.5605 10.5604C9.97449 11.1464 9.02549 11.1464 8.43949 10.5604C7.85349 9.97538 7.85349 9.02438 8.43949 8.43938C9.02549 7.85338 9.97449 7.85338 10.5605 8.43938ZM5.83399 12.8915L11.866 18.9245L18.924 11.8665L12.892 5.83348L5.10699 5.10748L5.83399 12.8915ZM11.866 20.9985C11.401 20.9985 10.937 20.8215 10.582 20.4685L4.16499 14.0505C3.99999 13.8865 3.89799 13.6685 3.87599 13.4365L3.00399 4.09248C2.97699 3.79648 3.08199 3.50348 3.29299 3.29248C3.50399 3.08148 3.79599 2.97448 4.09299 3.00448L13.437 3.87648C13.669 3.89748 13.886 3.99948 14.051 4.16448L20.468 10.5815C20.811 10.9245 21 11.3805 21 11.8665C21 12.3525 20.811 12.8085 20.468 13.1515L13.151 20.4675C12.797 20.8215 12.332 20.9985 11.866 20.9985Z" fill="white"/>
<mask id="mask0_147_27208" style="mask-type:alpha" maskUnits="userSpaceOnUse" x="2" y="2" width="19" height="19">
<path fill-rule="evenodd" clip-rule="evenodd" d="M10.5605 8.43938C11.1465 9.02438 11.1465 9.97538 10.5605 10.5604C9.97449 11.1464 9.02549 11.1464 8.43949 10.5604C7.85349 9.97538 7.85349 9.02438 8.43949 8.43938C9.02549 7.85338 9.97449 7.85338 10.5605 8.43938ZM5.83399 12.8915L11.866 18.9245L18.924 11.8665L12.892 5.83348L5.10699 5.10748L5.83399 12.8915ZM11.866 20.9985C11.401 20.9985 10.937 20.8215 10.582 20.4685L4.16499 14.0505C3.99999 13.8865 3.89799 13.6685 3.87599 13.4365L3.00399 4.09248C2.97699 3.79648 3.08199 3.50348 3.29299 3.29248C3.50399 3.08148 3.79599 2.97448 4.09299 3.00448L13.437 3.87648C13.669 3.89748 13.886 3.99948 14.051 4.16448L20.468 10.5815C20.811 10.9245 21 11.3805 21 11.8665C21 12.3525 20.811 12.8085 20.468 13.1515L13.151 20.4675C12.797 20.8215 12.332 20.9985 11.866 20.9985Z" fill="white"/>
</mask>
<g mask="url(#mask0_147_27208)">
<rect width="24" height="24" fill="white"/>
</g>
</svg>
