<svg width="24" height="24" viewBox="0 0 24 24" fill="none" xmlns="http://www.w3.org/2000/svg">
<path fill-rule="evenodd" clip-rule="evenodd" d="M11.8213 15.506C11.9903 15.506 12.1603 15.549 12.3133 15.635L17.0003 18.286V5.334C17.0003 5.133 16.8793 5 16.8003 5H7.20031C7.12031 5 7.00031 5.133 7.00031 5.334V18.234L11.3063 15.649C11.4653 15.554 11.6433 15.506 11.8213 15.506ZM6.00031 21C5.83031 21 5.66031 20.957 5.50731 20.87C5.19431 20.693 5.00031 20.36 5.00031 20V5.334C5.00031 4.047 5.98731 3 7.20031 3H16.8003C18.0133 3 19.0003 4.047 19.0003 5.334V20C19.0003 20.356 18.8113 20.685 18.5043 20.864C18.1963 21.044 17.8183 21.047 17.5083 20.871L11.8363 17.663L6.51431 20.858C6.35631 20.952 6.17831 21 6.00031 21Z" fill="white"/>
<mask id="mask0_1362_1408" style="mask-type:alpha" maskUnits="userSpaceOnUse" x="5" y="3" width="15" height="19">
<path fill-rule="evenodd" clip-rule="evenodd" d="M11.8213 15.506C11.9903 15.506 12.1603 15.549 12.3133 15.635L17.0003 18.286V5.334C17.0003 5.133 16.8793 5 16.8003 5H7.20031C7.12031 5 7.00031 5.133 7.00031 5.334V18.234L11.3063 15.649C11.4653 15.554 11.6433 15.506 11.8213 15.506ZM6.00031 21C5.83031 21 5.66031 20.957 5.50731 20.87C5.19431 20.693 5.00031 20.36 5.00031 20V5.334C5.00031 4.047 5.98731 3 7.20031 3H16.8003C18.0133 3 19.0003 4.047 19.0003 5.334V20C19.0003 20.356 18.8113 20.685 18.5043 20.864C18.1963 21.044 17.8183 21.047 17.5083 20.871L11.8363 17.663L6.51431 20.858C6.35631 20.952 6.17831 21 6.00031 21Z" fill="white"/>
</mask>
<g mask="url(#mask0_1362_1408)">
<rect width="24" height="24" fill="white"/>
</g>
</svg>
